<?xml version="1.0" encoding="utf-8"?>
<!-- Generator: Adobe Illustrator 17.0.0, SVG Export Plug-In . SVG Version: 6.00 Build 0)  -->
<!DOCTYPE svg PUBLIC "-//W3C//DTD SVG 1.1//EN" "http://www.w3.org/Graphics/SVG/1.1/DTD/svg11.dtd">
<svg version="1.1" id="Layer_1" xmlns="http://www.w3.org/2000/svg" xmlns:xlink="http://www.w3.org/1999/xlink" x="0px" y="0px"
	 width="366.991px" height="411.979px" viewBox="0 0 366.991 411.979" enable-background="new 0 0 366.991 411.979"
	 xml:space="preserve">
<g>
	<g>
		<g>
			<defs>
				<polygon id="SVGID_1_" points="108.889,342.75 126.068,312.994 108.889,283.239 74.531,283.239 57.352,312.994 74.531,342.75 
									"/>
			</defs>
			<clipPath id="SVGID_2_">
				<use xlink:href="#SVGID_1_"  overflow="visible"/>
			</clipPath>
			
				<line clip-path="url(#SVGID_2_)" fill="none" stroke="#00BBBC" stroke-width="2" stroke-miterlimit="10" x1="166.096" y1="319.629" x2="69.69" y2="150.221"/>
			
				<line clip-path="url(#SVGID_2_)" fill="none" stroke="#00BBBC" stroke-width="2" stroke-miterlimit="10" x1="157.817" y1="324.341" x2="61.412" y2="154.933"/>
			
				<line clip-path="url(#SVGID_2_)" fill="none" stroke="#00BBBC" stroke-width="2" stroke-miterlimit="10" x1="149.539" y1="329.052" x2="53.133" y2="159.644"/>
			
				<line clip-path="url(#SVGID_2_)" fill="none" stroke="#00BBBC" stroke-width="2" stroke-miterlimit="10" x1="141.26" y1="333.763" x2="44.854" y2="164.355"/>
			
				<line clip-path="url(#SVGID_2_)" fill="none" stroke="#00BBBC" stroke-width="2" stroke-miterlimit="10" x1="132.981" y1="338.474" x2="36.575" y2="169.066"/>
			
				<line clip-path="url(#SVGID_2_)" fill="none" stroke="#00BBBC" stroke-width="2" stroke-miterlimit="10" x1="199.854" y1="301.914" x2="103.448" y2="132.506"/>
			
				<line clip-path="url(#SVGID_2_)" fill="none" stroke="#00BBBC" stroke-width="2" stroke-miterlimit="10" x1="191.575" y1="306.625" x2="95.17" y2="137.217"/>
			
				<line clip-path="url(#SVGID_2_)" fill="none" stroke="#00BBBC" stroke-width="2" stroke-miterlimit="10" x1="183.296" y1="311.336" x2="86.891" y2="141.928"/>
			
				<line clip-path="url(#SVGID_2_)" fill="none" stroke="#00BBBC" stroke-width="2" stroke-miterlimit="10" x1="175.018" y1="316.047" x2="78.612" y2="146.64"/>
			
				<line clip-path="url(#SVGID_2_)" fill="none" stroke="#00BBBC" stroke-width="2" stroke-miterlimit="10" x1="169.76" y1="316.797" x2="73.354" y2="147.389"/>
			
				<line clip-path="url(#SVGID_2_)" fill="none" stroke="#00BBBC" stroke-width="2" stroke-miterlimit="10" x1="161.481" y1="321.508" x2="65.076" y2="152.1"/>
			
				<line clip-path="url(#SVGID_2_)" fill="none" stroke="#00BBBC" stroke-width="2" stroke-miterlimit="10" x1="153.203" y1="326.219" x2="56.797" y2="156.811"/>
			
				<line clip-path="url(#SVGID_2_)" fill="none" stroke="#00BBBC" stroke-width="2" stroke-miterlimit="10" x1="144.924" y1="330.93" x2="48.519" y2="161.522"/>
			
				<line clip-path="url(#SVGID_2_)" fill="none" stroke="#00BBBC" stroke-width="2" stroke-miterlimit="10" x1="136.645" y1="335.642" x2="40.239" y2="166.233"/>
			
				<line clip-path="url(#SVGID_2_)" fill="none" stroke="#00BBBC" stroke-width="2" stroke-miterlimit="10" x1="203.518" y1="299.081" x2="107.112" y2="129.673"/>
			
				<line clip-path="url(#SVGID_2_)" fill="none" stroke="#00BBBC" stroke-width="2" stroke-miterlimit="10" x1="195.239" y1="303.792" x2="98.833" y2="134.385"/>
			
				<line clip-path="url(#SVGID_2_)" fill="none" stroke="#00BBBC" stroke-width="2" stroke-miterlimit="10" x1="186.96" y1="308.504" x2="90.555" y2="139.096"/>
			
				<line clip-path="url(#SVGID_2_)" fill="none" stroke="#00BBBC" stroke-width="2" stroke-miterlimit="10" x1="178.682" y1="313.215" x2="82.276" y2="143.807"/>
			
				<line clip-path="url(#SVGID_2_)" fill="none" stroke="#00BBBC" stroke-width="2" stroke-miterlimit="10" x1="95.398" y1="358.74" x2="-1.007" y2="189.332"/>
			
				<line clip-path="url(#SVGID_2_)" fill="none" stroke="#00BBBC" stroke-width="2" stroke-miterlimit="10" x1="87.12" y1="363.451" x2="-9.286" y2="194.043"/>
			
				<line clip-path="url(#SVGID_2_)" fill="none" stroke="#00BBBC" stroke-width="2" stroke-miterlimit="10" x1="78.842" y1="368.163" x2="-17.565" y2="198.754"/>
			
				<line clip-path="url(#SVGID_2_)" fill="none" stroke="#00BBBC" stroke-width="2" stroke-miterlimit="10" x1="70.563" y1="372.874" x2="-25.843" y2="203.466"/>
			
				<line clip-path="url(#SVGID_2_)" fill="none" stroke="#00BBBC" stroke-width="2" stroke-miterlimit="10" x1="62.284" y1="377.585" x2="-34.122" y2="208.177"/>
			
				<line clip-path="url(#SVGID_2_)" fill="none" stroke="#00BBBC" stroke-width="2" stroke-miterlimit="10" x1="129.156" y1="341.024" x2="32.751" y2="171.617"/>
			
				<line clip-path="url(#SVGID_2_)" fill="none" stroke="#00BBBC" stroke-width="2" stroke-miterlimit="10" x1="120.878" y1="345.736" x2="24.472" y2="176.328"/>
			
				<line clip-path="url(#SVGID_2_)" fill="none" stroke="#00BBBC" stroke-width="2" stroke-miterlimit="10" x1="112.6" y1="350.447" x2="16.193" y2="181.039"/>
			
				<line clip-path="url(#SVGID_2_)" fill="none" stroke="#00BBBC" stroke-width="2" stroke-miterlimit="10" x1="104.32" y1="355.158" x2="7.914" y2="185.75"/>
			
				<line clip-path="url(#SVGID_2_)" fill="none" stroke="#00BBBC" stroke-width="2" stroke-miterlimit="10" x1="99.063" y1="355.907" x2="2.657" y2="186.499"/>
			
				<line clip-path="url(#SVGID_2_)" fill="none" stroke="#00BBBC" stroke-width="2" stroke-miterlimit="10" x1="90.784" y1="360.619" x2="-5.622" y2="191.211"/>
			
				<line clip-path="url(#SVGID_2_)" fill="none" stroke="#00BBBC" stroke-width="2" stroke-miterlimit="10" x1="82.506" y1="365.33" x2="-13.9" y2="195.922"/>
			
				<line clip-path="url(#SVGID_2_)" fill="none" stroke="#00BBBC" stroke-width="2" stroke-miterlimit="10" x1="74.227" y1="370.041" x2="-22.179" y2="200.633"/>
			
				<line clip-path="url(#SVGID_2_)" fill="none" stroke="#00BBBC" stroke-width="2" stroke-miterlimit="10" x1="65.948" y1="374.752" x2="-30.458" y2="205.344"/>
			
				<line clip-path="url(#SVGID_2_)" fill="none" stroke="#00BBBC" stroke-width="2" stroke-miterlimit="10" x1="124.542" y1="342.903" x2="28.136" y2="173.495"/>
			
				<line clip-path="url(#SVGID_2_)" fill="none" stroke="#00BBBC" stroke-width="2" stroke-miterlimit="10" x1="116.263" y1="347.614" x2="19.857" y2="178.206"/>
			
				<line clip-path="url(#SVGID_2_)" fill="none" stroke="#00BBBC" stroke-width="2" stroke-miterlimit="10" x1="107.984" y1="352.326" x2="11.578" y2="182.918"/>
		</g>
	</g>
	<polygon fill="#F26A57" points="126.068,119.989 186.615,224.859 126.068,329.729 65.521,224.859 	"/>
	<g>
		<g>
			<defs>
				<polygon id="SVGID_3_" points="340.538,329.272 364.164,288.352 340.538,247.431 293.286,247.431 269.661,288.352 
					293.286,329.272 				"/>
			</defs>
			<clipPath id="SVGID_4_">
				<use xlink:href="#SVGID_3_"  overflow="visible"/>
			</clipPath>
			
				<line clip-path="url(#SVGID_4_)" fill="none" stroke="#DCDCE1" stroke-width="2" stroke-miterlimit="10" x1="421.212" y1="294.954" x2="283.458" y2="64.993"/>
			
				<line clip-path="url(#SVGID_4_)" fill="none" stroke="#DCDCE1" stroke-width="2" stroke-miterlimit="10" x1="409.974" y1="301.685" x2="272.22" y2="71.725"/>
			
				<line clip-path="url(#SVGID_4_)" fill="none" stroke="#DCDCE1" stroke-width="2" stroke-miterlimit="10" x1="398.736" y1="308.417" x2="260.982" y2="78.457"/>
			
				<line clip-path="url(#SVGID_4_)" fill="none" stroke="#DCDCE1" stroke-width="2" stroke-miterlimit="10" x1="387.499" y1="315.149" x2="249.745" y2="85.189"/>
			
				<line clip-path="url(#SVGID_4_)" fill="none" stroke="#DCDCE1" stroke-width="2" stroke-miterlimit="10" x1="376.261" y1="321.881" x2="238.507" y2="91.921"/>
			
				<line clip-path="url(#SVGID_4_)" fill="none" stroke="#DCDCE1" stroke-width="2" stroke-miterlimit="10" x1="467.082" y1="269.56" x2="329.328" y2="39.599"/>
			
				<line clip-path="url(#SVGID_4_)" fill="none" stroke="#DCDCE1" stroke-width="2" stroke-miterlimit="10" x1="455.844" y1="276.291" x2="318.09" y2="46.331"/>
			
				<line clip-path="url(#SVGID_4_)" fill="none" stroke="#DCDCE1" stroke-width="2" stroke-miterlimit="10" x1="444.606" y1="283.023" x2="306.852" y2="53.063"/>
			
				<line clip-path="url(#SVGID_4_)" fill="none" stroke="#DCDCE1" stroke-width="2" stroke-miterlimit="10" x1="433.368" y1="289.755" x2="295.614" y2="59.794"/>
			
				<line clip-path="url(#SVGID_4_)" fill="none" stroke="#DCDCE1" stroke-width="2" stroke-miterlimit="10" x1="426.163" y1="290.946" x2="288.409" y2="60.986"/>
			
				<line clip-path="url(#SVGID_4_)" fill="none" stroke="#DCDCE1" stroke-width="2" stroke-miterlimit="10" x1="414.925" y1="297.678" x2="277.171" y2="67.718"/>
			
				<line clip-path="url(#SVGID_4_)" fill="none" stroke="#DCDCE1" stroke-width="2" stroke-miterlimit="10" x1="403.687" y1="304.41" x2="265.933" y2="74.45"/>
			
				<line clip-path="url(#SVGID_4_)" fill="none" stroke="#DCDCE1" stroke-width="2" stroke-miterlimit="10" x1="392.449" y1="311.142" x2="254.695" y2="81.182"/>
			
				<line clip-path="url(#SVGID_4_)" fill="none" stroke="#DCDCE1" stroke-width="2" stroke-miterlimit="10" x1="381.211" y1="317.874" x2="243.457" y2="87.913"/>
			
				<line clip-path="url(#SVGID_4_)" fill="none" stroke="#DCDCE1" stroke-width="2" stroke-miterlimit="10" x1="472.033" y1="265.552" x2="334.278" y2="35.592"/>
			
				<line clip-path="url(#SVGID_4_)" fill="none" stroke="#DCDCE1" stroke-width="2" stroke-miterlimit="10" x1="460.795" y1="272.284" x2="323.04" y2="42.324"/>
			
				<line clip-path="url(#SVGID_4_)" fill="none" stroke="#DCDCE1" stroke-width="2" stroke-miterlimit="10" x1="449.557" y1="279.016" x2="311.803" y2="49.056"/>
			
				<line clip-path="url(#SVGID_4_)" fill="none" stroke="#DCDCE1" stroke-width="2" stroke-miterlimit="10" x1="438.319" y1="285.747" x2="300.565" y2="55.787"/>
			
				<line clip-path="url(#SVGID_4_)" fill="none" stroke="#DCDCE1" stroke-width="2" stroke-miterlimit="10" x1="325.21" y1="350.899" x2="187.456" y2="120.939"/>
			
				<line clip-path="url(#SVGID_4_)" fill="none" stroke="#DCDCE1" stroke-width="2" stroke-miterlimit="10" x1="313.973" y1="357.631" x2="176.219" y2="127.671"/>
			
				<line clip-path="url(#SVGID_4_)" fill="none" stroke="#DCDCE1" stroke-width="2" stroke-miterlimit="10" x1="302.735" y1="364.363" x2="164.981" y2="134.403"/>
			
				<line clip-path="url(#SVGID_4_)" fill="none" stroke="#DCDCE1" stroke-width="2" stroke-miterlimit="10" x1="291.497" y1="371.095" x2="153.743" y2="141.135"/>
			
				<line clip-path="url(#SVGID_4_)" fill="none" stroke="#DCDCE1" stroke-width="2" stroke-miterlimit="10" x1="280.259" y1="377.827" x2="142.505" y2="147.867"/>
			
				<line clip-path="url(#SVGID_4_)" fill="none" stroke="#DCDCE1" stroke-width="2" stroke-miterlimit="10" x1="371.081" y1="325.505" x2="233.326" y2="95.545"/>
			
				<line clip-path="url(#SVGID_4_)" fill="none" stroke="#DCDCE1" stroke-width="2" stroke-miterlimit="10" x1="359.842" y1="332.237" x2="222.088" y2="102.276"/>
			
				<line clip-path="url(#SVGID_4_)" fill="none" stroke="#DCDCE1" stroke-width="2" stroke-miterlimit="10" x1="348.604" y1="338.969" x2="210.851" y2="109.008"/>
			
				<line clip-path="url(#SVGID_4_)" fill="none" stroke="#DCDCE1" stroke-width="2" stroke-miterlimit="10" x1="337.367" y1="345.701" x2="199.613" y2="115.74"/>
			
				<line clip-path="url(#SVGID_4_)" fill="none" stroke="#DCDCE1" stroke-width="2" stroke-miterlimit="10" x1="330.161" y1="346.892" x2="192.407" y2="116.932"/>
			
				<line clip-path="url(#SVGID_4_)" fill="none" stroke="#DCDCE1" stroke-width="2" stroke-miterlimit="10" x1="318.923" y1="353.624" x2="181.169" y2="123.663"/>
			
				<line clip-path="url(#SVGID_4_)" fill="none" stroke="#DCDCE1" stroke-width="2" stroke-miterlimit="10" x1="307.685" y1="360.356" x2="169.932" y2="130.395"/>
			
				<line clip-path="url(#SVGID_4_)" fill="none" stroke="#DCDCE1" stroke-width="2" stroke-miterlimit="10" x1="296.448" y1="367.088" x2="158.694" y2="137.127"/>
			
				<line clip-path="url(#SVGID_4_)" fill="none" stroke="#DCDCE1" stroke-width="2" stroke-miterlimit="10" x1="285.21" y1="373.82" x2="147.456" y2="143.859"/>
			
				<line clip-path="url(#SVGID_4_)" fill="none" stroke="#DCDCE1" stroke-width="2" stroke-miterlimit="10" x1="364.793" y1="328.229" x2="227.039" y2="98.27"/>
			
				<line clip-path="url(#SVGID_4_)" fill="none" stroke="#DCDCE1" stroke-width="2" stroke-miterlimit="10" x1="353.556" y1="334.961" x2="215.801" y2="105.001"/>
			
				<line clip-path="url(#SVGID_4_)" fill="none" stroke="#DCDCE1" stroke-width="2" stroke-miterlimit="10" x1="342.317" y1="341.693" x2="204.564" y2="111.733"/>
		</g>
	</g>
	<polygon fill="#F2A36F" points="306.825,329.569 336.931,277.424 306.825,225.279 246.613,225.279 216.507,277.424 
		246.613,329.569 	"/>
	<polygon fill="#FEDBBA" points="276.757,277.541 291.821,251.45 276.757,225.358 246.63,225.358 231.566,251.45 246.63,277.541 	
		"/>
	<g>
		<g>
			<defs>
				<polygon id="SVGID_5_" points="216.822,173.293 246.809,121.354 216.822,69.414 156.847,69.414 126.859,121.354 
					156.847,173.293 				"/>
			</defs>
			<clipPath id="SVGID_6_">
				<use xlink:href="#SVGID_5_"  overflow="visible"/>
			</clipPath>
			
				<line clip-path="url(#SVGID_6_)" fill="none" stroke="#F36C42" stroke-width="2" stroke-miterlimit="10" x1="324.149" y1="135.472" x2="148.624" y2="-164.709"/>
			
				<line clip-path="url(#SVGID_6_)" fill="none" stroke="#F36C42" stroke-width="2" stroke-miterlimit="10" x1="309.479" y1="144.049" x2="133.954" y2="-156.131"/>
			
				<line clip-path="url(#SVGID_6_)" fill="none" stroke="#F36C42" stroke-width="2" stroke-miterlimit="10" x1="294.81" y1="152.627" x2="119.284" y2="-147.554"/>
			
				<line clip-path="url(#SVGID_6_)" fill="none" stroke="#F36C42" stroke-width="2" stroke-miterlimit="10" x1="280.141" y1="161.204" x2="104.615" y2="-138.976"/>
			
				<line clip-path="url(#SVGID_6_)" fill="none" stroke="#F36C42" stroke-width="2" stroke-miterlimit="10" x1="265.471" y1="169.782" x2="89.945" y2="-130.398"/>
			
				<line clip-path="url(#SVGID_6_)" fill="#022169" stroke="#007481" stroke-width="2" stroke-miterlimit="10" x1="383.997" y1="103.162" x2="208.471" y2="-197.019"/>
			
				<line clip-path="url(#SVGID_6_)" fill="none" stroke="#F36C42" stroke-width="2" stroke-miterlimit="10" x1="369.328" y1="111.74" x2="193.802" y2="-188.441"/>
			
				<line clip-path="url(#SVGID_6_)" fill="none" stroke="#F36C42" stroke-width="2" stroke-miterlimit="10" x1="354.658" y1="120.317" x2="179.132" y2="-179.863"/>
			
				<line clip-path="url(#SVGID_6_)" fill="none" stroke="#F36C42" stroke-width="2" stroke-miterlimit="10" x1="339.989" y1="128.895" x2="164.463" y2="-171.286"/>
			
				<line clip-path="url(#SVGID_6_)" fill="none" stroke="#F36C42" stroke-width="2" stroke-miterlimit="10" x1="330.625" y1="130.342" x2="155.1" y2="-169.839"/>
			
				<line clip-path="url(#SVGID_6_)" fill="none" stroke="#F36C42" stroke-width="2" stroke-miterlimit="10" x1="315.957" y1="138.919" x2="140.431" y2="-161.261"/>
			
				<line clip-path="url(#SVGID_6_)" fill="none" stroke="#F36C42" stroke-width="2" stroke-miterlimit="10" x1="301.287" y1="147.497" x2="125.761" y2="-152.684"/>
			
				<line clip-path="url(#SVGID_6_)" fill="none" stroke="#F36C42" stroke-width="2" stroke-miterlimit="10" x1="286.617" y1="156.075" x2="111.092" y2="-144.106"/>
			
				<line clip-path="url(#SVGID_6_)" fill="none" stroke="#F36C42" stroke-width="2" stroke-miterlimit="10" x1="271.948" y1="164.652" x2="96.422" y2="-135.528"/>
			
				<line clip-path="url(#SVGID_6_)" fill="#022169" stroke="#007481" stroke-width="2" stroke-miterlimit="10" x1="390.474" y1="98.032" x2="214.948" y2="-202.148"/>
			
				<line clip-path="url(#SVGID_6_)" fill="#022169" stroke="#007481" stroke-width="2" stroke-miterlimit="10" x1="375.804" y1="106.61" x2="200.278" y2="-193.571"/>
			
				<line clip-path="url(#SVGID_6_)" fill="none" stroke="#F36C42" stroke-width="2" stroke-miterlimit="10" x1="361.135" y1="115.188" x2="185.609" y2="-184.993"/>
			
				<line clip-path="url(#SVGID_6_)" fill="none" stroke="#F36C42" stroke-width="2" stroke-miterlimit="10" x1="346.465" y1="123.765" x2="170.939" y2="-176.416"/>
			
				<line clip-path="url(#SVGID_6_)" fill="none" stroke="#F36C42" stroke-width="2" stroke-miterlimit="10" x1="198.854" y1="206.722" x2="23.328" y2="-93.459"/>
			
				<line clip-path="url(#SVGID_6_)" fill="none" stroke="#F36C42" stroke-width="2" stroke-miterlimit="10" x1="184.185" y1="215.299" x2="8.659" y2="-84.881"/>
			
				<line clip-path="url(#SVGID_6_)" fill="none" stroke="#F36C42" stroke-width="2" stroke-miterlimit="10" x1="169.515" y1="223.877" x2="-6.011" y2="-76.304"/>
			
				<line clip-path="url(#SVGID_6_)" fill="none" stroke="#F36C42" stroke-width="2" stroke-miterlimit="10" x1="154.846" y1="232.454" x2="-20.68" y2="-67.726"/>
			
				<line clip-path="url(#SVGID_6_)" fill="none" stroke="#F36C42" stroke-width="2" stroke-miterlimit="10" x1="140.176" y1="241.033" x2="-35.35" y2="-59.148"/>
			
				<line clip-path="url(#SVGID_6_)" fill="none" stroke="#F36C42" stroke-width="2" stroke-miterlimit="10" x1="258.702" y1="174.412" x2="83.176" y2="-125.769"/>
			
				<line clip-path="url(#SVGID_6_)" fill="none" stroke="#F36C42" stroke-width="2" stroke-miterlimit="10" x1="244.033" y1="182.99" x2="68.507" y2="-117.191"/>
			
				<line clip-path="url(#SVGID_6_)" fill="none" stroke="#F36C42" stroke-width="2" stroke-miterlimit="10" x1="229.363" y1="191.567" x2="53.838" y2="-108.613"/>
			
				<line clip-path="url(#SVGID_6_)" fill="none" stroke="#F36C42" stroke-width="2" stroke-miterlimit="10" x1="214.694" y1="200.145" x2="39.168" y2="-100.036"/>
			
				<line clip-path="url(#SVGID_6_)" fill="none" stroke="#F36C42" stroke-width="2" stroke-miterlimit="10" x1="205.331" y1="201.592" x2="29.805" y2="-98.589"/>
			
				<line clip-path="url(#SVGID_6_)" fill="none" stroke="#F36C42" stroke-width="2" stroke-miterlimit="10" x1="190.661" y1="210.169" x2="15.136" y2="-90.011"/>
			
				<line clip-path="url(#SVGID_6_)" fill="none" stroke="#F36C42" stroke-width="2" stroke-miterlimit="10" x1="175.992" y1="218.747" x2="0.466" y2="-81.434"/>
			
				<line clip-path="url(#SVGID_6_)" fill="none" stroke="#F36C42" stroke-width="2" stroke-miterlimit="10" x1="161.322" y1="227.325" x2="-14.203" y2="-72.856"/>
			
				<line clip-path="url(#SVGID_6_)" fill="none" stroke="#F36C42" stroke-width="2" stroke-miterlimit="10" x1="146.653" y1="235.903" x2="-28.873" y2="-64.278"/>
			
				<line clip-path="url(#SVGID_6_)" fill="none" stroke="#F36C42" stroke-width="2" stroke-miterlimit="10" x1="250.509" y1="177.86" x2="74.983" y2="-122.321"/>
			
				<line clip-path="url(#SVGID_6_)" fill="none" stroke="#F36C42" stroke-width="2" stroke-miterlimit="10" x1="235.84" y1="186.438" x2="60.314" y2="-113.743"/>
			
				<line clip-path="url(#SVGID_6_)" fill="none" stroke="#F36C42" stroke-width="2" stroke-miterlimit="10" x1="221.17" y1="195.015" x2="45.645" y2="-105.166"/>
		</g>
	</g>
	<polygon fill="#DCDCE1" points="36.661,173.293 66.919,225.702 36.661,278.109 6.403,225.702 	"/>
	<polygon fill="#DCDCE1" points="96.266,278.109 126.068,329.729 66.464,329.729 	"/>
	<polygon fill="#F26A57" points="66.464,329.729 96.266,278.109 36.661,278.109 	"/>
	<polygon fill="#F26A57" points="18.331,309.859 36.661,278.109 0,278.109 	"/>
	<polygon fill="#F2A36F" points="96.878,68.962 109.771,46.629 83.984,46.629 	"/>
	<polygon fill="#DCDCE1" points="306.825,225.438 336.931,173.293 306.825,121.148 246.613,121.148 216.507,173.293 
		246.613,225.438 	"/>
	<polygon fill="#E7555D" points="216.386,381.874 246.492,329.729 216.386,277.583 156.174,277.583 126.068,329.729 
		156.174,381.874 	"/>
	<polygon fill="#E7555D" points="81.522,355.808 89.051,342.768 81.522,329.729 66.466,329.729 58.938,342.768 66.466,355.808 	"/>
	<polygon fill="#00BBBC" points="336.931,173.293 366.991,225.359 336.931,277.424 306.871,225.359 	"/>
	<polygon fill="#F26A57" points="329.247,238.277 336.705,225.358 329.247,212.44 314.329,212.44 306.871,225.358 314.329,238.277 	
		"/>
	<polygon fill="#003F5B" points="269.296,368.463 284.269,342.529 269.296,316.595 239.35,316.595 224.376,342.529 239.35,368.463 	
		"/>
	<polygon fill="#F2A36F" points="306.818,173.509 314.365,160.418 306.807,147.329 291.807,147.329 284.269,160.418 
		291.807,173.509 	"/>
	<polygon fill="#F2A36F" points="284.269,134.238 291.815,121.148 284.258,108.059 269.258,108.059 261.72,121.148 269.258,134.238 
			"/>
	<polygon fill="#E7555D" points="306.818,147.329 314.365,134.238 306.807,121.148 291.807,121.148 284.269,134.238 
		291.807,147.329 	"/>
	<polygon fill="#DCDCE1" points="186.848,69.682 201.705,95.415 186.848,121.148 171.991,95.415 	"/>
	<polygon fill="#F2A36F" points="231.684,408.598 216.28,381.917 231.684,355.236 247.088,381.917 	"/>
	<polygon fill="#F26A57" points="96.875,68.962 81.811,95.055 96.875,121.148 127.006,121.148 142.071,95.055 127.006,68.962 	"/>
	<polygon fill="#E7555D" points="227.074,69.684 247.19,34.842 227.074,0 186.842,0 166.726,34.842 186.842,69.684 	"/>
	<g>
		<g>
			<defs>
				<polygon id="SVGID_7_" points="81.669,147.057 96.681,121.056 81.669,95.055 51.646,95.055 36.634,121.056 51.646,147.057 				
					"/>
			</defs>
			<clipPath id="SVGID_8_">
				<use xlink:href="#SVGID_7_"  overflow="visible"/>
			</clipPath>
			<polygon clip-path="url(#SVGID_8_)" fill="#EF3D49" points="103.44,146.958 96.769,146.958 100.104,141.202 			"/>
			<polygon clip-path="url(#SVGID_8_)" fill="#EF3D49" points="90.098,146.958 83.426,146.958 86.762,141.202 			"/>
			<polygon clip-path="url(#SVGID_8_)" fill="#EF3D49" points="76.956,146.958 70.285,146.958 73.621,141.202 			"/>
			<polygon clip-path="url(#SVGID_8_)" fill="#EF3D49" points="63.613,146.958 56.942,146.958 60.277,141.202 			"/>
			<polygon clip-path="url(#SVGID_8_)" fill="#EF3D49" points="50.271,146.958 43.6,146.958 46.935,141.202 			"/>
			<polygon clip-path="url(#SVGID_8_)" fill="#EF3D49" points="36.928,146.958 30.256,146.958 33.592,141.202 			"/>
			<polygon clip-path="url(#SVGID_8_)" fill="#EF3D49" points="23.787,146.958 17.115,146.958 20.451,141.202 			"/>
			<polygon clip-path="url(#SVGID_8_)" fill="#EF3D49" points="10.443,146.958 3.772,146.958 7.108,141.202 			"/>
			<polygon clip-path="url(#SVGID_8_)" fill="#EF3D49" points="103.44,135.446 96.769,135.446 100.104,129.69 			"/>
			<polygon clip-path="url(#SVGID_8_)" fill="#EF3D49" points="90.098,135.446 83.426,135.446 86.762,129.69 			"/>
			<polygon clip-path="url(#SVGID_8_)" fill="#EF3D49" points="76.956,135.446 70.285,135.446 73.621,129.69 			"/>
			<polygon clip-path="url(#SVGID_8_)" fill="#EF3D49" points="63.613,135.446 56.942,135.446 60.277,129.69 			"/>
			<polygon clip-path="url(#SVGID_8_)" fill="#EF3D49" points="50.271,135.446 43.6,135.446 46.935,129.69 			"/>
			<polygon clip-path="url(#SVGID_8_)" fill="#EF3D49" points="36.928,135.446 30.256,135.446 33.592,129.69 			"/>
			<polygon clip-path="url(#SVGID_8_)" fill="#EF3D49" points="23.787,135.446 17.115,135.446 20.451,129.69 			"/>
			<polygon clip-path="url(#SVGID_8_)" fill="#EF3D49" points="10.443,135.446 3.772,135.446 7.108,129.69 			"/>
			<polygon clip-path="url(#SVGID_8_)" fill="#EF3D49" points="103.44,123.934 96.769,123.934 100.104,118.178 			"/>
			<polygon clip-path="url(#SVGID_8_)" fill="#EF3D49" points="90.098,123.934 83.426,123.934 86.762,118.178 			"/>
			<polygon clip-path="url(#SVGID_8_)" fill="#EF3D49" points="76.956,123.934 70.285,123.934 73.62,118.178 			"/>
			<polygon clip-path="url(#SVGID_8_)" fill="#EF3D49" points="63.613,123.934 56.942,123.934 60.277,118.178 			"/>
			<polygon clip-path="url(#SVGID_8_)" fill="#EF3D49" points="50.271,123.934 43.6,123.934 46.935,118.178 			"/>
			<polygon clip-path="url(#SVGID_8_)" fill="#EF3D49" points="36.928,123.934 30.256,123.934 33.592,118.178 			"/>
			<polygon clip-path="url(#SVGID_8_)" fill="#EF3D49" points="23.787,123.934 17.115,123.934 20.451,118.178 			"/>
			<polygon clip-path="url(#SVGID_8_)" fill="#EF3D49" points="10.443,123.934 3.772,123.934 7.108,118.178 			"/>
			<polygon clip-path="url(#SVGID_8_)" fill="#EF3D49" points="103.44,112.422 96.769,112.422 100.104,106.666 			"/>
			<polygon clip-path="url(#SVGID_8_)" fill="#EF3D49" points="90.098,112.422 83.426,112.422 86.762,106.666 			"/>
			<polygon clip-path="url(#SVGID_8_)" fill="#EF3D49" points="76.956,112.422 70.285,112.422 73.621,106.666 			"/>
			<polygon clip-path="url(#SVGID_8_)" fill="#EF3D49" points="63.613,112.422 56.942,112.422 60.277,106.666 			"/>
			<polygon clip-path="url(#SVGID_8_)" fill="#EF3D49" points="50.271,112.422 43.6,112.422 46.935,106.666 			"/>
			<polygon clip-path="url(#SVGID_8_)" fill="#EF3D49" points="36.928,112.422 30.256,112.422 33.592,106.666 			"/>
			<polygon clip-path="url(#SVGID_8_)" fill="#EF3D49" points="23.787,112.422 17.115,112.422 20.451,106.666 			"/>
			<polygon clip-path="url(#SVGID_8_)" fill="#EF3D49" points="10.443,112.422 3.772,112.422 7.108,106.666 			"/>
			<polygon clip-path="url(#SVGID_8_)" fill="#EF3D49" points="103.44,100.91 96.769,100.91 100.104,95.154 			"/>
			<polygon clip-path="url(#SVGID_8_)" fill="#EF3D49" points="90.098,100.91 83.426,100.91 86.762,95.154 			"/>
			<polygon clip-path="url(#SVGID_8_)" fill="#EF3D49" points="76.956,100.91 70.285,100.91 73.621,95.154 			"/>
			<polygon clip-path="url(#SVGID_8_)" fill="#EF3D49" points="63.613,100.91 56.942,100.91 60.277,95.154 			"/>
			<polygon clip-path="url(#SVGID_8_)" fill="#EF3D49" points="50.271,100.91 43.6,100.91 46.935,95.154 			"/>
			<polygon clip-path="url(#SVGID_8_)" fill="#EF3D49" points="36.928,100.91 30.256,100.91 33.592,95.154 			"/>
			<polygon clip-path="url(#SVGID_8_)" fill="#EF3D49" points="23.787,100.91 17.115,100.91 20.451,95.154 			"/>
			<polygon clip-path="url(#SVGID_8_)" fill="#EF3D49" points="10.443,100.91 3.772,100.91 7.108,95.154 			"/>
			<polygon clip-path="url(#SVGID_8_)" fill="#EF3D49" points="103.44,89.398 96.769,89.398 100.104,83.643 			"/>
			<polygon clip-path="url(#SVGID_8_)" fill="#EF3D49" points="90.098,89.398 83.426,89.398 86.762,83.643 			"/>
			<polygon clip-path="url(#SVGID_8_)" fill="#EF3D49" points="76.956,89.398 70.285,89.398 73.62,83.643 			"/>
			<polygon clip-path="url(#SVGID_8_)" fill="#EF3D49" points="63.613,89.398 56.942,89.398 60.277,83.643 			"/>
			<polygon clip-path="url(#SVGID_8_)" fill="#EF3D49" points="50.271,89.398 43.6,89.398 46.935,83.643 			"/>
			<polygon clip-path="url(#SVGID_8_)" fill="#EF3D49" points="36.928,89.398 30.256,89.398 33.592,83.643 			"/>
			<polygon clip-path="url(#SVGID_8_)" fill="#EF3D49" points="23.787,89.398 17.115,89.398 20.451,83.643 			"/>
			<polygon clip-path="url(#SVGID_8_)" fill="#EF3D49" points="10.443,89.398 3.772,89.398 7.108,83.643 			"/>
			<polygon clip-path="url(#SVGID_8_)" fill="#EF3D49" points="103.44,77.886 96.769,77.886 100.104,72.13 			"/>
			<polygon clip-path="url(#SVGID_8_)" fill="#EF3D49" points="90.098,77.886 83.426,77.886 86.762,72.13 			"/>
			<polygon clip-path="url(#SVGID_8_)" fill="#EF3D49" points="76.956,77.886 70.285,77.886 73.621,72.13 			"/>
			<polygon clip-path="url(#SVGID_8_)" fill="#EF3D49" points="63.613,77.886 56.942,77.886 60.277,72.13 			"/>
			<polygon clip-path="url(#SVGID_8_)" fill="#EF3D49" points="50.271,77.886 43.6,77.886 46.935,72.13 			"/>
			<polygon clip-path="url(#SVGID_8_)" fill="#EF3D49" points="36.928,77.886 30.256,77.886 33.592,72.13 			"/>
			<polygon clip-path="url(#SVGID_8_)" fill="#EF3D49" points="23.787,77.886 17.115,77.886 20.451,72.13 			"/>
			<polygon clip-path="url(#SVGID_8_)" fill="#EF3D49" points="10.443,77.886 3.772,77.886 7.108,72.13 			"/>
			<polygon clip-path="url(#SVGID_8_)" fill="#EF3D49" points="103.44,66.374 96.769,66.374 100.104,60.618 			"/>
			<polygon clip-path="url(#SVGID_8_)" fill="#EF3D49" points="90.098,66.374 83.426,66.374 86.762,60.618 			"/>
			<polygon clip-path="url(#SVGID_8_)" fill="#EF3D49" points="76.956,66.374 70.285,66.374 73.621,60.618 			"/>
			<polygon clip-path="url(#SVGID_8_)" fill="#EF3D49" points="63.613,66.374 56.942,66.374 60.277,60.618 			"/>
			<polygon clip-path="url(#SVGID_8_)" fill="#EF3D49" points="50.271,66.374 43.6,66.374 46.935,60.618 			"/>
			<polygon clip-path="url(#SVGID_8_)" fill="#EF3D49" points="36.928,66.374 30.256,66.374 33.592,60.618 			"/>
			<polygon clip-path="url(#SVGID_8_)" fill="#EF3D49" points="23.787,66.374 17.115,66.374 20.451,60.618 			"/>
			<polygon clip-path="url(#SVGID_8_)" fill="#EF3D49" points="10.443,66.374 3.772,66.374 7.108,60.618 			"/>
			<polygon clip-path="url(#SVGID_8_)" fill="#EF3D49" points="103.44,54.862 96.769,54.862 100.104,49.106 			"/>
			<polygon clip-path="url(#SVGID_8_)" fill="#EF3D49" points="90.098,54.862 83.426,54.862 86.762,49.106 			"/>
			<polygon clip-path="url(#SVGID_8_)" fill="#EF3D49" points="76.956,54.862 70.285,54.862 73.621,49.106 			"/>
			<polygon clip-path="url(#SVGID_8_)" fill="#EF3D49" points="63.613,54.862 56.942,54.862 60.277,49.106 			"/>
			<polygon clip-path="url(#SVGID_8_)" fill="#EF3D49" points="50.271,54.862 43.6,54.862 46.935,49.106 			"/>
			<polygon clip-path="url(#SVGID_8_)" fill="#EF3D49" points="36.928,54.862 30.256,54.862 33.592,49.106 			"/>
			<polygon clip-path="url(#SVGID_8_)" fill="#EF3D49" points="23.787,54.862 17.115,54.862 20.451,49.106 			"/>
			<polygon clip-path="url(#SVGID_8_)" fill="#EF3D49" points="10.443,54.862 3.772,54.862 7.108,49.106 			"/>
			<polygon clip-path="url(#SVGID_8_)" fill="#EF3D49" points="103.44,43.35 96.769,43.35 100.104,37.594 			"/>
			<polygon clip-path="url(#SVGID_8_)" fill="#EF3D49" points="90.098,43.35 83.426,43.35 86.762,37.594 			"/>
			<polygon clip-path="url(#SVGID_8_)" fill="#EF3D49" points="76.956,43.35 70.285,43.35 73.621,37.594 			"/>
			<polygon clip-path="url(#SVGID_8_)" fill="#EF3D49" points="63.613,43.35 56.942,43.35 60.277,37.594 			"/>
			<polygon clip-path="url(#SVGID_8_)" fill="#EF3D49" points="50.271,43.35 43.6,43.35 46.935,37.594 			"/>
			<polygon clip-path="url(#SVGID_8_)" fill="#EF3D49" points="36.928,43.35 30.256,43.35 33.592,37.594 			"/>
			<polygon clip-path="url(#SVGID_8_)" fill="#EF3D49" points="23.787,43.35 17.115,43.35 20.451,37.594 			"/>
			<polygon clip-path="url(#SVGID_8_)" fill="#EF3D49" points="10.443,43.35 3.772,43.35 7.108,37.594 			"/>
			<polygon clip-path="url(#SVGID_8_)" fill="#EF3D49" points="103.44,31.838 96.769,31.838 100.104,26.083 			"/>
			<polygon clip-path="url(#SVGID_8_)" fill="#EF3D49" points="90.098,31.838 83.426,31.838 86.762,26.083 			"/>
			<polygon clip-path="url(#SVGID_8_)" fill="#EF3D49" points="76.956,31.838 70.285,31.838 73.621,26.083 			"/>
			<polygon clip-path="url(#SVGID_8_)" fill="#EF3D49" points="63.613,31.838 56.942,31.838 60.277,26.083 			"/>
			<polygon clip-path="url(#SVGID_8_)" fill="#EF3D49" points="50.271,31.838 43.6,31.838 46.935,26.083 			"/>
			<polygon clip-path="url(#SVGID_8_)" fill="#EF3D49" points="36.928,31.838 30.256,31.838 33.592,26.083 			"/>
			<polygon clip-path="url(#SVGID_8_)" fill="#EF3D49" points="23.787,31.838 17.115,31.838 20.451,26.083 			"/>
			<polygon clip-path="url(#SVGID_8_)" fill="#EF3D49" points="10.443,31.838 3.772,31.838 7.108,26.083 			"/>
		</g>
	</g>
	<g>
		<defs>
			<polygon id="SVGID_9_" points="306.667,381.262 321.518,355.538 306.667,329.814 276.963,329.814 262.112,355.538 
				276.963,381.262 			"/>
		</defs>
		<clipPath id="SVGID_10_">
			<use xlink:href="#SVGID_9_"  overflow="visible"/>
		</clipPath>
		<polygon clip-path="url(#SVGID_10_)" fill="#FEDBBA" points="303.292,381.262 298.701,381.262 300.997,377.301 		"/>
		<polygon clip-path="url(#SVGID_10_)" fill="#FEDBBA" points="294.11,381.262 289.52,381.262 291.815,377.301 		"/>
		<polygon clip-path="url(#SVGID_10_)" fill="#FEDBBA" points="284.929,381.262 280.339,381.262 282.634,377.301 		"/>
		<polygon clip-path="url(#SVGID_10_)" fill="#FEDBBA" points="312.334,373.341 307.744,373.341 310.039,369.38 		"/>
		<polygon clip-path="url(#SVGID_10_)" fill="#FEDBBA" points="303.292,373.341 298.701,373.341 300.997,369.38 		"/>
		<polygon clip-path="url(#SVGID_10_)" fill="#FEDBBA" points="294.11,373.341 289.52,373.341 291.815,369.38 		"/>
		<polygon clip-path="url(#SVGID_10_)" fill="#FEDBBA" points="284.929,373.341 280.339,373.341 282.634,369.38 		"/>
		<polygon clip-path="url(#SVGID_10_)" fill="#FEDBBA" points="275.748,373.341 271.157,373.341 273.453,369.38 		"/>
		<polygon clip-path="url(#SVGID_10_)" fill="#FEDBBA" points="321.515,365.419 316.925,365.419 319.22,361.459 		"/>
		<polygon clip-path="url(#SVGID_10_)" fill="#FEDBBA" points="312.334,365.419 307.744,365.419 310.039,361.459 		"/>
		<polygon clip-path="url(#SVGID_10_)" fill="#FEDBBA" points="303.292,365.419 298.701,365.419 300.997,361.459 		"/>
		<polygon clip-path="url(#SVGID_10_)" fill="#FEDBBA" points="294.11,365.419 289.52,365.419 291.815,361.459 		"/>
		<polygon clip-path="url(#SVGID_10_)" fill="#FEDBBA" points="284.929,365.419 280.339,365.419 282.634,361.459 		"/>
		<polygon clip-path="url(#SVGID_10_)" fill="#FEDBBA" points="275.748,365.419 271.157,365.419 273.453,361.459 		"/>
		<polygon clip-path="url(#SVGID_10_)" fill="#FEDBBA" points="266.706,365.419 262.115,365.419 264.411,361.459 		"/>
		<polygon clip-path="url(#SVGID_10_)" fill="#FEDBBA" points="321.515,357.498 316.925,357.498 319.22,353.537 		"/>
		<polygon clip-path="url(#SVGID_10_)" fill="#FEDBBA" points="312.334,357.498 307.744,357.498 310.039,353.537 		"/>
		<polygon clip-path="url(#SVGID_10_)" fill="#FEDBBA" points="303.292,357.498 298.701,357.498 300.997,353.537 		"/>
		<polygon clip-path="url(#SVGID_10_)" fill="#FEDBBA" points="294.11,357.498 289.52,357.498 291.815,353.537 		"/>
		<polygon clip-path="url(#SVGID_10_)" fill="#FEDBBA" points="284.929,357.498 280.339,357.498 282.634,353.537 		"/>
		<polygon clip-path="url(#SVGID_10_)" fill="#FEDBBA" points="275.748,357.498 271.157,357.498 273.453,353.537 		"/>
		<polygon clip-path="url(#SVGID_10_)" fill="#FEDBBA" points="266.706,357.498 262.115,357.498 264.411,353.537 		"/>
		<polygon clip-path="url(#SVGID_10_)" fill="#FEDBBA" points="321.515,349.577 316.925,349.577 319.22,345.616 		"/>
		<polygon clip-path="url(#SVGID_10_)" fill="#FEDBBA" points="312.334,349.577 307.744,349.577 310.039,345.616 		"/>
		<polygon clip-path="url(#SVGID_10_)" fill="#FEDBBA" points="303.292,349.577 298.701,349.577 300.997,345.616 		"/>
		<polygon clip-path="url(#SVGID_10_)" fill="#FEDBBA" points="294.11,349.577 289.52,349.577 291.815,345.616 		"/>
		<polygon clip-path="url(#SVGID_10_)" fill="#FEDBBA" points="284.929,349.577 280.339,349.577 282.634,345.616 		"/>
		<polygon clip-path="url(#SVGID_10_)" fill="#FEDBBA" points="275.748,349.577 271.157,349.577 273.453,345.616 		"/>
		<polygon clip-path="url(#SVGID_10_)" fill="#FEDBBA" points="266.706,349.577 262.115,349.577 264.411,345.616 		"/>
		<polygon clip-path="url(#SVGID_10_)" fill="#FEDBBA" points="312.334,341.655 307.744,341.655 310.039,337.694 		"/>
		<polygon clip-path="url(#SVGID_10_)" fill="#FEDBBA" points="303.292,341.655 298.701,341.655 300.997,337.694 		"/>
		<polygon clip-path="url(#SVGID_10_)" fill="#FEDBBA" points="294.11,341.655 289.52,341.655 291.815,337.694 		"/>
		<polygon clip-path="url(#SVGID_10_)" fill="#FEDBBA" points="284.929,341.655 280.339,341.655 282.634,337.694 		"/>
		<polygon clip-path="url(#SVGID_10_)" fill="#FEDBBA" points="275.748,341.655 271.157,341.655 273.453,337.694 		"/>
		<polygon clip-path="url(#SVGID_10_)" fill="#FEDBBA" points="312.334,333.734 307.744,333.734 310.039,329.773 		"/>
		<polygon clip-path="url(#SVGID_10_)" fill="#FEDBBA" points="303.292,333.734 298.701,333.734 300.997,329.773 		"/>
		<polygon clip-path="url(#SVGID_10_)" fill="#FEDBBA" points="294.11,333.734 289.52,333.734 291.815,329.773 		"/>
		<polygon clip-path="url(#SVGID_10_)" fill="#FEDBBA" points="284.929,333.734 280.339,333.734 282.634,329.773 		"/>
		<polygon clip-path="url(#SVGID_10_)" fill="#FEDBBA" points="275.748,333.734 271.157,333.734 273.453,329.773 		"/>
	</g>
	<g>
		<g>
			<defs>
				<polygon id="SVGID_11_" points="173.54,411.979 197.27,370.876 173.54,329.774 126.08,329.774 102.35,370.876 126.08,411.979 
									"/>
			</defs>
			<clipPath id="SVGID_12_">
				<use xlink:href="#SVGID_11_"  overflow="visible"/>
			</clipPath>
			<polygon clip-path="url(#SVGID_12_)" fill="#00BBBC" points="166.117,411.979 155.417,411.979 160.767,402.747 			"/>
			<polygon clip-path="url(#SVGID_12_)" fill="#00BBBC" points="144.717,411.979 134.018,411.979 139.367,402.747 			"/>
			<polygon clip-path="url(#SVGID_12_)" fill="#00BBBC" points="187.516,393.516 176.816,393.516 182.167,384.284 			"/>
			<polygon clip-path="url(#SVGID_12_)" fill="#00BBBC" points="166.117,393.516 155.417,393.516 160.767,384.284 			"/>
			<polygon clip-path="url(#SVGID_12_)" fill="#00BBBC" points="144.717,393.516 134.018,393.516 139.367,384.284 			"/>
			<polygon clip-path="url(#SVGID_12_)" fill="#00BBBC" points="123.317,393.516 112.618,393.516 117.968,384.284 			"/>
			<polygon clip-path="url(#SVGID_12_)" fill="#00BBBC" points="187.516,375.052 176.816,375.052 182.167,365.821 			"/>
			<polygon clip-path="url(#SVGID_12_)" fill="#00BBBC" points="166.117,375.052 155.417,375.052 160.767,365.821 			"/>
			<polygon clip-path="url(#SVGID_12_)" fill="#00BBBC" points="144.717,375.052 134.018,375.052 139.367,365.821 			"/>
			<polygon clip-path="url(#SVGID_12_)" fill="#00BBBC" points="123.317,375.052 112.618,375.052 117.968,365.821 			"/>
			<polygon clip-path="url(#SVGID_12_)" fill="#00BBBC" points="187.516,356.589 176.816,356.589 182.167,347.357 			"/>
			<polygon clip-path="url(#SVGID_12_)" fill="#00BBBC" points="166.117,356.589 155.417,356.589 160.767,347.357 			"/>
			<polygon clip-path="url(#SVGID_12_)" fill="#00BBBC" points="144.717,356.589 134.018,356.589 139.367,347.357 			"/>
			<polygon clip-path="url(#SVGID_12_)" fill="#00BBBC" points="123.317,356.589 112.618,356.589 117.968,347.357 			"/>
			<polygon clip-path="url(#SVGID_12_)" fill="#00BBBC" points="187.516,338.126 176.816,338.126 182.167,328.895 			"/>
			<polygon clip-path="url(#SVGID_12_)" fill="#00BBBC" points="166.117,338.126 155.417,338.126 160.767,328.895 			"/>
			<polygon clip-path="url(#SVGID_12_)" fill="#00BBBC" points="144.717,338.126 134.018,338.126 139.367,328.895 			"/>
			<polygon clip-path="url(#SVGID_12_)" fill="#00BBBC" points="123.317,338.126 112.618,338.126 117.968,328.895 			"/>
		</g>
	</g>
	<g>
		<defs>
			<polygon id="SVGID_13_" points="274.567,121.289 303.997,70.316 274.567,19.344 215.709,19.344 186.28,70.316 215.709,121.289 
							"/>
		</defs>
		<clipPath id="SVGID_14_">
			<use xlink:href="#SVGID_13_"  overflow="visible"/>
		</clipPath>
		<polygon clip-path="url(#SVGID_14_)" fill="#DCDCE1" points="267.879,121.289 258.783,121.289 263.332,113.441 		"/>
		<polygon clip-path="url(#SVGID_14_)" fill="#DCDCE1" points="249.686,121.289 240.59,121.289 245.139,113.441 		"/>
		<polygon clip-path="url(#SVGID_14_)" fill="#DCDCE1" points="231.494,121.289 222.397,121.289 226.945,113.441 		"/>
		<polygon clip-path="url(#SVGID_14_)" fill="#DCDCE1" points="285.797,105.593 276.701,105.593 281.249,97.745 		"/>
		<polygon clip-path="url(#SVGID_14_)" fill="#DCDCE1" points="267.879,105.593 258.783,105.593 263.332,97.745 		"/>
		<polygon clip-path="url(#SVGID_14_)" fill="#DCDCE1" points="249.686,105.593 240.59,105.593 245.139,97.745 		"/>
		<polygon clip-path="url(#SVGID_14_)" fill="#DCDCE1" points="231.494,105.593 222.397,105.593 226.945,97.745 		"/>
		<polygon clip-path="url(#SVGID_14_)" fill="#DCDCE1" points="213.301,105.593 204.204,105.593 208.752,97.745 		"/>
		<polygon clip-path="url(#SVGID_14_)" fill="#DCDCE1" points="303.99,89.896 294.894,89.896 299.442,82.048 		"/>
		<polygon clip-path="url(#SVGID_14_)" fill="#DCDCE1" points="285.797,89.896 276.701,89.896 281.249,82.048 		"/>
		<polygon clip-path="url(#SVGID_14_)" fill="#DCDCE1" points="267.879,89.896 258.783,89.896 263.332,82.048 		"/>
		<polygon clip-path="url(#SVGID_14_)" fill="#DCDCE1" points="249.686,89.896 240.59,89.896 245.139,82.048 		"/>
		<polygon clip-path="url(#SVGID_14_)" fill="#DCDCE1" points="231.494,89.896 222.397,89.896 226.945,82.048 		"/>
		<polygon clip-path="url(#SVGID_14_)" fill="#DCDCE1" points="213.301,89.896 204.204,89.896 208.752,82.048 		"/>
		<polygon clip-path="url(#SVGID_14_)" fill="#DCDCE1" points="195.383,89.896 186.287,89.896 190.835,82.048 		"/>
		<polygon clip-path="url(#SVGID_14_)" fill="#DCDCE1" points="303.99,74.2 294.894,74.2 299.442,66.352 		"/>
		<polygon clip-path="url(#SVGID_14_)" fill="#DCDCE1" points="285.797,74.2 276.701,74.2 281.249,66.352 		"/>
		<polygon clip-path="url(#SVGID_14_)" fill="#DCDCE1" points="267.879,74.2 258.783,74.2 263.332,66.352 		"/>
		<polygon clip-path="url(#SVGID_14_)" fill="#DCDCE1" points="249.686,76.86 240.59,76.86 245.139,66.877 		"/>
		<polygon clip-path="url(#SVGID_14_)" fill="#DCDCE1" points="231.494,74.2 222.397,74.2 226.945,66.352 		"/>
		<polygon clip-path="url(#SVGID_14_)" fill="#DCDCE1" points="213.301,74.2 204.204,74.2 208.752,66.352 		"/>
		<polygon clip-path="url(#SVGID_14_)" fill="#DCDCE1" points="195.383,74.2 186.287,74.2 190.835,66.352 		"/>
		<polygon clip-path="url(#SVGID_14_)" fill="#DCDCE1" points="303.99,58.503 294.894,58.503 299.442,50.655 		"/>
		<polygon clip-path="url(#SVGID_14_)" fill="#DCDCE1" points="285.797,58.503 276.701,58.503 281.249,50.655 		"/>
		<polygon clip-path="url(#SVGID_14_)" fill="#DCDCE1" points="267.879,58.503 258.783,58.503 263.332,50.655 		"/>
		<polygon clip-path="url(#SVGID_14_)" fill="#DCDCE1" points="249.686,58.503 240.59,58.503 245.139,50.655 		"/>
		<polygon clip-path="url(#SVGID_14_)" fill="#DCDCE1" points="231.494,58.503 222.397,58.503 226.945,50.655 		"/>
		<polygon clip-path="url(#SVGID_14_)" fill="#DCDCE1" points="213.301,58.503 204.204,58.503 208.752,50.655 		"/>
		<polygon clip-path="url(#SVGID_14_)" fill="#DCDCE1" points="195.383,58.503 186.287,58.503 190.835,50.655 		"/>
		<polygon clip-path="url(#SVGID_14_)" fill="#DCDCE1" points="285.797,42.807 276.701,42.807 281.249,34.958 		"/>
		<polygon clip-path="url(#SVGID_14_)" fill="#DCDCE1" points="267.879,42.807 258.783,42.807 263.332,34.958 		"/>
		<polygon clip-path="url(#SVGID_14_)" fill="#DCDCE1" points="249.686,42.807 240.59,42.807 245.139,34.958 		"/>
		<polygon clip-path="url(#SVGID_14_)" fill="#DCDCE1" points="231.494,42.807 222.397,42.807 226.945,34.958 		"/>
		<polygon clip-path="url(#SVGID_14_)" fill="#DCDCE1" points="213.301,42.807 204.204,42.807 208.752,34.958 		"/>
		<polygon clip-path="url(#SVGID_14_)" fill="#DCDCE1" points="285.797,27.11 276.701,27.11 281.249,19.262 		"/>
		<polygon clip-path="url(#SVGID_14_)" fill="#DCDCE1" points="267.879,27.11 258.783,27.11 263.332,19.262 		"/>
		<polygon clip-path="url(#SVGID_14_)" fill="#DCDCE1" points="249.686,27.11 240.59,27.11 245.139,19.262 		"/>
		<polygon clip-path="url(#SVGID_14_)" fill="#DCDCE1" points="231.494,27.11 222.397,27.11 226.945,19.262 		"/>
		<polygon clip-path="url(#SVGID_14_)" fill="#DCDCE1" points="213.301,27.11 204.204,27.11 208.752,19.262 		"/>
	</g>
	<polygon fill="#00BBBC" points="231.678,147.031 246.622,121.148 231.678,95.266 201.792,95.266 186.848,121.148 201.792,147.031 	
		"/>
	<polygon fill="#F2A36F" points="126.979,225.438 157.085,173.293 126.979,121.148 66.767,121.148 36.661,173.293 66.767,225.438 	
		"/>
	<polygon fill="#00BBBC" points="111.691,121.148 104.052,134.382 111.691,147.615 126.972,147.615 134.612,134.382 
		126.972,121.148 	"/>
	<g>
		<g>
			<defs>
				<polygon id="SVGID_15_" points="276.753,277.548 306.885,225.358 276.753,173.169 216.49,173.169 186.358,225.358 
					216.49,277.548 				"/>
			</defs>
			<clipPath id="SVGID_16_">
				<use xlink:href="#SVGID_15_"  overflow="visible"/>
			</clipPath>
			
				<line clip-path="url(#SVGID_16_)" fill="#022169" stroke="#022169" stroke-width="4" stroke-miterlimit="10" x1="472.711" y1="208.734" x2="131.051" y2="208.734"/>
			
				<line clip-path="url(#SVGID_16_)" fill="#022169" stroke="#022169" stroke-width="4" stroke-miterlimit="10" x1="472.711" y1="225.431" x2="131.051" y2="225.431"/>
			
				<line clip-path="url(#SVGID_16_)" fill="#022169" stroke="#022169" stroke-width="4" stroke-miterlimit="10" x1="472.711" y1="242.128" x2="131.051" y2="242.128"/>
			
				<line clip-path="url(#SVGID_16_)" fill="#022169" stroke="#022169" stroke-width="4" stroke-miterlimit="10" x1="472.711" y1="258.824" x2="131.051" y2="258.824"/>
			
				<line clip-path="url(#SVGID_16_)" fill="#022169" stroke="#022169" stroke-width="4" stroke-miterlimit="10" x1="472.711" y1="276.253" x2="131.051" y2="276.253"/>
			
				<line clip-path="url(#SVGID_16_)" fill="#022169" stroke="#022169" stroke-width="4" stroke-miterlimit="10" x1="474.989" y1="174.608" x2="133.329" y2="174.608"/>
			
				<line clip-path="url(#SVGID_16_)" fill="#022169" stroke="#022169" stroke-width="4" stroke-miterlimit="10" x1="474.989" y1="192.038" x2="133.329" y2="192.038"/>
		</g>
	</g>
	<g>
		<g>
			<defs>
				<polygon id="SVGID_17_" points="84.098,249.108 99.073,223.171 84.098,197.233 54.148,197.233 39.173,223.171 54.148,249.108 
									"/>
			</defs>
			<clipPath id="SVGID_18_">
				<use xlink:href="#SVGID_17_"  overflow="visible"/>
			</clipPath>
			<rect x="85.615" y="197.167" clip-path="url(#SVGID_18_)" fill="#00BBBC" width="4.712" height="4.712"/>
			<rect x="76.191" y="197.167" clip-path="url(#SVGID_18_)" fill="#00BBBC" width="4.712" height="4.712"/>
			<rect x="85.615" y="206.591" clip-path="url(#SVGID_18_)" fill="#00BBBC" width="4.712" height="4.712"/>
			<rect x="76.191" y="206.591" clip-path="url(#SVGID_18_)" fill="#00BBBC" width="4.712" height="4.712"/>
			<rect x="66.767" y="197.167" clip-path="url(#SVGID_18_)" fill="#00BBBC" width="4.713" height="4.712"/>
			<rect x="57.343" y="197.167" clip-path="url(#SVGID_18_)" fill="#00BBBC" width="4.712" height="4.712"/>
			<rect x="47.919" y="197.167" clip-path="url(#SVGID_18_)" fill="#00BBBC" width="4.712" height="4.712"/>
			<rect x="66.767" y="206.591" clip-path="url(#SVGID_18_)" fill="#00BBBC" width="4.713" height="4.712"/>
			<rect x="57.343" y="206.591" clip-path="url(#SVGID_18_)" fill="#00BBBC" width="4.712" height="4.712"/>
			<rect x="47.919" y="206.591" clip-path="url(#SVGID_18_)" fill="#00BBBC" width="4.712" height="4.712"/>
			<rect x="85.615" y="234.862" clip-path="url(#SVGID_18_)" fill="#00BBBC" width="4.712" height="4.712"/>
			<rect x="76.191" y="234.862" clip-path="url(#SVGID_18_)" fill="#00BBBC" width="4.712" height="4.712"/>
			<rect x="85.615" y="244.287" clip-path="url(#SVGID_18_)" fill="#00BBBC" width="4.712" height="4.712"/>
			<rect x="76.191" y="244.287" clip-path="url(#SVGID_18_)" fill="#00BBBC" width="4.712" height="4.712"/>
			<rect x="95.039" y="216.015" clip-path="url(#SVGID_18_)" fill="#00BBBC" width="4.712" height="4.712"/>
			<rect x="85.615" y="216.015" clip-path="url(#SVGID_18_)" fill="#00BBBC" width="4.712" height="4.712"/>
			<rect x="76.191" y="216.015" clip-path="url(#SVGID_18_)" fill="#00BBBC" width="4.712" height="4.712"/>
			<rect x="95.039" y="225.438" clip-path="url(#SVGID_18_)" fill="#00BBBC" width="4.712" height="4.712"/>
			<rect x="85.615" y="225.438" clip-path="url(#SVGID_18_)" fill="#00BBBC" width="4.712" height="4.712"/>
			<rect x="76.191" y="225.438" clip-path="url(#SVGID_18_)" fill="#00BBBC" width="4.712" height="4.712"/>
			<rect x="66.767" y="234.862" clip-path="url(#SVGID_18_)" fill="#00BBBC" width="4.713" height="4.712"/>
			<rect x="57.343" y="234.862" clip-path="url(#SVGID_18_)" fill="#00BBBC" width="4.712" height="4.712"/>
			<rect x="47.919" y="234.862" clip-path="url(#SVGID_18_)" fill="#00BBBC" width="4.712" height="4.712"/>
			<rect x="66.767" y="244.287" clip-path="url(#SVGID_18_)" fill="#00BBBC" width="4.713" height="4.712"/>
			<rect x="57.343" y="244.287" clip-path="url(#SVGID_18_)" fill="#00BBBC" width="4.712" height="4.712"/>
			<rect x="47.919" y="244.287" clip-path="url(#SVGID_18_)" fill="#00BBBC" width="4.712" height="4.712"/>
			<rect x="66.767" y="216.015" clip-path="url(#SVGID_18_)" fill="#00BBBC" width="4.713" height="4.712"/>
			<rect x="57.343" y="216.015" clip-path="url(#SVGID_18_)" fill="#00BBBC" width="4.712" height="4.712"/>
			<rect x="47.919" y="216.015" clip-path="url(#SVGID_18_)" fill="#00BBBC" width="4.712" height="4.712"/>
			<rect x="38.495" y="216.015" clip-path="url(#SVGID_18_)" fill="#00BBBC" width="4.712" height="4.712"/>
			<rect x="66.767" y="225.438" clip-path="url(#SVGID_18_)" fill="#00BBBC" width="4.713" height="4.712"/>
			<rect x="57.343" y="225.438" clip-path="url(#SVGID_18_)" fill="#00BBBC" width="4.712" height="4.712"/>
			<rect x="47.919" y="225.438" clip-path="url(#SVGID_18_)" fill="#00BBBC" width="4.712" height="4.712"/>
			<rect x="38.495" y="225.438" clip-path="url(#SVGID_18_)" fill="#00BBBC" width="4.712" height="4.712"/>
		</g>
	</g>
	<polygon fill="#003F5B" points="231.683,304.342 277.085,225.702 231.683,147.061 140.877,147.061 95.475,225.702 140.877,304.342 
			"/>
	<polygon fill="#00BBBC" points="50.656,197.534 36.661,173.293 50.656,149.053 64.652,173.293 	"/>
	<line fill="none" stroke="#F36C42" stroke-width="2" stroke-miterlimit="10" x1="166.726" y1="84.447" x2="144.613" y2="46.629"/>
	
		<line fill="none" stroke="#F36C42" stroke-width="2" stroke-miterlimit="10" x1="181.433" y1="160.723" x2="161.784" y2="127.119"/>
	
		<line fill="none" stroke="#F36C42" stroke-width="2" stroke-miterlimit="10" x1="181.433" y1="176.929" x2="150.424" y2="123.898"/>
</g>
</svg>
