<?xml version="1.0" encoding="utf-8"?>
<!-- Generator: Adobe Illustrator 17.0.0, SVG Export Plug-In . SVG Version: 6.00 Build 0)  -->
<!DOCTYPE svg PUBLIC "-//W3C//DTD SVG 1.1//EN" "http://www.w3.org/Graphics/SVG/1.1/DTD/svg11.dtd">
<svg version="1.1" id="Layer_1" xmlns="http://www.w3.org/2000/svg" xmlns:xlink="http://www.w3.org/1999/xlink" x="0px" y="0px"
	 width="366.991px" height="411.979px" viewBox="0 0 366.991 411.979" enable-background="new 0 0 366.991 411.979"
	 xml:space="preserve">
<g>
	<g>
		<g>
			<defs>
				<polygon id="SVGID_1_" points="258.102,342.75 240.922,312.994 258.102,283.239 292.46,283.239 309.639,312.994 292.46,342.75 
									"/>
			</defs>
			<clipPath id="SVGID_2_">
				<use xlink:href="#SVGID_1_"  overflow="visible"/>
			</clipPath>
			
				<line clip-path="url(#SVGID_2_)" fill="none" stroke="#00BBBC" stroke-width="2" stroke-miterlimit="10" x1="200.895" y1="319.629" x2="297.3" y2="150.221"/>
			
				<line clip-path="url(#SVGID_2_)" fill="none" stroke="#00BBBC" stroke-width="2" stroke-miterlimit="10" x1="209.173" y1="324.341" x2="305.579" y2="154.933"/>
			
				<line clip-path="url(#SVGID_2_)" fill="none" stroke="#00BBBC" stroke-width="2" stroke-miterlimit="10" x1="217.452" y1="329.052" x2="313.858" y2="159.644"/>
			
				<line clip-path="url(#SVGID_2_)" fill="none" stroke="#00BBBC" stroke-width="2" stroke-miterlimit="10" x1="225.73" y1="333.763" x2="322.136" y2="164.355"/>
			
				<line clip-path="url(#SVGID_2_)" fill="none" stroke="#00BBBC" stroke-width="2" stroke-miterlimit="10" x1="234.009" y1="338.474" x2="330.415" y2="169.066"/>
			
				<line clip-path="url(#SVGID_2_)" fill="none" stroke="#00BBBC" stroke-width="2" stroke-miterlimit="10" x1="167.137" y1="301.914" x2="263.543" y2="132.506"/>
			
				<line clip-path="url(#SVGID_2_)" fill="none" stroke="#00BBBC" stroke-width="2" stroke-miterlimit="10" x1="175.415" y1="306.625" x2="271.821" y2="137.217"/>
			
				<line clip-path="url(#SVGID_2_)" fill="none" stroke="#00BBBC" stroke-width="2" stroke-miterlimit="10" x1="183.694" y1="311.336" x2="280.1" y2="141.928"/>
			
				<line clip-path="url(#SVGID_2_)" fill="none" stroke="#00BBBC" stroke-width="2" stroke-miterlimit="10" x1="191.973" y1="316.047" x2="288.378" y2="146.64"/>
			
				<line clip-path="url(#SVGID_2_)" fill="none" stroke="#00BBBC" stroke-width="2" stroke-miterlimit="10" x1="197.23" y1="316.797" x2="293.636" y2="147.389"/>
			
				<line clip-path="url(#SVGID_2_)" fill="none" stroke="#00BBBC" stroke-width="2" stroke-miterlimit="10" x1="205.509" y1="321.508" x2="301.914" y2="152.1"/>
			
				<line clip-path="url(#SVGID_2_)" fill="none" stroke="#00BBBC" stroke-width="2" stroke-miterlimit="10" x1="213.788" y1="326.219" x2="310.194" y2="156.811"/>
			
				<line clip-path="url(#SVGID_2_)" fill="none" stroke="#00BBBC" stroke-width="2" stroke-miterlimit="10" x1="222.067" y1="330.93" x2="318.472" y2="161.522"/>
			
				<line clip-path="url(#SVGID_2_)" fill="none" stroke="#00BBBC" stroke-width="2" stroke-miterlimit="10" x1="230.345" y1="335.642" x2="326.751" y2="166.233"/>
			
				<line clip-path="url(#SVGID_2_)" fill="none" stroke="#00BBBC" stroke-width="2" stroke-miterlimit="10" x1="163.473" y1="299.081" x2="259.878" y2="129.673"/>
			
				<line clip-path="url(#SVGID_2_)" fill="none" stroke="#00BBBC" stroke-width="2" stroke-miterlimit="10" x1="171.751" y1="303.792" x2="268.158" y2="134.385"/>
			
				<line clip-path="url(#SVGID_2_)" fill="none" stroke="#00BBBC" stroke-width="2" stroke-miterlimit="10" x1="180.03" y1="308.504" x2="276.436" y2="139.096"/>
			
				<line clip-path="url(#SVGID_2_)" fill="none" stroke="#00BBBC" stroke-width="2" stroke-miterlimit="10" x1="188.309" y1="313.215" x2="284.714" y2="143.807"/>
			
				<line clip-path="url(#SVGID_2_)" fill="none" stroke="#00BBBC" stroke-width="2" stroke-miterlimit="10" x1="271.592" y1="358.74" x2="367.998" y2="189.332"/>
			
				<line clip-path="url(#SVGID_2_)" fill="none" stroke="#00BBBC" stroke-width="2" stroke-miterlimit="10" x1="279.871" y1="363.451" x2="376.277" y2="194.043"/>
			
				<line clip-path="url(#SVGID_2_)" fill="none" stroke="#00BBBC" stroke-width="2" stroke-miterlimit="10" x1="288.149" y1="368.163" x2="384.555" y2="198.754"/>
			
				<line clip-path="url(#SVGID_2_)" fill="none" stroke="#00BBBC" stroke-width="2" stroke-miterlimit="10" x1="296.428" y1="372.874" x2="392.833" y2="203.466"/>
			
				<line clip-path="url(#SVGID_2_)" fill="none" stroke="#00BBBC" stroke-width="2" stroke-miterlimit="10" x1="304.707" y1="377.585" x2="401.113" y2="208.177"/>
			
				<line clip-path="url(#SVGID_2_)" fill="none" stroke="#00BBBC" stroke-width="2" stroke-miterlimit="10" x1="237.835" y1="341.024" x2="334.24" y2="171.617"/>
			
				<line clip-path="url(#SVGID_2_)" fill="none" stroke="#00BBBC" stroke-width="2" stroke-miterlimit="10" x1="246.113" y1="345.736" x2="342.519" y2="176.328"/>
			
				<line clip-path="url(#SVGID_2_)" fill="none" stroke="#00BBBC" stroke-width="2" stroke-miterlimit="10" x1="254.391" y1="350.447" x2="350.797" y2="181.039"/>
			
				<line clip-path="url(#SVGID_2_)" fill="none" stroke="#00BBBC" stroke-width="2" stroke-miterlimit="10" x1="262.67" y1="355.158" x2="359.077" y2="185.75"/>
			
				<line clip-path="url(#SVGID_2_)" fill="none" stroke="#00BBBC" stroke-width="2" stroke-miterlimit="10" x1="267.928" y1="355.907" x2="364.333" y2="186.499"/>
			
				<line clip-path="url(#SVGID_2_)" fill="none" stroke="#00BBBC" stroke-width="2" stroke-miterlimit="10" x1="276.207" y1="360.619" x2="372.613" y2="191.211"/>
			
				<line clip-path="url(#SVGID_2_)" fill="none" stroke="#00BBBC" stroke-width="2" stroke-miterlimit="10" x1="284.485" y1="365.33" x2="380.891" y2="195.922"/>
			
				<line clip-path="url(#SVGID_2_)" fill="none" stroke="#00BBBC" stroke-width="2" stroke-miterlimit="10" x1="292.764" y1="370.041" x2="389.169" y2="200.633"/>
			
				<line clip-path="url(#SVGID_2_)" fill="none" stroke="#00BBBC" stroke-width="2" stroke-miterlimit="10" x1="301.043" y1="374.752" x2="397.449" y2="205.344"/>
			
				<line clip-path="url(#SVGID_2_)" fill="none" stroke="#00BBBC" stroke-width="2" stroke-miterlimit="10" x1="242.449" y1="342.903" x2="338.855" y2="173.495"/>
			
				<line clip-path="url(#SVGID_2_)" fill="none" stroke="#00BBBC" stroke-width="2" stroke-miterlimit="10" x1="250.728" y1="347.614" x2="347.133" y2="178.206"/>
			
				<line clip-path="url(#SVGID_2_)" fill="none" stroke="#00BBBC" stroke-width="2" stroke-miterlimit="10" x1="259.006" y1="352.326" x2="355.413" y2="182.918"/>
		</g>
	</g>
	<polygon fill="#F26A57" points="240.922,119.989 180.376,224.859 240.922,329.729 301.469,224.859 	"/>
	<g>
		<g>
			<defs>
				<polygon id="SVGID_3_" points="26.453,329.272 2.827,288.352 26.453,247.431 73.705,247.431 97.33,288.352 73.705,329.272 				
					"/>
			</defs>
			<clipPath id="SVGID_4_">
				<use xlink:href="#SVGID_3_"  overflow="visible"/>
			</clipPath>
			
				<line clip-path="url(#SVGID_4_)" fill="none" stroke="#DCDCE1" stroke-width="2" stroke-miterlimit="10" x1="-54.221" y1="294.954" x2="83.533" y2="64.993"/>
			
				<line clip-path="url(#SVGID_4_)" fill="none" stroke="#DCDCE1" stroke-width="2" stroke-miterlimit="10" x1="-42.983" y1="301.685" x2="94.771" y2="71.725"/>
			
				<line clip-path="url(#SVGID_4_)" fill="none" stroke="#DCDCE1" stroke-width="2" stroke-miterlimit="10" x1="-31.746" y1="308.417" x2="106.008" y2="78.457"/>
			
				<line clip-path="url(#SVGID_4_)" fill="none" stroke="#DCDCE1" stroke-width="2" stroke-miterlimit="10" x1="-20.508" y1="315.149" x2="117.246" y2="85.189"/>
			
				<line clip-path="url(#SVGID_4_)" fill="none" stroke="#DCDCE1" stroke-width="2" stroke-miterlimit="10" x1="-9.27" y1="321.881" x2="128.484" y2="91.921"/>
			
				<line clip-path="url(#SVGID_4_)" fill="none" stroke="#DCDCE1" stroke-width="2" stroke-miterlimit="10" x1="-100.091" y1="269.56" x2="37.663" y2="39.599"/>
			
				<line clip-path="url(#SVGID_4_)" fill="none" stroke="#DCDCE1" stroke-width="2" stroke-miterlimit="10" x1="-88.854" y1="276.291" x2="48.901" y2="46.331"/>
			
				<line clip-path="url(#SVGID_4_)" fill="none" stroke="#DCDCE1" stroke-width="2" stroke-miterlimit="10" x1="-77.616" y1="283.023" x2="60.139" y2="53.063"/>
			
				<line clip-path="url(#SVGID_4_)" fill="none" stroke="#DCDCE1" stroke-width="2" stroke-miterlimit="10" x1="-66.377" y1="289.755" x2="71.377" y2="59.794"/>
			
				<line clip-path="url(#SVGID_4_)" fill="none" stroke="#DCDCE1" stroke-width="2" stroke-miterlimit="10" x1="-59.172" y1="290.946" x2="78.582" y2="60.986"/>
			
				<line clip-path="url(#SVGID_4_)" fill="none" stroke="#DCDCE1" stroke-width="2" stroke-miterlimit="10" x1="-47.934" y1="297.678" x2="89.82" y2="67.718"/>
			
				<line clip-path="url(#SVGID_4_)" fill="none" stroke="#DCDCE1" stroke-width="2" stroke-miterlimit="10" x1="-36.696" y1="304.41" x2="101.058" y2="74.45"/>
			
				<line clip-path="url(#SVGID_4_)" fill="none" stroke="#DCDCE1" stroke-width="2" stroke-miterlimit="10" x1="-25.458" y1="311.142" x2="112.295" y2="81.182"/>
			
				<line clip-path="url(#SVGID_4_)" fill="none" stroke="#DCDCE1" stroke-width="2" stroke-miterlimit="10" x1="-14.221" y1="317.874" x2="123.534" y2="87.913"/>
			
				<line clip-path="url(#SVGID_4_)" fill="none" stroke="#DCDCE1" stroke-width="2" stroke-miterlimit="10" x1="-105.042" y1="265.552" x2="32.712" y2="35.592"/>
			
				<line clip-path="url(#SVGID_4_)" fill="none" stroke="#DCDCE1" stroke-width="2" stroke-miterlimit="10" x1="-93.804" y1="272.284" x2="43.95" y2="42.324"/>
			
				<line clip-path="url(#SVGID_4_)" fill="none" stroke="#DCDCE1" stroke-width="2" stroke-miterlimit="10" x1="-82.566" y1="279.016" x2="55.188" y2="49.056"/>
			
				<line clip-path="url(#SVGID_4_)" fill="none" stroke="#DCDCE1" stroke-width="2" stroke-miterlimit="10" x1="-71.328" y1="285.747" x2="66.426" y2="55.787"/>
			
				<line clip-path="url(#SVGID_4_)" fill="none" stroke="#DCDCE1" stroke-width="2" stroke-miterlimit="10" x1="41.78" y1="350.899" x2="179.534" y2="120.939"/>
			
				<line clip-path="url(#SVGID_4_)" fill="none" stroke="#DCDCE1" stroke-width="2" stroke-miterlimit="10" x1="53.018" y1="357.631" x2="190.772" y2="127.671"/>
			
				<line clip-path="url(#SVGID_4_)" fill="none" stroke="#DCDCE1" stroke-width="2" stroke-miterlimit="10" x1="64.256" y1="364.363" x2="202.01" y2="134.403"/>
			
				<line clip-path="url(#SVGID_4_)" fill="none" stroke="#DCDCE1" stroke-width="2" stroke-miterlimit="10" x1="75.494" y1="371.095" x2="213.248" y2="141.135"/>
			
				<line clip-path="url(#SVGID_4_)" fill="none" stroke="#DCDCE1" stroke-width="2" stroke-miterlimit="10" x1="86.731" y1="377.827" x2="224.486" y2="147.867"/>
			
				<line clip-path="url(#SVGID_4_)" fill="none" stroke="#DCDCE1" stroke-width="2" stroke-miterlimit="10" x1="-4.09" y1="325.505" x2="133.665" y2="95.545"/>
			
				<line clip-path="url(#SVGID_4_)" fill="none" stroke="#DCDCE1" stroke-width="2" stroke-miterlimit="10" x1="7.148" y1="332.237" x2="144.902" y2="102.276"/>
			
				<line clip-path="url(#SVGID_4_)" fill="none" stroke="#DCDCE1" stroke-width="2" stroke-miterlimit="10" x1="18.386" y1="338.969" x2="156.14" y2="109.008"/>
			
				<line clip-path="url(#SVGID_4_)" fill="none" stroke="#DCDCE1" stroke-width="2" stroke-miterlimit="10" x1="29.624" y1="345.701" x2="167.378" y2="115.74"/>
			
				<line clip-path="url(#SVGID_4_)" fill="none" stroke="#DCDCE1" stroke-width="2" stroke-miterlimit="10" x1="36.83" y1="346.892" x2="174.583" y2="116.932"/>
			
				<line clip-path="url(#SVGID_4_)" fill="none" stroke="#DCDCE1" stroke-width="2" stroke-miterlimit="10" x1="48.067" y1="353.624" x2="185.821" y2="123.663"/>
			
				<line clip-path="url(#SVGID_4_)" fill="none" stroke="#DCDCE1" stroke-width="2" stroke-miterlimit="10" x1="59.305" y1="360.356" x2="197.059" y2="130.395"/>
			
				<line clip-path="url(#SVGID_4_)" fill="none" stroke="#DCDCE1" stroke-width="2" stroke-miterlimit="10" x1="70.543" y1="367.088" x2="208.297" y2="137.127"/>
			
				<line clip-path="url(#SVGID_4_)" fill="none" stroke="#DCDCE1" stroke-width="2" stroke-miterlimit="10" x1="81.781" y1="373.82" x2="219.535" y2="143.859"/>
			
				<line clip-path="url(#SVGID_4_)" fill="none" stroke="#DCDCE1" stroke-width="2" stroke-miterlimit="10" x1="2.197" y1="328.229" x2="139.952" y2="98.27"/>
			
				<line clip-path="url(#SVGID_4_)" fill="none" stroke="#DCDCE1" stroke-width="2" stroke-miterlimit="10" x1="13.435" y1="334.961" x2="151.189" y2="105.001"/>
			
				<line clip-path="url(#SVGID_4_)" fill="none" stroke="#DCDCE1" stroke-width="2" stroke-miterlimit="10" x1="24.673" y1="341.693" x2="162.427" y2="111.733"/>
		</g>
	</g>
	<polygon fill="#F2A36F" points="60.166,329.569 30.06,277.424 60.166,225.279 120.378,225.279 150.484,277.424 120.378,329.569 	
		"/>
	<polygon fill="#FEDBBA" points="90.233,277.541 75.17,251.45 90.233,225.358 120.361,225.358 135.425,251.45 120.361,277.541 	"/>
	<g>
		<g>
			<defs>
				<polygon id="SVGID_5_" points="150.169,173.293 120.182,121.354 150.169,69.414 210.144,69.414 240.131,121.354 
					210.144,173.293 				"/>
			</defs>
			<clipPath id="SVGID_6_">
				<use xlink:href="#SVGID_5_"  overflow="visible"/>
			</clipPath>
			
				<line clip-path="url(#SVGID_6_)" fill="none" stroke="#F36C42" stroke-width="2" stroke-miterlimit="10" x1="42.842" y1="135.472" x2="218.367" y2="-164.709"/>
			
				<line clip-path="url(#SVGID_6_)" fill="none" stroke="#F36C42" stroke-width="2" stroke-miterlimit="10" x1="57.511" y1="144.049" x2="233.037" y2="-156.131"/>
			
				<line clip-path="url(#SVGID_6_)" fill="none" stroke="#F36C42" stroke-width="2" stroke-miterlimit="10" x1="72.181" y1="152.627" x2="247.706" y2="-147.554"/>
			
				<line clip-path="url(#SVGID_6_)" fill="none" stroke="#F36C42" stroke-width="2" stroke-miterlimit="10" x1="86.85" y1="161.204" x2="262.375" y2="-138.976"/>
			
				<line clip-path="url(#SVGID_6_)" fill="none" stroke="#F36C42" stroke-width="2" stroke-miterlimit="10" x1="101.52" y1="169.782" x2="277.045" y2="-130.398"/>
			
				<line clip-path="url(#SVGID_6_)" fill="#022169" stroke="#007481" stroke-width="2" stroke-miterlimit="10" x1="-17.006" y1="103.162" x2="158.52" y2="-197.019"/>
			
				<line clip-path="url(#SVGID_6_)" fill="none" stroke="#F36C42" stroke-width="2" stroke-miterlimit="10" x1="-2.337" y1="111.74" x2="173.189" y2="-188.441"/>
			
				<line clip-path="url(#SVGID_6_)" fill="none" stroke="#F36C42" stroke-width="2" stroke-miterlimit="10" x1="12.333" y1="120.317" x2="187.858" y2="-179.863"/>
			
				<line clip-path="url(#SVGID_6_)" fill="none" stroke="#F36C42" stroke-width="2" stroke-miterlimit="10" x1="27.002" y1="128.895" x2="202.528" y2="-171.286"/>
			
				<line clip-path="url(#SVGID_6_)" fill="none" stroke="#F36C42" stroke-width="2" stroke-miterlimit="10" x1="36.365" y1="130.342" x2="211.891" y2="-169.839"/>
			
				<line clip-path="url(#SVGID_6_)" fill="none" stroke="#F36C42" stroke-width="2" stroke-miterlimit="10" x1="51.034" y1="138.919" x2="226.56" y2="-161.261"/>
			
				<line clip-path="url(#SVGID_6_)" fill="none" stroke="#F36C42" stroke-width="2" stroke-miterlimit="10" x1="65.704" y1="147.497" x2="241.23" y2="-152.684"/>
			
				<line clip-path="url(#SVGID_6_)" fill="none" stroke="#F36C42" stroke-width="2" stroke-miterlimit="10" x1="80.373" y1="156.075" x2="255.899" y2="-144.106"/>
			
				<line clip-path="url(#SVGID_6_)" fill="none" stroke="#F36C42" stroke-width="2" stroke-miterlimit="10" x1="95.043" y1="164.652" x2="270.569" y2="-135.528"/>
			
				<line clip-path="url(#SVGID_6_)" fill="#022169" stroke="#007481" stroke-width="2" stroke-miterlimit="10" x1="-23.483" y1="98.032" x2="152.043" y2="-202.148"/>
			
				<line clip-path="url(#SVGID_6_)" fill="#022169" stroke="#007481" stroke-width="2" stroke-miterlimit="10" x1="-8.814" y1="106.61" x2="166.712" y2="-193.571"/>
			
				<line clip-path="url(#SVGID_6_)" fill="none" stroke="#F36C42" stroke-width="2" stroke-miterlimit="10" x1="5.856" y1="115.188" x2="181.382" y2="-184.993"/>
			
				<line clip-path="url(#SVGID_6_)" fill="none" stroke="#F36C42" stroke-width="2" stroke-miterlimit="10" x1="20.525" y1="123.765" x2="196.051" y2="-176.416"/>
			
				<line clip-path="url(#SVGID_6_)" fill="none" stroke="#F36C42" stroke-width="2" stroke-miterlimit="10" x1="168.137" y1="206.722" x2="343.663" y2="-93.459"/>
			
				<line clip-path="url(#SVGID_6_)" fill="none" stroke="#F36C42" stroke-width="2" stroke-miterlimit="10" x1="182.806" y1="215.299" x2="358.332" y2="-84.881"/>
			
				<line clip-path="url(#SVGID_6_)" fill="none" stroke="#F36C42" stroke-width="2" stroke-miterlimit="10" x1="197.476" y1="223.877" x2="373.001" y2="-76.304"/>
			
				<line clip-path="url(#SVGID_6_)" fill="none" stroke="#F36C42" stroke-width="2" stroke-miterlimit="10" x1="212.145" y1="232.454" x2="387.67" y2="-67.726"/>
			
				<line clip-path="url(#SVGID_6_)" fill="none" stroke="#F36C42" stroke-width="2" stroke-miterlimit="10" x1="226.814" y1="241.033" x2="402.34" y2="-59.148"/>
			
				<line clip-path="url(#SVGID_6_)" fill="none" stroke="#F36C42" stroke-width="2" stroke-miterlimit="10" x1="108.289" y1="174.412" x2="283.815" y2="-125.769"/>
			
				<line clip-path="url(#SVGID_6_)" fill="none" stroke="#F36C42" stroke-width="2" stroke-miterlimit="10" x1="122.958" y1="182.99" x2="298.484" y2="-117.191"/>
			
				<line clip-path="url(#SVGID_6_)" fill="none" stroke="#F36C42" stroke-width="2" stroke-miterlimit="10" x1="137.627" y1="191.567" x2="313.153" y2="-108.613"/>
			
				<line clip-path="url(#SVGID_6_)" fill="none" stroke="#F36C42" stroke-width="2" stroke-miterlimit="10" x1="152.297" y1="200.145" x2="327.823" y2="-100.036"/>
			
				<line clip-path="url(#SVGID_6_)" fill="none" stroke="#F36C42" stroke-width="2" stroke-miterlimit="10" x1="161.66" y1="201.592" x2="337.186" y2="-98.589"/>
			
				<line clip-path="url(#SVGID_6_)" fill="none" stroke="#F36C42" stroke-width="2" stroke-miterlimit="10" x1="176.33" y1="210.169" x2="351.855" y2="-90.011"/>
			
				<line clip-path="url(#SVGID_6_)" fill="none" stroke="#F36C42" stroke-width="2" stroke-miterlimit="10" x1="190.999" y1="218.747" x2="366.525" y2="-81.434"/>
			
				<line clip-path="url(#SVGID_6_)" fill="none" stroke="#F36C42" stroke-width="2" stroke-miterlimit="10" x1="205.669" y1="227.325" x2="381.194" y2="-72.856"/>
			
				<line clip-path="url(#SVGID_6_)" fill="none" stroke="#F36C42" stroke-width="2" stroke-miterlimit="10" x1="220.338" y1="235.903" x2="395.864" y2="-64.278"/>
			
				<line clip-path="url(#SVGID_6_)" fill="none" stroke="#F36C42" stroke-width="2" stroke-miterlimit="10" x1="116.481" y1="177.86" x2="292.007" y2="-122.321"/>
			
				<line clip-path="url(#SVGID_6_)" fill="none" stroke="#F36C42" stroke-width="2" stroke-miterlimit="10" x1="131.151" y1="186.438" x2="306.676" y2="-113.743"/>
			
				<line clip-path="url(#SVGID_6_)" fill="none" stroke="#F36C42" stroke-width="2" stroke-miterlimit="10" x1="145.82" y1="195.015" x2="321.346" y2="-105.166"/>
		</g>
	</g>
	<polygon fill="#DCDCE1" points="330.33,173.293 300.072,225.702 330.33,278.109 360.587,225.702 	"/>
	<polygon fill="#DCDCE1" points="270.725,278.109 240.922,329.729 300.527,329.729 	"/>
	<polygon fill="#F26A57" points="300.527,329.729 270.725,278.109 330.33,278.109 	"/>
	<polygon fill="#F26A57" points="348.66,309.859 330.33,278.109 366.991,278.109 	"/>
	<polygon fill="#F2A36F" points="270.113,68.962 257.219,46.629 283.006,46.629 	"/>
	<polygon fill="#DCDCE1" points="60.166,225.438 30.06,173.293 60.166,121.148 120.378,121.148 150.484,173.293 120.378,225.438 	
		"/>
	<polygon fill="#E7555D" points="150.605,381.874 120.499,329.729 150.605,277.583 210.816,277.583 240.922,329.729 
		210.816,381.874 	"/>
	<polygon fill="#E7555D" points="285.468,355.808 277.94,342.768 285.468,329.729 300.525,329.729 308.053,342.768 300.525,355.808 
			"/>
	<polygon fill="#00BBBC" points="30.06,173.293 0,225.359 30.06,277.424 60.12,225.359 	"/>
	<polygon fill="#F26A57" points="37.744,238.277 30.286,225.358 37.744,212.44 52.662,212.44 60.12,225.358 52.662,238.277 	"/>
	<polygon fill="#003F5B" points="97.695,368.463 82.722,342.529 97.695,316.595 127.641,316.595 142.615,342.529 127.641,368.463 	
		"/>
	<polygon fill="#F2A36F" points="60.172,173.509 52.626,160.418 60.184,147.329 75.184,147.329 82.722,160.418 75.184,173.509 	"/>
	<polygon fill="#F2A36F" points="82.722,134.238 75.175,121.148 82.733,108.059 97.733,108.059 105.271,121.148 97.733,134.238 	"/>
	<polygon fill="#E7555D" points="60.172,147.329 52.626,134.238 60.184,121.148 75.184,121.148 82.722,134.238 75.184,147.329 	"/>
	<polygon fill="#DCDCE1" points="180.143,69.682 165.286,95.415 180.143,121.148 194.999,95.415 	"/>
	<polygon fill="#F2A36F" points="135.307,408.598 150.71,381.917 135.307,355.236 119.902,381.917 	"/>
	<polygon fill="#F26A57" points="270.116,68.962 285.18,95.055 270.116,121.148 239.985,121.148 224.92,95.055 239.985,68.962 	"/>
	<polygon fill="#E7555D" points="139.917,69.684 119.8,34.842 139.917,0 180.148,0 200.265,34.842 180.148,69.684 	"/>
	<g>
		<g>
			<defs>
				<polygon id="SVGID_7_" points="285.322,147.057 270.31,121.056 285.322,95.055 315.345,95.055 330.357,121.056 315.345,147.057 
									"/>
			</defs>
			<clipPath id="SVGID_8_">
				<use xlink:href="#SVGID_7_"  overflow="visible"/>
			</clipPath>
			<polygon clip-path="url(#SVGID_8_)" fill="#EF3D49" points="263.55,146.958 270.222,146.958 266.886,141.202 			"/>
			<polygon clip-path="url(#SVGID_8_)" fill="#EF3D49" points="276.893,146.958 283.565,146.958 280.229,141.202 			"/>
			<polygon clip-path="url(#SVGID_8_)" fill="#EF3D49" points="290.035,146.958 296.706,146.958 293.37,141.202 			"/>
			<polygon clip-path="url(#SVGID_8_)" fill="#EF3D49" points="303.377,146.958 310.048,146.958 306.713,141.202 			"/>
			<polygon clip-path="url(#SVGID_8_)" fill="#EF3D49" points="316.72,146.958 323.391,146.958 320.056,141.202 			"/>
			<polygon clip-path="url(#SVGID_8_)" fill="#EF3D49" points="330.063,146.958 336.735,146.958 333.399,141.202 			"/>
			<polygon clip-path="url(#SVGID_8_)" fill="#EF3D49" points="343.204,146.958 349.875,146.958 346.539,141.202 			"/>
			<polygon clip-path="url(#SVGID_8_)" fill="#EF3D49" points="356.547,146.958 363.218,146.958 359.882,141.202 			"/>
			<polygon clip-path="url(#SVGID_8_)" fill="#EF3D49" points="263.55,135.446 270.222,135.446 266.886,129.69 			"/>
			<polygon clip-path="url(#SVGID_8_)" fill="#EF3D49" points="276.893,135.446 283.565,135.446 280.229,129.69 			"/>
			<polygon clip-path="url(#SVGID_8_)" fill="#EF3D49" points="290.035,135.446 296.706,135.446 293.37,129.69 			"/>
			<polygon clip-path="url(#SVGID_8_)" fill="#EF3D49" points="303.377,135.446 310.048,135.446 306.713,129.69 			"/>
			<polygon clip-path="url(#SVGID_8_)" fill="#EF3D49" points="316.72,135.446 323.391,135.446 320.056,129.69 			"/>
			<polygon clip-path="url(#SVGID_8_)" fill="#EF3D49" points="330.063,135.446 336.735,135.446 333.399,129.69 			"/>
			<polygon clip-path="url(#SVGID_8_)" fill="#EF3D49" points="343.204,135.446 349.875,135.446 346.539,129.69 			"/>
			<polygon clip-path="url(#SVGID_8_)" fill="#EF3D49" points="356.547,135.446 363.218,135.446 359.882,129.69 			"/>
			<polygon clip-path="url(#SVGID_8_)" fill="#EF3D49" points="263.55,123.934 270.222,123.934 266.886,118.178 			"/>
			<polygon clip-path="url(#SVGID_8_)" fill="#EF3D49" points="276.893,123.934 283.565,123.934 280.229,118.178 			"/>
			<polygon clip-path="url(#SVGID_8_)" fill="#EF3D49" points="290.035,123.934 296.706,123.934 293.371,118.178 			"/>
			<polygon clip-path="url(#SVGID_8_)" fill="#EF3D49" points="303.377,123.934 310.048,123.934 306.713,118.178 			"/>
			<polygon clip-path="url(#SVGID_8_)" fill="#EF3D49" points="316.72,123.934 323.391,123.934 320.056,118.178 			"/>
			<polygon clip-path="url(#SVGID_8_)" fill="#EF3D49" points="330.063,123.934 336.735,123.934 333.399,118.178 			"/>
			<polygon clip-path="url(#SVGID_8_)" fill="#EF3D49" points="343.204,123.934 349.875,123.934 346.539,118.178 			"/>
			<polygon clip-path="url(#SVGID_8_)" fill="#EF3D49" points="356.547,123.934 363.218,123.934 359.882,118.178 			"/>
			<polygon clip-path="url(#SVGID_8_)" fill="#EF3D49" points="263.55,112.422 270.222,112.422 266.886,106.666 			"/>
			<polygon clip-path="url(#SVGID_8_)" fill="#EF3D49" points="276.893,112.422 283.565,112.422 280.229,106.666 			"/>
			<polygon clip-path="url(#SVGID_8_)" fill="#EF3D49" points="290.035,112.422 296.706,112.422 293.37,106.666 			"/>
			<polygon clip-path="url(#SVGID_8_)" fill="#EF3D49" points="303.377,112.422 310.048,112.422 306.713,106.666 			"/>
			<polygon clip-path="url(#SVGID_8_)" fill="#EF3D49" points="316.72,112.422 323.391,112.422 320.056,106.666 			"/>
			<polygon clip-path="url(#SVGID_8_)" fill="#EF3D49" points="330.063,112.422 336.735,112.422 333.399,106.666 			"/>
			<polygon clip-path="url(#SVGID_8_)" fill="#EF3D49" points="343.204,112.422 349.875,112.422 346.539,106.666 			"/>
			<polygon clip-path="url(#SVGID_8_)" fill="#EF3D49" points="356.547,112.422 363.218,112.422 359.882,106.666 			"/>
			<polygon clip-path="url(#SVGID_8_)" fill="#EF3D49" points="263.55,100.91 270.222,100.91 266.886,95.154 			"/>
			<polygon clip-path="url(#SVGID_8_)" fill="#EF3D49" points="276.893,100.91 283.565,100.91 280.229,95.154 			"/>
			<polygon clip-path="url(#SVGID_8_)" fill="#EF3D49" points="290.035,100.91 296.706,100.91 293.37,95.154 			"/>
			<polygon clip-path="url(#SVGID_8_)" fill="#EF3D49" points="303.377,100.91 310.048,100.91 306.713,95.154 			"/>
			<polygon clip-path="url(#SVGID_8_)" fill="#EF3D49" points="316.72,100.91 323.391,100.91 320.056,95.154 			"/>
			<polygon clip-path="url(#SVGID_8_)" fill="#EF3D49" points="330.063,100.91 336.735,100.91 333.399,95.154 			"/>
			<polygon clip-path="url(#SVGID_8_)" fill="#EF3D49" points="343.204,100.91 349.875,100.91 346.539,95.154 			"/>
			<polygon clip-path="url(#SVGID_8_)" fill="#EF3D49" points="356.547,100.91 363.218,100.91 359.882,95.154 			"/>
			<polygon clip-path="url(#SVGID_8_)" fill="#EF3D49" points="263.55,89.398 270.222,89.398 266.886,83.643 			"/>
			<polygon clip-path="url(#SVGID_8_)" fill="#EF3D49" points="276.893,89.398 283.565,89.398 280.229,83.643 			"/>
			<polygon clip-path="url(#SVGID_8_)" fill="#EF3D49" points="290.035,89.398 296.706,89.398 293.371,83.643 			"/>
			<polygon clip-path="url(#SVGID_8_)" fill="#EF3D49" points="303.377,89.398 310.048,89.398 306.713,83.643 			"/>
			<polygon clip-path="url(#SVGID_8_)" fill="#EF3D49" points="316.72,89.398 323.391,89.398 320.056,83.643 			"/>
			<polygon clip-path="url(#SVGID_8_)" fill="#EF3D49" points="330.063,89.398 336.735,89.398 333.399,83.643 			"/>
			<polygon clip-path="url(#SVGID_8_)" fill="#EF3D49" points="343.204,89.398 349.875,89.398 346.539,83.643 			"/>
			<polygon clip-path="url(#SVGID_8_)" fill="#EF3D49" points="356.547,89.398 363.218,89.398 359.882,83.643 			"/>
			<polygon clip-path="url(#SVGID_8_)" fill="#EF3D49" points="263.55,77.886 270.222,77.886 266.886,72.13 			"/>
			<polygon clip-path="url(#SVGID_8_)" fill="#EF3D49" points="276.893,77.886 283.565,77.886 280.229,72.13 			"/>
			<polygon clip-path="url(#SVGID_8_)" fill="#EF3D49" points="290.035,77.886 296.706,77.886 293.37,72.13 			"/>
			<polygon clip-path="url(#SVGID_8_)" fill="#EF3D49" points="303.377,77.886 310.048,77.886 306.713,72.13 			"/>
			<polygon clip-path="url(#SVGID_8_)" fill="#EF3D49" points="316.72,77.886 323.391,77.886 320.056,72.13 			"/>
			<polygon clip-path="url(#SVGID_8_)" fill="#EF3D49" points="330.063,77.886 336.735,77.886 333.399,72.13 			"/>
			<polygon clip-path="url(#SVGID_8_)" fill="#EF3D49" points="343.204,77.886 349.875,77.886 346.539,72.13 			"/>
			<polygon clip-path="url(#SVGID_8_)" fill="#EF3D49" points="356.547,77.886 363.218,77.886 359.882,72.13 			"/>
			<polygon clip-path="url(#SVGID_8_)" fill="#EF3D49" points="263.55,66.374 270.222,66.374 266.886,60.618 			"/>
			<polygon clip-path="url(#SVGID_8_)" fill="#EF3D49" points="276.893,66.374 283.565,66.374 280.229,60.618 			"/>
			<polygon clip-path="url(#SVGID_8_)" fill="#EF3D49" points="290.035,66.374 296.706,66.374 293.37,60.618 			"/>
			<polygon clip-path="url(#SVGID_8_)" fill="#EF3D49" points="303.377,66.374 310.048,66.374 306.713,60.618 			"/>
			<polygon clip-path="url(#SVGID_8_)" fill="#EF3D49" points="316.72,66.374 323.391,66.374 320.056,60.618 			"/>
			<polygon clip-path="url(#SVGID_8_)" fill="#EF3D49" points="330.063,66.374 336.735,66.374 333.399,60.618 			"/>
			<polygon clip-path="url(#SVGID_8_)" fill="#EF3D49" points="343.204,66.374 349.875,66.374 346.539,60.618 			"/>
			<polygon clip-path="url(#SVGID_8_)" fill="#EF3D49" points="356.547,66.374 363.218,66.374 359.882,60.618 			"/>
			<polygon clip-path="url(#SVGID_8_)" fill="#EF3D49" points="263.55,54.862 270.222,54.862 266.886,49.106 			"/>
			<polygon clip-path="url(#SVGID_8_)" fill="#EF3D49" points="276.893,54.862 283.565,54.862 280.229,49.106 			"/>
			<polygon clip-path="url(#SVGID_8_)" fill="#EF3D49" points="290.035,54.862 296.706,54.862 293.37,49.106 			"/>
			<polygon clip-path="url(#SVGID_8_)" fill="#EF3D49" points="303.377,54.862 310.048,54.862 306.713,49.106 			"/>
			<polygon clip-path="url(#SVGID_8_)" fill="#EF3D49" points="316.72,54.862 323.391,54.862 320.056,49.106 			"/>
			<polygon clip-path="url(#SVGID_8_)" fill="#EF3D49" points="330.063,54.862 336.735,54.862 333.399,49.106 			"/>
			<polygon clip-path="url(#SVGID_8_)" fill="#EF3D49" points="343.204,54.862 349.875,54.862 346.539,49.106 			"/>
			<polygon clip-path="url(#SVGID_8_)" fill="#EF3D49" points="356.547,54.862 363.218,54.862 359.882,49.106 			"/>
			<polygon clip-path="url(#SVGID_8_)" fill="#EF3D49" points="263.55,43.35 270.222,43.35 266.886,37.594 			"/>
			<polygon clip-path="url(#SVGID_8_)" fill="#EF3D49" points="276.893,43.35 283.565,43.35 280.229,37.594 			"/>
			<polygon clip-path="url(#SVGID_8_)" fill="#EF3D49" points="290.035,43.35 296.706,43.35 293.37,37.594 			"/>
			<polygon clip-path="url(#SVGID_8_)" fill="#EF3D49" points="303.377,43.35 310.048,43.35 306.713,37.594 			"/>
			<polygon clip-path="url(#SVGID_8_)" fill="#EF3D49" points="316.72,43.35 323.391,43.35 320.056,37.594 			"/>
			<polygon clip-path="url(#SVGID_8_)" fill="#EF3D49" points="330.063,43.35 336.735,43.35 333.399,37.594 			"/>
			<polygon clip-path="url(#SVGID_8_)" fill="#EF3D49" points="343.204,43.35 349.875,43.35 346.539,37.594 			"/>
			<polygon clip-path="url(#SVGID_8_)" fill="#EF3D49" points="356.547,43.35 363.218,43.35 359.882,37.594 			"/>
			<polygon clip-path="url(#SVGID_8_)" fill="#EF3D49" points="263.55,31.838 270.222,31.838 266.886,26.083 			"/>
			<polygon clip-path="url(#SVGID_8_)" fill="#EF3D49" points="276.893,31.838 283.565,31.838 280.229,26.083 			"/>
			<polygon clip-path="url(#SVGID_8_)" fill="#EF3D49" points="290.035,31.838 296.706,31.838 293.37,26.083 			"/>
			<polygon clip-path="url(#SVGID_8_)" fill="#EF3D49" points="303.377,31.838 310.048,31.838 306.713,26.083 			"/>
			<polygon clip-path="url(#SVGID_8_)" fill="#EF3D49" points="316.72,31.838 323.391,31.838 320.056,26.083 			"/>
			<polygon clip-path="url(#SVGID_8_)" fill="#EF3D49" points="330.063,31.838 336.735,31.838 333.399,26.083 			"/>
			<polygon clip-path="url(#SVGID_8_)" fill="#EF3D49" points="343.204,31.838 349.875,31.838 346.539,26.083 			"/>
			<polygon clip-path="url(#SVGID_8_)" fill="#EF3D49" points="356.547,31.838 363.218,31.838 359.882,26.083 			"/>
		</g>
	</g>
	<g>
		<defs>
			<polygon id="SVGID_9_" points="60.324,381.262 45.472,355.538 60.324,329.814 90.027,329.814 104.879,355.538 90.027,381.262 			
				"/>
		</defs>
		<clipPath id="SVGID_10_">
			<use xlink:href="#SVGID_9_"  overflow="visible"/>
		</clipPath>
		<polygon clip-path="url(#SVGID_10_)" fill="#FEDBBA" points="63.699,381.262 68.289,381.262 65.994,377.301 		"/>
		<polygon clip-path="url(#SVGID_10_)" fill="#FEDBBA" points="72.88,381.262 77.471,381.262 75.175,377.301 		"/>
		<polygon clip-path="url(#SVGID_10_)" fill="#FEDBBA" points="82.062,381.262 86.652,381.262 84.357,377.301 		"/>
		<polygon clip-path="url(#SVGID_10_)" fill="#FEDBBA" points="54.657,373.341 59.247,373.341 56.952,369.38 		"/>
		<polygon clip-path="url(#SVGID_10_)" fill="#FEDBBA" points="63.699,373.341 68.289,373.341 65.994,369.38 		"/>
		<polygon clip-path="url(#SVGID_10_)" fill="#FEDBBA" points="72.88,373.341 77.471,373.341 75.175,369.38 		"/>
		<polygon clip-path="url(#SVGID_10_)" fill="#FEDBBA" points="82.062,373.341 86.652,373.341 84.357,369.38 		"/>
		<polygon clip-path="url(#SVGID_10_)" fill="#FEDBBA" points="91.243,373.341 95.834,373.341 93.538,369.38 		"/>
		<polygon clip-path="url(#SVGID_10_)" fill="#FEDBBA" points="45.476,365.419 50.066,365.419 47.771,361.459 		"/>
		<polygon clip-path="url(#SVGID_10_)" fill="#FEDBBA" points="54.657,365.419 59.247,365.419 56.952,361.459 		"/>
		<polygon clip-path="url(#SVGID_10_)" fill="#FEDBBA" points="63.699,365.419 68.289,365.419 65.994,361.459 		"/>
		<polygon clip-path="url(#SVGID_10_)" fill="#FEDBBA" points="72.88,365.419 77.471,365.419 75.175,361.459 		"/>
		<polygon clip-path="url(#SVGID_10_)" fill="#FEDBBA" points="82.062,365.419 86.652,365.419 84.357,361.459 		"/>
		<polygon clip-path="url(#SVGID_10_)" fill="#FEDBBA" points="91.243,365.419 95.834,365.419 93.538,361.459 		"/>
		<polygon clip-path="url(#SVGID_10_)" fill="#FEDBBA" points="100.285,365.419 104.876,365.419 102.58,361.459 		"/>
		<polygon clip-path="url(#SVGID_10_)" fill="#FEDBBA" points="45.476,357.498 50.066,357.498 47.771,353.537 		"/>
		<polygon clip-path="url(#SVGID_10_)" fill="#FEDBBA" points="54.657,357.498 59.247,357.498 56.952,353.537 		"/>
		<polygon clip-path="url(#SVGID_10_)" fill="#FEDBBA" points="63.699,357.498 68.289,357.498 65.994,353.537 		"/>
		<polygon clip-path="url(#SVGID_10_)" fill="#FEDBBA" points="72.88,357.498 77.471,357.498 75.175,353.537 		"/>
		<polygon clip-path="url(#SVGID_10_)" fill="#FEDBBA" points="82.062,357.498 86.652,357.498 84.357,353.537 		"/>
		<polygon clip-path="url(#SVGID_10_)" fill="#FEDBBA" points="91.243,357.498 95.834,357.498 93.538,353.537 		"/>
		<polygon clip-path="url(#SVGID_10_)" fill="#FEDBBA" points="100.285,357.498 104.876,357.498 102.58,353.537 		"/>
		<polygon clip-path="url(#SVGID_10_)" fill="#FEDBBA" points="45.476,349.577 50.066,349.577 47.771,345.616 		"/>
		<polygon clip-path="url(#SVGID_10_)" fill="#FEDBBA" points="54.657,349.577 59.247,349.577 56.952,345.616 		"/>
		<polygon clip-path="url(#SVGID_10_)" fill="#FEDBBA" points="63.699,349.577 68.289,349.577 65.994,345.616 		"/>
		<polygon clip-path="url(#SVGID_10_)" fill="#FEDBBA" points="72.88,349.577 77.471,349.577 75.175,345.616 		"/>
		<polygon clip-path="url(#SVGID_10_)" fill="#FEDBBA" points="82.062,349.577 86.652,349.577 84.357,345.616 		"/>
		<polygon clip-path="url(#SVGID_10_)" fill="#FEDBBA" points="91.243,349.577 95.834,349.577 93.538,345.616 		"/>
		<polygon clip-path="url(#SVGID_10_)" fill="#FEDBBA" points="100.285,349.577 104.876,349.577 102.58,345.616 		"/>
		<polygon clip-path="url(#SVGID_10_)" fill="#FEDBBA" points="54.657,341.655 59.247,341.655 56.952,337.694 		"/>
		<polygon clip-path="url(#SVGID_10_)" fill="#FEDBBA" points="63.699,341.655 68.289,341.655 65.994,337.694 		"/>
		<polygon clip-path="url(#SVGID_10_)" fill="#FEDBBA" points="72.88,341.655 77.471,341.655 75.175,337.694 		"/>
		<polygon clip-path="url(#SVGID_10_)" fill="#FEDBBA" points="82.062,341.655 86.652,341.655 84.357,337.694 		"/>
		<polygon clip-path="url(#SVGID_10_)" fill="#FEDBBA" points="91.243,341.655 95.834,341.655 93.538,337.694 		"/>
		<polygon clip-path="url(#SVGID_10_)" fill="#FEDBBA" points="54.657,333.734 59.247,333.734 56.952,329.773 		"/>
		<polygon clip-path="url(#SVGID_10_)" fill="#FEDBBA" points="63.699,333.734 68.289,333.734 65.994,329.773 		"/>
		<polygon clip-path="url(#SVGID_10_)" fill="#FEDBBA" points="72.88,333.734 77.471,333.734 75.175,329.773 		"/>
		<polygon clip-path="url(#SVGID_10_)" fill="#FEDBBA" points="82.062,333.734 86.652,333.734 84.357,329.773 		"/>
		<polygon clip-path="url(#SVGID_10_)" fill="#FEDBBA" points="91.243,333.734 95.834,333.734 93.538,329.773 		"/>
	</g>
	<g>
		<g>
			<defs>
				<polygon id="SVGID_11_" points="193.45,411.979 169.72,370.876 193.45,329.774 240.911,329.774 264.641,370.876 
					240.911,411.979 				"/>
			</defs>
			<clipPath id="SVGID_12_">
				<use xlink:href="#SVGID_11_"  overflow="visible"/>
			</clipPath>
			<polygon clip-path="url(#SVGID_12_)" fill="#00BBBC" points="200.874,411.979 211.574,411.979 206.224,402.747 			"/>
			<polygon clip-path="url(#SVGID_12_)" fill="#00BBBC" points="222.273,411.979 232.973,411.979 227.624,402.747 			"/>
			<polygon clip-path="url(#SVGID_12_)" fill="#00BBBC" points="179.475,393.516 190.174,393.516 184.824,384.284 			"/>
			<polygon clip-path="url(#SVGID_12_)" fill="#00BBBC" points="200.874,393.516 211.574,393.516 206.224,384.284 			"/>
			<polygon clip-path="url(#SVGID_12_)" fill="#00BBBC" points="222.273,393.516 232.973,393.516 227.624,384.284 			"/>
			<polygon clip-path="url(#SVGID_12_)" fill="#00BBBC" points="243.673,393.516 254.373,393.516 249.023,384.284 			"/>
			<polygon clip-path="url(#SVGID_12_)" fill="#00BBBC" points="179.475,375.052 190.174,375.052 184.824,365.821 			"/>
			<polygon clip-path="url(#SVGID_12_)" fill="#00BBBC" points="200.874,375.052 211.574,375.052 206.224,365.821 			"/>
			<polygon clip-path="url(#SVGID_12_)" fill="#00BBBC" points="222.273,375.052 232.973,375.052 227.624,365.821 			"/>
			<polygon clip-path="url(#SVGID_12_)" fill="#00BBBC" points="243.673,375.052 254.373,375.052 249.023,365.821 			"/>
			<polygon clip-path="url(#SVGID_12_)" fill="#00BBBC" points="179.475,356.589 190.174,356.589 184.824,347.357 			"/>
			<polygon clip-path="url(#SVGID_12_)" fill="#00BBBC" points="200.874,356.589 211.574,356.589 206.224,347.357 			"/>
			<polygon clip-path="url(#SVGID_12_)" fill="#00BBBC" points="222.273,356.589 232.973,356.589 227.624,347.357 			"/>
			<polygon clip-path="url(#SVGID_12_)" fill="#00BBBC" points="243.673,356.589 254.373,356.589 249.023,347.357 			"/>
			<polygon clip-path="url(#SVGID_12_)" fill="#00BBBC" points="179.475,338.126 190.174,338.126 184.824,328.895 			"/>
			<polygon clip-path="url(#SVGID_12_)" fill="#00BBBC" points="200.874,338.126 211.574,338.126 206.224,328.895 			"/>
			<polygon clip-path="url(#SVGID_12_)" fill="#00BBBC" points="222.273,338.126 232.973,338.126 227.624,328.895 			"/>
			<polygon clip-path="url(#SVGID_12_)" fill="#00BBBC" points="243.673,338.126 254.373,338.126 249.023,328.895 			"/>
		</g>
	</g>
	<g>
		<defs>
			<polygon id="SVGID_13_" points="92.423,121.289 62.994,70.316 92.423,19.344 151.282,19.344 180.71,70.316 151.282,121.289 			
				"/>
		</defs>
		<clipPath id="SVGID_14_">
			<use xlink:href="#SVGID_13_"  overflow="visible"/>
		</clipPath>
		<polygon clip-path="url(#SVGID_14_)" fill="#DCDCE1" points="99.111,121.289 108.207,121.289 103.659,113.441 		"/>
		<polygon clip-path="url(#SVGID_14_)" fill="#DCDCE1" points="117.304,121.289 126.4,121.289 121.852,113.441 		"/>
		<polygon clip-path="url(#SVGID_14_)" fill="#DCDCE1" points="135.497,121.289 144.593,121.289 140.045,113.441 		"/>
		<polygon clip-path="url(#SVGID_14_)" fill="#DCDCE1" points="81.193,105.593 90.29,105.593 85.742,97.745 		"/>
		<polygon clip-path="url(#SVGID_14_)" fill="#DCDCE1" points="99.111,105.593 108.207,105.593 103.659,97.745 		"/>
		<polygon clip-path="url(#SVGID_14_)" fill="#DCDCE1" points="117.304,105.593 126.4,105.593 121.852,97.745 		"/>
		<polygon clip-path="url(#SVGID_14_)" fill="#DCDCE1" points="135.497,105.593 144.593,105.593 140.045,97.745 		"/>
		<polygon clip-path="url(#SVGID_14_)" fill="#DCDCE1" points="153.69,105.593 162.787,105.593 158.238,97.745 		"/>
		<polygon clip-path="url(#SVGID_14_)" fill="#DCDCE1" points="63,89.896 72.097,89.896 67.549,82.048 		"/>
		<polygon clip-path="url(#SVGID_14_)" fill="#DCDCE1" points="81.193,89.896 90.29,89.896 85.742,82.048 		"/>
		<polygon clip-path="url(#SVGID_14_)" fill="#DCDCE1" points="99.111,89.896 108.207,89.896 103.659,82.048 		"/>
		<polygon clip-path="url(#SVGID_14_)" fill="#DCDCE1" points="117.304,89.896 126.4,89.896 121.852,82.048 		"/>
		<polygon clip-path="url(#SVGID_14_)" fill="#DCDCE1" points="135.497,89.896 144.593,89.896 140.045,82.048 		"/>
		<polygon clip-path="url(#SVGID_14_)" fill="#DCDCE1" points="153.69,89.896 162.787,89.896 158.238,82.048 		"/>
		<polygon clip-path="url(#SVGID_14_)" fill="#DCDCE1" points="171.608,89.896 180.704,89.896 176.156,82.048 		"/>
		<polygon clip-path="url(#SVGID_14_)" fill="#DCDCE1" points="63,74.2 72.097,74.2 67.549,66.352 		"/>
		<polygon clip-path="url(#SVGID_14_)" fill="#DCDCE1" points="81.193,74.2 90.29,74.2 85.742,66.352 		"/>
		<polygon clip-path="url(#SVGID_14_)" fill="#DCDCE1" points="99.111,74.2 108.207,74.2 103.659,66.352 		"/>
		<polygon clip-path="url(#SVGID_14_)" fill="#DCDCE1" points="117.304,76.86 126.4,76.86 121.852,66.877 		"/>
		<polygon clip-path="url(#SVGID_14_)" fill="#DCDCE1" points="135.497,74.2 144.593,74.2 140.045,66.352 		"/>
		<polygon clip-path="url(#SVGID_14_)" fill="#DCDCE1" points="153.69,74.2 162.787,74.2 158.238,66.352 		"/>
		<polygon clip-path="url(#SVGID_14_)" fill="#DCDCE1" points="171.608,74.2 180.704,74.2 176.156,66.352 		"/>
		<polygon clip-path="url(#SVGID_14_)" fill="#DCDCE1" points="63,58.503 72.097,58.503 67.549,50.655 		"/>
		<polygon clip-path="url(#SVGID_14_)" fill="#DCDCE1" points="81.193,58.503 90.29,58.503 85.742,50.655 		"/>
		<polygon clip-path="url(#SVGID_14_)" fill="#DCDCE1" points="99.111,58.503 108.207,58.503 103.659,50.655 		"/>
		<polygon clip-path="url(#SVGID_14_)" fill="#DCDCE1" points="117.304,58.503 126.4,58.503 121.852,50.655 		"/>
		<polygon clip-path="url(#SVGID_14_)" fill="#DCDCE1" points="135.497,58.503 144.593,58.503 140.045,50.655 		"/>
		<polygon clip-path="url(#SVGID_14_)" fill="#DCDCE1" points="153.69,58.503 162.787,58.503 158.238,50.655 		"/>
		<polygon clip-path="url(#SVGID_14_)" fill="#DCDCE1" points="171.608,58.503 180.704,58.503 176.156,50.655 		"/>
		<polygon clip-path="url(#SVGID_14_)" fill="#DCDCE1" points="81.193,42.807 90.29,42.807 85.742,34.958 		"/>
		<polygon clip-path="url(#SVGID_14_)" fill="#DCDCE1" points="99.111,42.807 108.207,42.807 103.659,34.958 		"/>
		<polygon clip-path="url(#SVGID_14_)" fill="#DCDCE1" points="117.304,42.807 126.4,42.807 121.852,34.958 		"/>
		<polygon clip-path="url(#SVGID_14_)" fill="#DCDCE1" points="135.497,42.807 144.593,42.807 140.045,34.958 		"/>
		<polygon clip-path="url(#SVGID_14_)" fill="#DCDCE1" points="153.69,42.807 162.787,42.807 158.238,34.958 		"/>
		<polygon clip-path="url(#SVGID_14_)" fill="#DCDCE1" points="81.193,27.11 90.29,27.11 85.742,19.262 		"/>
		<polygon clip-path="url(#SVGID_14_)" fill="#DCDCE1" points="99.111,27.11 108.207,27.11 103.659,19.262 		"/>
		<polygon clip-path="url(#SVGID_14_)" fill="#DCDCE1" points="117.304,27.11 126.4,27.11 121.852,19.262 		"/>
		<polygon clip-path="url(#SVGID_14_)" fill="#DCDCE1" points="135.497,27.11 144.593,27.11 140.045,19.262 		"/>
		<polygon clip-path="url(#SVGID_14_)" fill="#DCDCE1" points="153.69,27.11 162.787,27.11 158.238,19.262 		"/>
	</g>
	<polygon fill="#00BBBC" points="135.313,147.031 120.369,121.148 135.313,95.266 165.199,95.266 180.143,121.148 165.199,147.031 	
		"/>
	<polygon fill="#F2A36F" points="240.011,225.438 209.906,173.293 240.011,121.148 300.224,121.148 330.33,173.293 300.224,225.438 
			"/>
	<polygon fill="#00BBBC" points="255.299,121.148 262.939,134.382 255.299,147.615 240.019,147.615 232.378,134.382 
		240.019,121.148 	"/>
	<g>
		<g>
			<defs>
				<polygon id="SVGID_15_" points="90.237,277.548 60.105,225.358 90.237,173.169 150.501,173.169 180.632,225.358 
					150.501,277.548 				"/>
			</defs>
			<clipPath id="SVGID_16_">
				<use xlink:href="#SVGID_15_"  overflow="visible"/>
			</clipPath>
			
				<line clip-path="url(#SVGID_16_)" fill="#022169" stroke="#022169" stroke-width="4" stroke-miterlimit="10" x1="-105.721" y1="208.734" x2="235.94" y2="208.734"/>
			
				<line clip-path="url(#SVGID_16_)" fill="#022169" stroke="#022169" stroke-width="4" stroke-miterlimit="10" x1="-105.721" y1="225.431" x2="235.94" y2="225.431"/>
			
				<line clip-path="url(#SVGID_16_)" fill="#022169" stroke="#022169" stroke-width="4" stroke-miterlimit="10" x1="-105.721" y1="242.128" x2="235.94" y2="242.128"/>
			
				<line clip-path="url(#SVGID_16_)" fill="#022169" stroke="#022169" stroke-width="4" stroke-miterlimit="10" x1="-105.721" y1="258.824" x2="235.94" y2="258.824"/>
			
				<line clip-path="url(#SVGID_16_)" fill="#022169" stroke="#022169" stroke-width="4" stroke-miterlimit="10" x1="-105.721" y1="276.253" x2="235.94" y2="276.253"/>
			
				<line clip-path="url(#SVGID_16_)" fill="#022169" stroke="#022169" stroke-width="4" stroke-miterlimit="10" x1="-107.998" y1="174.608" x2="233.662" y2="174.608"/>
			
				<line clip-path="url(#SVGID_16_)" fill="#022169" stroke="#022169" stroke-width="4" stroke-miterlimit="10" x1="-107.998" y1="192.038" x2="233.662" y2="192.038"/>
		</g>
	</g>
	<g>
		<g>
			<defs>
				<polygon id="SVGID_17_" points="282.893,249.108 267.918,223.171 282.893,197.233 312.842,197.233 327.818,223.171 
					312.842,249.108 				"/>
			</defs>
			<clipPath id="SVGID_18_">
				<use xlink:href="#SVGID_17_"  overflow="visible"/>
			</clipPath>
			<rect x="276.664" y="197.167" clip-path="url(#SVGID_18_)" fill="#00BBBC" width="4.712" height="4.712"/>
			<rect x="286.087" y="197.167" clip-path="url(#SVGID_18_)" fill="#00BBBC" width="4.712" height="4.712"/>
			<rect x="276.664" y="206.591" clip-path="url(#SVGID_18_)" fill="#00BBBC" width="4.712" height="4.712"/>
			<rect x="286.087" y="206.591" clip-path="url(#SVGID_18_)" fill="#00BBBC" width="4.712" height="4.712"/>
			<rect x="295.511" y="197.167" clip-path="url(#SVGID_18_)" fill="#00BBBC" width="4.713" height="4.712"/>
			<rect x="304.936" y="197.167" clip-path="url(#SVGID_18_)" fill="#00BBBC" width="4.712" height="4.712"/>
			<rect x="314.36" y="197.167" clip-path="url(#SVGID_18_)" fill="#00BBBC" width="4.712" height="4.712"/>
			<rect x="295.511" y="206.591" clip-path="url(#SVGID_18_)" fill="#00BBBC" width="4.713" height="4.712"/>
			<rect x="304.936" y="206.591" clip-path="url(#SVGID_18_)" fill="#00BBBC" width="4.712" height="4.712"/>
			<rect x="314.36" y="206.591" clip-path="url(#SVGID_18_)" fill="#00BBBC" width="4.712" height="4.712"/>
			<rect x="276.664" y="234.862" clip-path="url(#SVGID_18_)" fill="#00BBBC" width="4.712" height="4.712"/>
			<rect x="286.087" y="234.862" clip-path="url(#SVGID_18_)" fill="#00BBBC" width="4.712" height="4.712"/>
			<rect x="276.664" y="244.287" clip-path="url(#SVGID_18_)" fill="#00BBBC" width="4.712" height="4.712"/>
			<rect x="286.087" y="244.287" clip-path="url(#SVGID_18_)" fill="#00BBBC" width="4.712" height="4.712"/>
			<rect x="267.24" y="216.015" clip-path="url(#SVGID_18_)" fill="#00BBBC" width="4.712" height="4.712"/>
			<rect x="276.664" y="216.015" clip-path="url(#SVGID_18_)" fill="#00BBBC" width="4.712" height="4.712"/>
			<rect x="286.087" y="216.015" clip-path="url(#SVGID_18_)" fill="#00BBBC" width="4.712" height="4.712"/>
			<rect x="267.24" y="225.438" clip-path="url(#SVGID_18_)" fill="#00BBBC" width="4.712" height="4.712"/>
			<rect x="276.664" y="225.438" clip-path="url(#SVGID_18_)" fill="#00BBBC" width="4.712" height="4.712"/>
			<rect x="286.087" y="225.438" clip-path="url(#SVGID_18_)" fill="#00BBBC" width="4.712" height="4.712"/>
			<rect x="295.511" y="234.862" clip-path="url(#SVGID_18_)" fill="#00BBBC" width="4.713" height="4.712"/>
			<rect x="304.936" y="234.862" clip-path="url(#SVGID_18_)" fill="#00BBBC" width="4.712" height="4.712"/>
			<rect x="314.36" y="234.862" clip-path="url(#SVGID_18_)" fill="#00BBBC" width="4.712" height="4.712"/>
			<rect x="295.511" y="244.287" clip-path="url(#SVGID_18_)" fill="#00BBBC" width="4.713" height="4.712"/>
			<rect x="304.936" y="244.287" clip-path="url(#SVGID_18_)" fill="#00BBBC" width="4.712" height="4.712"/>
			<rect x="314.36" y="244.287" clip-path="url(#SVGID_18_)" fill="#00BBBC" width="4.712" height="4.712"/>
			<rect x="295.511" y="216.015" clip-path="url(#SVGID_18_)" fill="#00BBBC" width="4.713" height="4.712"/>
			<rect x="304.936" y="216.015" clip-path="url(#SVGID_18_)" fill="#00BBBC" width="4.712" height="4.712"/>
			<rect x="314.36" y="216.015" clip-path="url(#SVGID_18_)" fill="#00BBBC" width="4.712" height="4.712"/>
			<rect x="323.784" y="216.015" clip-path="url(#SVGID_18_)" fill="#00BBBC" width="4.712" height="4.712"/>
			<rect x="295.511" y="225.438" clip-path="url(#SVGID_18_)" fill="#00BBBC" width="4.713" height="4.712"/>
			<rect x="304.936" y="225.438" clip-path="url(#SVGID_18_)" fill="#00BBBC" width="4.712" height="4.712"/>
			<rect x="314.36" y="225.438" clip-path="url(#SVGID_18_)" fill="#00BBBC" width="4.712" height="4.712"/>
			<rect x="323.784" y="225.438" clip-path="url(#SVGID_18_)" fill="#00BBBC" width="4.712" height="4.712"/>
		</g>
	</g>
	<polygon fill="#003F5B" points="135.308,304.342 89.905,225.702 135.308,147.061 226.113,147.061 271.516,225.702 226.113,304.342 
			"/>
	<polygon fill="#00BBBC" points="316.335,197.534 330.33,173.293 316.335,149.053 302.338,173.293 	"/>
	<line fill="none" stroke="#F36C42" stroke-width="2" stroke-miterlimit="10" x1="200.265" y1="84.447" x2="222.378" y2="46.629"/>
	
		<line fill="none" stroke="#F36C42" stroke-width="2" stroke-miterlimit="10" x1="185.558" y1="160.723" x2="205.206" y2="127.119"/>
	
		<line fill="none" stroke="#F36C42" stroke-width="2" stroke-miterlimit="10" x1="185.558" y1="176.929" x2="216.566" y2="123.898"/>
</g>
</svg>
