<?xml version="1.0" encoding="utf-8"?>
<!-- Generator: Adobe Illustrator 17.0.0, SVG Export Plug-In . SVG Version: 6.00 Build 0)  -->
<!DOCTYPE svg PUBLIC "-//W3C//DTD SVG 1.1//EN" "http://www.w3.org/Graphics/SVG/1.1/DTD/svg11.dtd">
<svg version="1.1" id="Layer_1" xmlns="http://www.w3.org/2000/svg" xmlns:xlink="http://www.w3.org/1999/xlink" x="0px" y="0px"
	 width="366.991px" height="411.979px" viewBox="0 0 366.991 411.979" enable-background="new 0 0 366.991 411.979"
	 xml:space="preserve">
<g>
	<g>
		<g>
			<defs>
				<polygon id="SVGID_1_" points="108.889,69.229 126.068,98.984 108.889,128.739 74.531,128.739 57.352,98.984 74.531,69.229 				
					"/>
			</defs>
			<clipPath id="SVGID_2_">
				<use xlink:href="#SVGID_1_"  overflow="visible"/>
			</clipPath>
			
				<line clip-path="url(#SVGID_2_)" fill="none" stroke="#00BBBC" stroke-width="2" stroke-miterlimit="10" x1="166.096" y1="92.349" x2="69.69" y2="261.757"/>
			
				<line clip-path="url(#SVGID_2_)" fill="none" stroke="#00BBBC" stroke-width="2" stroke-miterlimit="10" x1="157.817" y1="87.638" x2="61.412" y2="257.046"/>
			
				<line clip-path="url(#SVGID_2_)" fill="none" stroke="#00BBBC" stroke-width="2" stroke-miterlimit="10" x1="149.539" y1="82.927" x2="53.133" y2="252.335"/>
			
				<line clip-path="url(#SVGID_2_)" fill="none" stroke="#00BBBC" stroke-width="2" stroke-miterlimit="10" x1="141.26" y1="78.215" x2="44.854" y2="247.624"/>
			
				<line clip-path="url(#SVGID_2_)" fill="none" stroke="#00BBBC" stroke-width="2" stroke-miterlimit="10" x1="132.981" y1="73.504" x2="36.575" y2="242.912"/>
			
				<line clip-path="url(#SVGID_2_)" fill="none" stroke="#00BBBC" stroke-width="2" stroke-miterlimit="10" x1="199.854" y1="110.065" x2="103.448" y2="279.473"/>
			
				<line clip-path="url(#SVGID_2_)" fill="none" stroke="#00BBBC" stroke-width="2" stroke-miterlimit="10" x1="191.575" y1="105.354" x2="95.17" y2="274.762"/>
			
				<line clip-path="url(#SVGID_2_)" fill="none" stroke="#00BBBC" stroke-width="2" stroke-miterlimit="10" x1="183.296" y1="100.642" x2="86.891" y2="270.05"/>
			
				<line clip-path="url(#SVGID_2_)" fill="none" stroke="#00BBBC" stroke-width="2" stroke-miterlimit="10" x1="175.018" y1="95.931" x2="78.612" y2="265.339"/>
			
				<line clip-path="url(#SVGID_2_)" fill="none" stroke="#00BBBC" stroke-width="2" stroke-miterlimit="10" x1="169.76" y1="95.182" x2="73.354" y2="264.59"/>
			
				<line clip-path="url(#SVGID_2_)" fill="none" stroke="#00BBBC" stroke-width="2" stroke-miterlimit="10" x1="161.481" y1="90.471" x2="65.076" y2="259.878"/>
			
				<line clip-path="url(#SVGID_2_)" fill="none" stroke="#00BBBC" stroke-width="2" stroke-miterlimit="10" x1="153.203" y1="85.759" x2="56.797" y2="255.168"/>
			
				<line clip-path="url(#SVGID_2_)" fill="none" stroke="#00BBBC" stroke-width="2" stroke-miterlimit="10" x1="144.924" y1="81.048" x2="48.519" y2="250.456"/>
			
				<line clip-path="url(#SVGID_2_)" fill="none" stroke="#00BBBC" stroke-width="2" stroke-miterlimit="10" x1="136.645" y1="76.337" x2="40.239" y2="245.745"/>
			
				<line clip-path="url(#SVGID_2_)" fill="none" stroke="#00BBBC" stroke-width="2" stroke-miterlimit="10" x1="203.518" y1="112.898" x2="107.112" y2="282.305"/>
			
				<line clip-path="url(#SVGID_2_)" fill="none" stroke="#00BBBC" stroke-width="2" stroke-miterlimit="10" x1="195.239" y1="108.186" x2="98.833" y2="277.594"/>
			
				<line clip-path="url(#SVGID_2_)" fill="none" stroke="#00BBBC" stroke-width="2" stroke-miterlimit="10" x1="186.96" y1="103.475" x2="90.555" y2="272.883"/>
			
				<line clip-path="url(#SVGID_2_)" fill="none" stroke="#00BBBC" stroke-width="2" stroke-miterlimit="10" x1="178.682" y1="98.764" x2="82.276" y2="268.172"/>
			
				<line clip-path="url(#SVGID_2_)" fill="none" stroke="#00BBBC" stroke-width="2" stroke-miterlimit="10" x1="95.398" y1="53.238" x2="-1.007" y2="222.647"/>
			
				<line clip-path="url(#SVGID_2_)" fill="none" stroke="#00BBBC" stroke-width="2" stroke-miterlimit="10" x1="87.12" y1="48.527" x2="-9.286" y2="217.935"/>
			
				<line clip-path="url(#SVGID_2_)" fill="none" stroke="#00BBBC" stroke-width="2" stroke-miterlimit="10" x1="78.842" y1="43.816" x2="-17.565" y2="213.224"/>
			
				<line clip-path="url(#SVGID_2_)" fill="none" stroke="#00BBBC" stroke-width="2" stroke-miterlimit="10" x1="70.563" y1="39.105" x2="-25.843" y2="208.513"/>
			
				<line clip-path="url(#SVGID_2_)" fill="none" stroke="#00BBBC" stroke-width="2" stroke-miterlimit="10" x1="62.284" y1="34.394" x2="-34.122" y2="203.801"/>
			
				<line clip-path="url(#SVGID_2_)" fill="none" stroke="#00BBBC" stroke-width="2" stroke-miterlimit="10" x1="129.156" y1="70.954" x2="32.751" y2="240.362"/>
			
				<line clip-path="url(#SVGID_2_)" fill="none" stroke="#00BBBC" stroke-width="2" stroke-miterlimit="10" x1="120.878" y1="66.243" x2="24.472" y2="235.65"/>
			
				<line clip-path="url(#SVGID_2_)" fill="none" stroke="#00BBBC" stroke-width="2" stroke-miterlimit="10" x1="112.6" y1="61.531" x2="16.193" y2="230.94"/>
			
				<line clip-path="url(#SVGID_2_)" fill="none" stroke="#00BBBC" stroke-width="2" stroke-miterlimit="10" x1="104.32" y1="56.82" x2="7.914" y2="226.229"/>
			
				<line clip-path="url(#SVGID_2_)" fill="none" stroke="#00BBBC" stroke-width="2" stroke-miterlimit="10" x1="99.063" y1="56.071" x2="2.657" y2="225.479"/>
			
				<line clip-path="url(#SVGID_2_)" fill="none" stroke="#00BBBC" stroke-width="2" stroke-miterlimit="10" x1="90.784" y1="51.36" x2="-5.622" y2="220.768"/>
			
				<line clip-path="url(#SVGID_2_)" fill="none" stroke="#00BBBC" stroke-width="2" stroke-miterlimit="10" x1="82.506" y1="46.648" x2="-13.9" y2="216.057"/>
			
				<line clip-path="url(#SVGID_2_)" fill="none" stroke="#00BBBC" stroke-width="2" stroke-miterlimit="10" x1="74.227" y1="41.938" x2="-22.179" y2="211.345"/>
			
				<line clip-path="url(#SVGID_2_)" fill="none" stroke="#00BBBC" stroke-width="2" stroke-miterlimit="10" x1="65.948" y1="37.226" x2="-30.458" y2="206.634"/>
			
				<line clip-path="url(#SVGID_2_)" fill="none" stroke="#00BBBC" stroke-width="2" stroke-miterlimit="10" x1="124.542" y1="69.075" x2="28.136" y2="238.483"/>
			
				<line clip-path="url(#SVGID_2_)" fill="none" stroke="#00BBBC" stroke-width="2" stroke-miterlimit="10" x1="116.263" y1="64.364" x2="19.857" y2="233.772"/>
			
				<line clip-path="url(#SVGID_2_)" fill="none" stroke="#00BBBC" stroke-width="2" stroke-miterlimit="10" x1="107.984" y1="59.653" x2="11.578" y2="229.061"/>
		</g>
	</g>
	<polygon fill="#F26A57" points="126.068,291.99 186.615,187.12 126.068,82.25 65.521,187.12 	"/>
	<g>
		<g>
			<defs>
				<polygon id="SVGID_3_" points="340.538,82.706 364.164,123.627 340.538,164.548 293.286,164.548 269.661,123.627 
					293.286,82.706 				"/>
			</defs>
			<clipPath id="SVGID_4_">
				<use xlink:href="#SVGID_3_"  overflow="visible"/>
			</clipPath>
			
				<line clip-path="url(#SVGID_4_)" fill="none" stroke="#DCDCE1" stroke-width="2" stroke-miterlimit="10" x1="421.212" y1="117.025" x2="283.458" y2="346.985"/>
			
				<line clip-path="url(#SVGID_4_)" fill="none" stroke="#DCDCE1" stroke-width="2" stroke-miterlimit="10" x1="409.974" y1="110.293" x2="272.22" y2="340.253"/>
			
				<line clip-path="url(#SVGID_4_)" fill="none" stroke="#DCDCE1" stroke-width="2" stroke-miterlimit="10" x1="398.736" y1="103.561" x2="260.982" y2="333.522"/>
			
				<line clip-path="url(#SVGID_4_)" fill="none" stroke="#DCDCE1" stroke-width="2" stroke-miterlimit="10" x1="387.499" y1="96.829" x2="249.745" y2="326.79"/>
			
				<line clip-path="url(#SVGID_4_)" fill="none" stroke="#DCDCE1" stroke-width="2" stroke-miterlimit="10" x1="376.261" y1="90.098" x2="238.507" y2="320.058"/>
			
				<line clip-path="url(#SVGID_4_)" fill="none" stroke="#DCDCE1" stroke-width="2" stroke-miterlimit="10" x1="467.082" y1="142.419" x2="329.328" y2="372.38"/>
			
				<line clip-path="url(#SVGID_4_)" fill="none" stroke="#DCDCE1" stroke-width="2" stroke-miterlimit="10" x1="455.844" y1="135.688" x2="318.09" y2="365.648"/>
			
				<line clip-path="url(#SVGID_4_)" fill="none" stroke="#DCDCE1" stroke-width="2" stroke-miterlimit="10" x1="444.606" y1="128.956" x2="306.852" y2="358.916"/>
			
				<line clip-path="url(#SVGID_4_)" fill="none" stroke="#DCDCE1" stroke-width="2" stroke-miterlimit="10" x1="433.368" y1="122.224" x2="295.614" y2="352.184"/>
			
				<line clip-path="url(#SVGID_4_)" fill="none" stroke="#DCDCE1" stroke-width="2" stroke-miterlimit="10" x1="426.163" y1="121.032" x2="288.409" y2="350.992"/>
			
				<line clip-path="url(#SVGID_4_)" fill="none" stroke="#DCDCE1" stroke-width="2" stroke-miterlimit="10" x1="414.925" y1="114.3" x2="277.171" y2="344.261"/>
			
				<line clip-path="url(#SVGID_4_)" fill="none" stroke="#DCDCE1" stroke-width="2" stroke-miterlimit="10" x1="403.687" y1="107.568" x2="265.933" y2="337.529"/>
			
				<line clip-path="url(#SVGID_4_)" fill="none" stroke="#DCDCE1" stroke-width="2" stroke-miterlimit="10" x1="392.449" y1="100.837" x2="254.695" y2="330.797"/>
			
				<line clip-path="url(#SVGID_4_)" fill="none" stroke="#DCDCE1" stroke-width="2" stroke-miterlimit="10" x1="381.211" y1="94.105" x2="243.457" y2="324.065"/>
			
				<line clip-path="url(#SVGID_4_)" fill="none" stroke="#DCDCE1" stroke-width="2" stroke-miterlimit="10" x1="472.033" y1="146.427" x2="334.278" y2="376.387"/>
			
				<line clip-path="url(#SVGID_4_)" fill="none" stroke="#DCDCE1" stroke-width="2" stroke-miterlimit="10" x1="460.795" y1="139.695" x2="323.04" y2="369.655"/>
			
				<line clip-path="url(#SVGID_4_)" fill="none" stroke="#DCDCE1" stroke-width="2" stroke-miterlimit="10" x1="449.557" y1="132.963" x2="311.803" y2="362.923"/>
			
				<line clip-path="url(#SVGID_4_)" fill="none" stroke="#DCDCE1" stroke-width="2" stroke-miterlimit="10" x1="438.319" y1="126.231" x2="300.565" y2="356.191"/>
			
				<line clip-path="url(#SVGID_4_)" fill="none" stroke="#DCDCE1" stroke-width="2" stroke-miterlimit="10" x1="325.21" y1="61.079" x2="187.456" y2="291.04"/>
			
				<line clip-path="url(#SVGID_4_)" fill="none" stroke="#DCDCE1" stroke-width="2" stroke-miterlimit="10" x1="313.973" y1="54.347" x2="176.219" y2="284.308"/>
			
				<line clip-path="url(#SVGID_4_)" fill="none" stroke="#DCDCE1" stroke-width="2" stroke-miterlimit="10" x1="302.735" y1="47.615" x2="164.981" y2="277.576"/>
			
				<line clip-path="url(#SVGID_4_)" fill="none" stroke="#DCDCE1" stroke-width="2" stroke-miterlimit="10" x1="291.497" y1="40.884" x2="153.743" y2="270.844"/>
			
				<line clip-path="url(#SVGID_4_)" fill="none" stroke="#DCDCE1" stroke-width="2" stroke-miterlimit="10" x1="280.259" y1="34.152" x2="142.505" y2="264.112"/>
			
				<line clip-path="url(#SVGID_4_)" fill="none" stroke="#DCDCE1" stroke-width="2" stroke-miterlimit="10" x1="371.081" y1="86.474" x2="233.326" y2="316.434"/>
			
				<line clip-path="url(#SVGID_4_)" fill="none" stroke="#DCDCE1" stroke-width="2" stroke-miterlimit="10" x1="359.842" y1="79.742" x2="222.088" y2="309.702"/>
			
				<line clip-path="url(#SVGID_4_)" fill="none" stroke="#DCDCE1" stroke-width="2" stroke-miterlimit="10" x1="348.604" y1="73.01" x2="210.851" y2="302.97"/>
			
				<line clip-path="url(#SVGID_4_)" fill="none" stroke="#DCDCE1" stroke-width="2" stroke-miterlimit="10" x1="337.367" y1="66.278" x2="199.613" y2="296.238"/>
			
				<line clip-path="url(#SVGID_4_)" fill="none" stroke="#DCDCE1" stroke-width="2" stroke-miterlimit="10" x1="330.161" y1="65.087" x2="192.407" y2="295.047"/>
			
				<line clip-path="url(#SVGID_4_)" fill="none" stroke="#DCDCE1" stroke-width="2" stroke-miterlimit="10" x1="318.923" y1="58.354" x2="181.169" y2="288.315"/>
			
				<line clip-path="url(#SVGID_4_)" fill="none" stroke="#DCDCE1" stroke-width="2" stroke-miterlimit="10" x1="307.685" y1="51.623" x2="169.932" y2="281.583"/>
			
				<line clip-path="url(#SVGID_4_)" fill="none" stroke="#DCDCE1" stroke-width="2" stroke-miterlimit="10" x1="296.448" y1="44.891" x2="158.694" y2="274.851"/>
			
				<line clip-path="url(#SVGID_4_)" fill="none" stroke="#DCDCE1" stroke-width="2" stroke-miterlimit="10" x1="285.21" y1="38.159" x2="147.456" y2="268.119"/>
			
				<line clip-path="url(#SVGID_4_)" fill="none" stroke="#DCDCE1" stroke-width="2" stroke-miterlimit="10" x1="364.793" y1="83.749" x2="227.039" y2="313.709"/>
			
				<line clip-path="url(#SVGID_4_)" fill="none" stroke="#DCDCE1" stroke-width="2" stroke-miterlimit="10" x1="353.556" y1="77.017" x2="215.801" y2="306.978"/>
			
				<line clip-path="url(#SVGID_4_)" fill="none" stroke="#DCDCE1" stroke-width="2" stroke-miterlimit="10" x1="342.317" y1="70.285" x2="204.564" y2="300.246"/>
		</g>
	</g>
	<polygon fill="#F2A36F" points="306.825,82.409 336.931,134.555 306.825,186.7 246.613,186.7 216.507,134.555 246.613,82.409 	"/>
	<polygon fill="#FEDBBA" points="276.757,134.438 291.821,160.528 276.757,186.62 246.63,186.62 231.566,160.528 246.63,134.438 	
		"/>
	<g>
		<g>
			<defs>
				<polygon id="SVGID_5_" points="216.822,238.685 246.809,290.625 216.822,342.564 156.847,342.564 126.859,290.625 
					156.847,238.685 				"/>
			</defs>
			<clipPath id="SVGID_6_">
				<use xlink:href="#SVGID_5_"  overflow="visible"/>
			</clipPath>
			
				<line clip-path="url(#SVGID_6_)" fill="none" stroke="#F36C42" stroke-width="2" stroke-miterlimit="10" x1="324.149" y1="276.507" x2="148.624" y2="576.688"/>
			
				<line clip-path="url(#SVGID_6_)" fill="none" stroke="#F36C42" stroke-width="2" stroke-miterlimit="10" x1="309.479" y1="267.929" x2="133.954" y2="568.11"/>
			
				<line clip-path="url(#SVGID_6_)" fill="none" stroke="#F36C42" stroke-width="2" stroke-miterlimit="10" x1="294.81" y1="259.352" x2="119.284" y2="559.532"/>
			
				<line clip-path="url(#SVGID_6_)" fill="none" stroke="#F36C42" stroke-width="2" stroke-miterlimit="10" x1="280.141" y1="250.774" x2="104.615" y2="550.955"/>
			
				<line clip-path="url(#SVGID_6_)" fill="none" stroke="#F36C42" stroke-width="2" stroke-miterlimit="10" x1="265.471" y1="242.196" x2="89.945" y2="542.377"/>
			
				<line clip-path="url(#SVGID_6_)" fill="#022169" stroke="#007481" stroke-width="2" stroke-miterlimit="10" x1="383.997" y1="308.816" x2="208.471" y2="608.997"/>
			
				<line clip-path="url(#SVGID_6_)" fill="none" stroke="#F36C42" stroke-width="2" stroke-miterlimit="10" x1="369.328" y1="300.239" x2="193.802" y2="600.42"/>
			
				<line clip-path="url(#SVGID_6_)" fill="none" stroke="#F36C42" stroke-width="2" stroke-miterlimit="10" x1="354.658" y1="291.661" x2="179.132" y2="591.842"/>
			
				<line clip-path="url(#SVGID_6_)" fill="none" stroke="#F36C42" stroke-width="2" stroke-miterlimit="10" x1="339.989" y1="283.084" x2="164.463" y2="583.264"/>
			
				<line clip-path="url(#SVGID_6_)" fill="none" stroke="#F36C42" stroke-width="2" stroke-miterlimit="10" x1="330.625" y1="281.637" x2="155.1" y2="581.817"/>
			
				<line clip-path="url(#SVGID_6_)" fill="none" stroke="#F36C42" stroke-width="2" stroke-miterlimit="10" x1="315.957" y1="273.059" x2="140.431" y2="573.24"/>
			
				<line clip-path="url(#SVGID_6_)" fill="none" stroke="#F36C42" stroke-width="2" stroke-miterlimit="10" x1="301.287" y1="264.482" x2="125.761" y2="564.662"/>
			
				<line clip-path="url(#SVGID_6_)" fill="none" stroke="#F36C42" stroke-width="2" stroke-miterlimit="10" x1="286.617" y1="255.904" x2="111.092" y2="556.085"/>
			
				<line clip-path="url(#SVGID_6_)" fill="none" stroke="#F36C42" stroke-width="2" stroke-miterlimit="10" x1="271.948" y1="247.326" x2="96.422" y2="547.507"/>
			
				<line clip-path="url(#SVGID_6_)" fill="#022169" stroke="#007481" stroke-width="2" stroke-miterlimit="10" x1="390.474" y1="313.946" x2="214.948" y2="614.127"/>
			
				<line clip-path="url(#SVGID_6_)" fill="#022169" stroke="#007481" stroke-width="2" stroke-miterlimit="10" x1="375.804" y1="305.369" x2="200.278" y2="605.55"/>
			
				<line clip-path="url(#SVGID_6_)" fill="none" stroke="#F36C42" stroke-width="2" stroke-miterlimit="10" x1="361.135" y1="296.791" x2="185.609" y2="596.972"/>
			
				<line clip-path="url(#SVGID_6_)" fill="none" stroke="#F36C42" stroke-width="2" stroke-miterlimit="10" x1="346.465" y1="288.213" x2="170.939" y2="588.394"/>
			
				<line clip-path="url(#SVGID_6_)" fill="none" stroke="#F36C42" stroke-width="2" stroke-miterlimit="10" x1="198.854" y1="205.257" x2="23.328" y2="505.438"/>
			
				<line clip-path="url(#SVGID_6_)" fill="none" stroke="#F36C42" stroke-width="2" stroke-miterlimit="10" x1="184.185" y1="196.679" x2="8.659" y2="496.86"/>
			
				<line clip-path="url(#SVGID_6_)" fill="none" stroke="#F36C42" stroke-width="2" stroke-miterlimit="10" x1="169.515" y1="188.102" x2="-6.011" y2="488.282"/>
			
				<line clip-path="url(#SVGID_6_)" fill="none" stroke="#F36C42" stroke-width="2" stroke-miterlimit="10" x1="154.846" y1="179.524" x2="-20.68" y2="479.705"/>
			
				<line clip-path="url(#SVGID_6_)" fill="none" stroke="#F36C42" stroke-width="2" stroke-miterlimit="10" x1="140.176" y1="170.946" x2="-35.35" y2="471.127"/>
			
				<line clip-path="url(#SVGID_6_)" fill="none" stroke="#F36C42" stroke-width="2" stroke-miterlimit="10" x1="258.702" y1="237.566" x2="83.176" y2="537.747"/>
			
				<line clip-path="url(#SVGID_6_)" fill="none" stroke="#F36C42" stroke-width="2" stroke-miterlimit="10" x1="244.033" y1="228.989" x2="68.507" y2="529.169"/>
			
				<line clip-path="url(#SVGID_6_)" fill="none" stroke="#F36C42" stroke-width="2" stroke-miterlimit="10" x1="229.363" y1="220.411" x2="53.838" y2="520.592"/>
			
				<line clip-path="url(#SVGID_6_)" fill="none" stroke="#F36C42" stroke-width="2" stroke-miterlimit="10" x1="214.694" y1="211.834" x2="39.168" y2="512.014"/>
			
				<line clip-path="url(#SVGID_6_)" fill="none" stroke="#F36C42" stroke-width="2" stroke-miterlimit="10" x1="205.331" y1="210.387" x2="29.805" y2="510.567"/>
			
				<line clip-path="url(#SVGID_6_)" fill="none" stroke="#F36C42" stroke-width="2" stroke-miterlimit="10" x1="190.661" y1="201.809" x2="15.136" y2="501.99"/>
			
				<line clip-path="url(#SVGID_6_)" fill="none" stroke="#F36C42" stroke-width="2" stroke-miterlimit="10" x1="175.992" y1="193.232" x2="0.466" y2="493.412"/>
			
				<line clip-path="url(#SVGID_6_)" fill="none" stroke="#F36C42" stroke-width="2" stroke-miterlimit="10" x1="161.322" y1="184.653" x2="-14.203" y2="484.835"/>
			
				<line clip-path="url(#SVGID_6_)" fill="none" stroke="#F36C42" stroke-width="2" stroke-miterlimit="10" x1="146.653" y1="176.076" x2="-28.873" y2="476.257"/>
			
				<line clip-path="url(#SVGID_6_)" fill="none" stroke="#F36C42" stroke-width="2" stroke-miterlimit="10" x1="250.509" y1="234.119" x2="74.983" y2="534.299"/>
			
				<line clip-path="url(#SVGID_6_)" fill="none" stroke="#F36C42" stroke-width="2" stroke-miterlimit="10" x1="235.84" y1="225.541" x2="60.314" y2="525.722"/>
			
				<line clip-path="url(#SVGID_6_)" fill="none" stroke="#F36C42" stroke-width="2" stroke-miterlimit="10" x1="221.17" y1="216.963" x2="45.645" y2="517.144"/>
		</g>
	</g>
	<polygon fill="#DCDCE1" points="36.661,238.685 66.919,186.277 36.661,133.869 6.403,186.277 	"/>
	<polygon fill="#DCDCE1" points="96.266,133.869 126.068,82.25 66.464,82.25 	"/>
	<polygon fill="#F26A57" points="66.464,82.25 96.266,133.869 36.661,133.869 	"/>
	<polygon fill="#F26A57" points="18.331,102.12 36.661,133.869 0,133.869 	"/>
	<polygon fill="#F2A36F" points="96.878,343.017 109.771,365.35 83.984,365.35 	"/>
	<polygon fill="#DCDCE1" points="306.825,186.54 336.931,238.685 306.825,290.83 246.613,290.83 216.507,238.685 246.613,186.54 	
		"/>
	<polygon fill="#E7555D" points="216.386,30.105 246.492,82.25 216.386,134.395 156.174,134.395 126.068,82.25 156.174,30.105 	"/>
	<polygon fill="#E7555D" points="81.522,56.171 89.051,69.21 81.522,82.25 66.466,82.25 58.938,69.21 66.466,56.171 	"/>
	<polygon fill="#00BBBC" points="336.931,238.685 366.991,186.62 336.931,134.555 306.871,186.62 	"/>
	<polygon fill="#F26A57" points="329.247,173.701 336.705,186.62 329.247,199.538 314.329,199.538 306.871,186.62 314.329,173.701 	
		"/>
	<polygon fill="#003F5B" points="269.296,43.515 284.269,69.449 269.296,95.384 239.35,95.384 224.376,69.449 239.35,43.515 	"/>
	<polygon fill="#F2A36F" points="306.818,238.47 314.365,251.56 306.807,264.65 291.807,264.65 284.269,251.56 291.807,238.47 	"/>
	<polygon fill="#F2A36F" points="284.269,277.74 291.815,290.83 284.258,303.92 269.258,303.92 261.72,290.83 269.258,277.74 	"/>
	<polygon fill="#E7555D" points="306.818,264.65 314.365,277.74 306.807,290.83 291.807,290.83 284.269,277.74 291.807,264.65 	"/>
	<polygon fill="#DCDCE1" points="186.848,342.296 201.705,316.563 186.848,290.83 171.991,316.563 	"/>
	<polygon fill="#F2A36F" points="231.684,3.381 216.28,30.062 231.684,56.743 247.088,30.062 	"/>
	<polygon fill="#F26A57" points="96.875,343.017 81.811,316.923 96.875,290.83 127.006,290.83 142.071,316.923 127.006,343.017 	"/>
	<polygon fill="#E7555D" points="227.074,342.295 247.19,377.137 227.074,411.979 186.842,411.979 166.726,377.137 186.842,342.295 
			"/>
	<g>
		<g>
			<defs>
				<polygon id="SVGID_7_" points="81.669,264.921 96.681,290.922 81.669,316.923 51.646,316.923 36.634,290.922 51.646,264.921 
									"/>
			</defs>
			<clipPath id="SVGID_8_">
				<use xlink:href="#SVGID_7_"  overflow="visible"/>
			</clipPath>
			<polygon clip-path="url(#SVGID_8_)" fill="#EF3D49" points="103.44,265.021 96.769,265.021 100.104,270.776 			"/>
			<polygon clip-path="url(#SVGID_8_)" fill="#EF3D49" points="90.098,265.021 83.426,265.021 86.762,270.776 			"/>
			<polygon clip-path="url(#SVGID_8_)" fill="#EF3D49" points="76.956,265.021 70.285,265.021 73.621,270.776 			"/>
			<polygon clip-path="url(#SVGID_8_)" fill="#EF3D49" points="63.613,265.021 56.942,265.021 60.277,270.776 			"/>
			<polygon clip-path="url(#SVGID_8_)" fill="#EF3D49" points="50.271,265.021 43.6,265.021 46.935,270.776 			"/>
			<polygon clip-path="url(#SVGID_8_)" fill="#EF3D49" points="36.928,265.021 30.256,265.021 33.592,270.776 			"/>
			<polygon clip-path="url(#SVGID_8_)" fill="#EF3D49" points="23.787,265.021 17.115,265.021 20.451,270.776 			"/>
			<polygon clip-path="url(#SVGID_8_)" fill="#EF3D49" points="10.443,265.021 3.772,265.021 7.108,270.776 			"/>
			<polygon clip-path="url(#SVGID_8_)" fill="#EF3D49" points="103.44,276.532 96.769,276.532 100.104,282.288 			"/>
			<polygon clip-path="url(#SVGID_8_)" fill="#EF3D49" points="90.098,276.532 83.426,276.532 86.762,282.288 			"/>
			<polygon clip-path="url(#SVGID_8_)" fill="#EF3D49" points="76.956,276.532 70.285,276.532 73.621,282.288 			"/>
			<polygon clip-path="url(#SVGID_8_)" fill="#EF3D49" points="63.613,276.532 56.942,276.532 60.277,282.288 			"/>
			<polygon clip-path="url(#SVGID_8_)" fill="#EF3D49" points="50.271,276.532 43.6,276.532 46.935,282.288 			"/>
			<polygon clip-path="url(#SVGID_8_)" fill="#EF3D49" points="36.928,276.532 30.256,276.532 33.592,282.288 			"/>
			<polygon clip-path="url(#SVGID_8_)" fill="#EF3D49" points="23.787,276.532 17.115,276.532 20.451,282.288 			"/>
			<polygon clip-path="url(#SVGID_8_)" fill="#EF3D49" points="10.443,276.532 3.772,276.532 7.108,282.288 			"/>
			<polygon clip-path="url(#SVGID_8_)" fill="#EF3D49" points="103.44,288.045 96.769,288.045 100.104,293.8 			"/>
			<polygon clip-path="url(#SVGID_8_)" fill="#EF3D49" points="90.098,288.045 83.426,288.045 86.762,293.8 			"/>
			<polygon clip-path="url(#SVGID_8_)" fill="#EF3D49" points="76.956,288.045 70.285,288.045 73.62,293.8 			"/>
			<polygon clip-path="url(#SVGID_8_)" fill="#EF3D49" points="63.613,288.045 56.942,288.045 60.277,293.8 			"/>
			<polygon clip-path="url(#SVGID_8_)" fill="#EF3D49" points="50.271,288.045 43.6,288.045 46.935,293.8 			"/>
			<polygon clip-path="url(#SVGID_8_)" fill="#EF3D49" points="36.928,288.045 30.256,288.045 33.592,293.8 			"/>
			<polygon clip-path="url(#SVGID_8_)" fill="#EF3D49" points="23.787,288.045 17.115,288.045 20.451,293.8 			"/>
			<polygon clip-path="url(#SVGID_8_)" fill="#EF3D49" points="10.443,288.045 3.772,288.045 7.108,293.8 			"/>
			<polygon clip-path="url(#SVGID_8_)" fill="#EF3D49" points="103.44,299.557 96.769,299.557 100.104,305.313 			"/>
			<polygon clip-path="url(#SVGID_8_)" fill="#EF3D49" points="90.098,299.557 83.426,299.557 86.762,305.313 			"/>
			<polygon clip-path="url(#SVGID_8_)" fill="#EF3D49" points="76.956,299.557 70.285,299.557 73.621,305.313 			"/>
			<polygon clip-path="url(#SVGID_8_)" fill="#EF3D49" points="63.613,299.557 56.942,299.557 60.277,305.313 			"/>
			<polygon clip-path="url(#SVGID_8_)" fill="#EF3D49" points="50.271,299.557 43.6,299.557 46.935,305.313 			"/>
			<polygon clip-path="url(#SVGID_8_)" fill="#EF3D49" points="36.928,299.557 30.256,299.557 33.592,305.313 			"/>
			<polygon clip-path="url(#SVGID_8_)" fill="#EF3D49" points="23.787,299.557 17.115,299.557 20.451,305.313 			"/>
			<polygon clip-path="url(#SVGID_8_)" fill="#EF3D49" points="10.443,299.557 3.772,299.557 7.108,305.313 			"/>
			<polygon clip-path="url(#SVGID_8_)" fill="#EF3D49" points="103.44,311.068 96.769,311.068 100.104,316.824 			"/>
			<polygon clip-path="url(#SVGID_8_)" fill="#EF3D49" points="90.098,311.068 83.426,311.068 86.762,316.824 			"/>
			<polygon clip-path="url(#SVGID_8_)" fill="#EF3D49" points="76.956,311.068 70.285,311.068 73.621,316.824 			"/>
			<polygon clip-path="url(#SVGID_8_)" fill="#EF3D49" points="63.613,311.068 56.942,311.068 60.277,316.824 			"/>
			<polygon clip-path="url(#SVGID_8_)" fill="#EF3D49" points="50.271,311.068 43.6,311.068 46.935,316.824 			"/>
			<polygon clip-path="url(#SVGID_8_)" fill="#EF3D49" points="36.928,311.068 30.256,311.068 33.592,316.824 			"/>
			<polygon clip-path="url(#SVGID_8_)" fill="#EF3D49" points="23.787,311.068 17.115,311.068 20.451,316.824 			"/>
			<polygon clip-path="url(#SVGID_8_)" fill="#EF3D49" points="10.443,311.068 3.772,311.068 7.108,316.824 			"/>
			<polygon clip-path="url(#SVGID_8_)" fill="#EF3D49" points="103.44,322.58 96.769,322.58 100.104,328.336 			"/>
			<polygon clip-path="url(#SVGID_8_)" fill="#EF3D49" points="90.098,322.58 83.426,322.58 86.762,328.336 			"/>
			<polygon clip-path="url(#SVGID_8_)" fill="#EF3D49" points="76.956,322.58 70.285,322.58 73.62,328.336 			"/>
			<polygon clip-path="url(#SVGID_8_)" fill="#EF3D49" points="63.613,322.58 56.942,322.58 60.277,328.336 			"/>
			<polygon clip-path="url(#SVGID_8_)" fill="#EF3D49" points="50.271,322.58 43.6,322.58 46.935,328.336 			"/>
			<polygon clip-path="url(#SVGID_8_)" fill="#EF3D49" points="36.928,322.58 30.256,322.58 33.592,328.336 			"/>
			<polygon clip-path="url(#SVGID_8_)" fill="#EF3D49" points="23.787,322.58 17.115,322.58 20.451,328.336 			"/>
			<polygon clip-path="url(#SVGID_8_)" fill="#EF3D49" points="10.443,322.58 3.772,322.58 7.108,328.336 			"/>
			<polygon clip-path="url(#SVGID_8_)" fill="#EF3D49" points="103.44,334.092 96.769,334.092 100.104,339.848 			"/>
			<polygon clip-path="url(#SVGID_8_)" fill="#EF3D49" points="90.098,334.092 83.426,334.092 86.762,339.848 			"/>
			<polygon clip-path="url(#SVGID_8_)" fill="#EF3D49" points="76.956,334.092 70.285,334.092 73.621,339.848 			"/>
			<polygon clip-path="url(#SVGID_8_)" fill="#EF3D49" points="63.613,334.092 56.942,334.092 60.277,339.848 			"/>
			<polygon clip-path="url(#SVGID_8_)" fill="#EF3D49" points="50.271,334.092 43.6,334.092 46.935,339.848 			"/>
			<polygon clip-path="url(#SVGID_8_)" fill="#EF3D49" points="36.928,334.092 30.256,334.092 33.592,339.848 			"/>
			<polygon clip-path="url(#SVGID_8_)" fill="#EF3D49" points="23.787,334.092 17.115,334.092 20.451,339.848 			"/>
			<polygon clip-path="url(#SVGID_8_)" fill="#EF3D49" points="10.443,334.092 3.772,334.092 7.108,339.848 			"/>
			<polygon clip-path="url(#SVGID_8_)" fill="#EF3D49" points="103.44,345.605 96.769,345.605 100.104,351.36 			"/>
			<polygon clip-path="url(#SVGID_8_)" fill="#EF3D49" points="90.098,345.605 83.426,345.605 86.762,351.36 			"/>
			<polygon clip-path="url(#SVGID_8_)" fill="#EF3D49" points="76.956,345.605 70.285,345.605 73.621,351.36 			"/>
			<polygon clip-path="url(#SVGID_8_)" fill="#EF3D49" points="63.613,345.605 56.942,345.605 60.277,351.36 			"/>
			<polygon clip-path="url(#SVGID_8_)" fill="#EF3D49" points="50.271,345.605 43.6,345.605 46.935,351.36 			"/>
			<polygon clip-path="url(#SVGID_8_)" fill="#EF3D49" points="36.928,345.605 30.256,345.605 33.592,351.36 			"/>
			<polygon clip-path="url(#SVGID_8_)" fill="#EF3D49" points="23.787,345.605 17.115,345.605 20.451,351.36 			"/>
			<polygon clip-path="url(#SVGID_8_)" fill="#EF3D49" points="10.443,345.605 3.772,345.605 7.108,351.36 			"/>
			<polygon clip-path="url(#SVGID_8_)" fill="#EF3D49" points="103.44,357.116 96.769,357.116 100.104,362.872 			"/>
			<polygon clip-path="url(#SVGID_8_)" fill="#EF3D49" points="90.098,357.116 83.426,357.116 86.762,362.872 			"/>
			<polygon clip-path="url(#SVGID_8_)" fill="#EF3D49" points="76.956,357.116 70.285,357.116 73.621,362.872 			"/>
			<polygon clip-path="url(#SVGID_8_)" fill="#EF3D49" points="63.613,357.116 56.942,357.116 60.277,362.872 			"/>
			<polygon clip-path="url(#SVGID_8_)" fill="#EF3D49" points="50.271,357.116 43.6,357.116 46.935,362.872 			"/>
			<polygon clip-path="url(#SVGID_8_)" fill="#EF3D49" points="36.928,357.116 30.256,357.116 33.592,362.872 			"/>
			<polygon clip-path="url(#SVGID_8_)" fill="#EF3D49" points="23.787,357.116 17.115,357.116 20.451,362.872 			"/>
			<polygon clip-path="url(#SVGID_8_)" fill="#EF3D49" points="10.443,357.116 3.772,357.116 7.108,362.872 			"/>
			<polygon clip-path="url(#SVGID_8_)" fill="#EF3D49" points="103.44,368.628 96.769,368.628 100.104,374.384 			"/>
			<polygon clip-path="url(#SVGID_8_)" fill="#EF3D49" points="90.098,368.628 83.426,368.628 86.762,374.384 			"/>
			<polygon clip-path="url(#SVGID_8_)" fill="#EF3D49" points="76.956,368.628 70.285,368.628 73.621,374.384 			"/>
			<polygon clip-path="url(#SVGID_8_)" fill="#EF3D49" points="63.613,368.628 56.942,368.628 60.277,374.384 			"/>
			<polygon clip-path="url(#SVGID_8_)" fill="#EF3D49" points="50.271,368.628 43.6,368.628 46.935,374.384 			"/>
			<polygon clip-path="url(#SVGID_8_)" fill="#EF3D49" points="36.928,368.628 30.256,368.628 33.592,374.384 			"/>
			<polygon clip-path="url(#SVGID_8_)" fill="#EF3D49" points="23.787,368.628 17.115,368.628 20.451,374.384 			"/>
			<polygon clip-path="url(#SVGID_8_)" fill="#EF3D49" points="10.443,368.628 3.772,368.628 7.108,374.384 			"/>
			<polygon clip-path="url(#SVGID_8_)" fill="#EF3D49" points="103.44,380.14 96.769,380.14 100.104,385.896 			"/>
			<polygon clip-path="url(#SVGID_8_)" fill="#EF3D49" points="90.098,380.14 83.426,380.14 86.762,385.896 			"/>
			<polygon clip-path="url(#SVGID_8_)" fill="#EF3D49" points="76.956,380.14 70.285,380.14 73.621,385.896 			"/>
			<polygon clip-path="url(#SVGID_8_)" fill="#EF3D49" points="63.613,380.14 56.942,380.14 60.277,385.896 			"/>
			<polygon clip-path="url(#SVGID_8_)" fill="#EF3D49" points="50.271,380.14 43.6,380.14 46.935,385.896 			"/>
			<polygon clip-path="url(#SVGID_8_)" fill="#EF3D49" points="36.928,380.14 30.256,380.14 33.592,385.896 			"/>
			<polygon clip-path="url(#SVGID_8_)" fill="#EF3D49" points="23.787,380.14 17.115,380.14 20.451,385.896 			"/>
			<polygon clip-path="url(#SVGID_8_)" fill="#EF3D49" points="10.443,380.14 3.772,380.14 7.108,385.896 			"/>
		</g>
	</g>
	<g>
		<defs>
			<polygon id="SVGID_9_" points="306.667,30.716 321.518,56.44 306.667,82.164 276.963,82.164 262.112,56.44 276.963,30.716 			"/>
		</defs>
		<clipPath id="SVGID_10_">
			<use xlink:href="#SVGID_9_"  overflow="visible"/>
		</clipPath>
		<polygon clip-path="url(#SVGID_10_)" fill="#FEDBBA" points="303.292,30.716 298.701,30.716 300.997,34.677 		"/>
		<polygon clip-path="url(#SVGID_10_)" fill="#FEDBBA" points="294.11,30.716 289.52,30.716 291.815,34.677 		"/>
		<polygon clip-path="url(#SVGID_10_)" fill="#FEDBBA" points="284.929,30.716 280.339,30.716 282.634,34.677 		"/>
		<polygon clip-path="url(#SVGID_10_)" fill="#FEDBBA" points="312.334,38.638 307.744,38.638 310.039,42.599 		"/>
		<polygon clip-path="url(#SVGID_10_)" fill="#FEDBBA" points="303.292,38.638 298.701,38.638 300.997,42.599 		"/>
		<polygon clip-path="url(#SVGID_10_)" fill="#FEDBBA" points="294.11,38.638 289.52,38.638 291.815,42.599 		"/>
		<polygon clip-path="url(#SVGID_10_)" fill="#FEDBBA" points="284.929,38.638 280.339,38.638 282.634,42.599 		"/>
		<polygon clip-path="url(#SVGID_10_)" fill="#FEDBBA" points="275.748,38.638 271.157,38.638 273.453,42.599 		"/>
		<polygon clip-path="url(#SVGID_10_)" fill="#FEDBBA" points="321.515,46.559 316.925,46.559 319.22,50.52 		"/>
		<polygon clip-path="url(#SVGID_10_)" fill="#FEDBBA" points="312.334,46.559 307.744,46.559 310.039,50.52 		"/>
		<polygon clip-path="url(#SVGID_10_)" fill="#FEDBBA" points="303.292,46.559 298.701,46.559 300.997,50.52 		"/>
		<polygon clip-path="url(#SVGID_10_)" fill="#FEDBBA" points="294.11,46.559 289.52,46.559 291.815,50.52 		"/>
		<polygon clip-path="url(#SVGID_10_)" fill="#FEDBBA" points="284.929,46.559 280.339,46.559 282.634,50.52 		"/>
		<polygon clip-path="url(#SVGID_10_)" fill="#FEDBBA" points="275.748,46.559 271.157,46.559 273.453,50.52 		"/>
		<polygon clip-path="url(#SVGID_10_)" fill="#FEDBBA" points="266.706,46.559 262.115,46.559 264.411,50.52 		"/>
		<polygon clip-path="url(#SVGID_10_)" fill="#FEDBBA" points="321.515,54.48 316.925,54.48 319.22,58.441 		"/>
		<polygon clip-path="url(#SVGID_10_)" fill="#FEDBBA" points="312.334,54.48 307.744,54.48 310.039,58.441 		"/>
		<polygon clip-path="url(#SVGID_10_)" fill="#FEDBBA" points="303.292,54.48 298.701,54.48 300.997,58.441 		"/>
		<polygon clip-path="url(#SVGID_10_)" fill="#FEDBBA" points="294.11,54.48 289.52,54.48 291.815,58.441 		"/>
		<polygon clip-path="url(#SVGID_10_)" fill="#FEDBBA" points="284.929,54.48 280.339,54.48 282.634,58.441 		"/>
		<polygon clip-path="url(#SVGID_10_)" fill="#FEDBBA" points="275.748,54.48 271.157,54.48 273.453,58.441 		"/>
		<polygon clip-path="url(#SVGID_10_)" fill="#FEDBBA" points="266.706,54.48 262.115,54.48 264.411,58.441 		"/>
		<polygon clip-path="url(#SVGID_10_)" fill="#FEDBBA" points="321.515,62.402 316.925,62.402 319.22,66.363 		"/>
		<polygon clip-path="url(#SVGID_10_)" fill="#FEDBBA" points="312.334,62.402 307.744,62.402 310.039,66.363 		"/>
		<polygon clip-path="url(#SVGID_10_)" fill="#FEDBBA" points="303.292,62.402 298.701,62.402 300.997,66.363 		"/>
		<polygon clip-path="url(#SVGID_10_)" fill="#FEDBBA" points="294.11,62.402 289.52,62.402 291.815,66.363 		"/>
		<polygon clip-path="url(#SVGID_10_)" fill="#FEDBBA" points="284.929,62.402 280.339,62.402 282.634,66.363 		"/>
		<polygon clip-path="url(#SVGID_10_)" fill="#FEDBBA" points="275.748,62.402 271.157,62.402 273.453,66.363 		"/>
		<polygon clip-path="url(#SVGID_10_)" fill="#FEDBBA" points="266.706,62.402 262.115,62.402 264.411,66.363 		"/>
		<polygon clip-path="url(#SVGID_10_)" fill="#FEDBBA" points="312.334,70.323 307.744,70.323 310.039,74.284 		"/>
		<polygon clip-path="url(#SVGID_10_)" fill="#FEDBBA" points="303.292,70.323 298.701,70.323 300.997,74.284 		"/>
		<polygon clip-path="url(#SVGID_10_)" fill="#FEDBBA" points="294.11,70.323 289.52,70.323 291.815,74.284 		"/>
		<polygon clip-path="url(#SVGID_10_)" fill="#FEDBBA" points="284.929,70.323 280.339,70.323 282.634,74.284 		"/>
		<polygon clip-path="url(#SVGID_10_)" fill="#FEDBBA" points="275.748,70.323 271.157,70.323 273.453,74.284 		"/>
		<polygon clip-path="url(#SVGID_10_)" fill="#FEDBBA" points="312.334,78.245 307.744,78.245 310.039,82.205 		"/>
		<polygon clip-path="url(#SVGID_10_)" fill="#FEDBBA" points="303.292,78.245 298.701,78.245 300.997,82.205 		"/>
		<polygon clip-path="url(#SVGID_10_)" fill="#FEDBBA" points="294.11,78.245 289.52,78.245 291.815,82.205 		"/>
		<polygon clip-path="url(#SVGID_10_)" fill="#FEDBBA" points="284.929,78.245 280.339,78.245 282.634,82.205 		"/>
		<polygon clip-path="url(#SVGID_10_)" fill="#FEDBBA" points="275.748,78.245 271.157,78.245 273.453,82.205 		"/>
	</g>
	<g>
		<g>
			<defs>
				<polygon id="SVGID_11_" points="173.54,0 197.27,41.102 173.54,82.204 126.08,82.204 102.35,41.102 126.08,0 				"/>
			</defs>
			<clipPath id="SVGID_12_">
				<use xlink:href="#SVGID_11_"  overflow="visible"/>
			</clipPath>
			<polygon clip-path="url(#SVGID_12_)" fill="#00BBBC" points="166.117,0 155.417,0 160.767,9.231 			"/>
			<polygon clip-path="url(#SVGID_12_)" fill="#00BBBC" points="144.717,0 134.018,0 139.367,9.231 			"/>
			<polygon clip-path="url(#SVGID_12_)" fill="#00BBBC" points="187.516,18.463 176.816,18.463 182.167,27.695 			"/>
			<polygon clip-path="url(#SVGID_12_)" fill="#00BBBC" points="166.117,18.463 155.417,18.463 160.767,27.695 			"/>
			<polygon clip-path="url(#SVGID_12_)" fill="#00BBBC" points="144.717,18.463 134.018,18.463 139.367,27.695 			"/>
			<polygon clip-path="url(#SVGID_12_)" fill="#00BBBC" points="123.317,18.463 112.618,18.463 117.968,27.695 			"/>
			<polygon clip-path="url(#SVGID_12_)" fill="#00BBBC" points="187.516,36.926 176.816,36.926 182.167,46.158 			"/>
			<polygon clip-path="url(#SVGID_12_)" fill="#00BBBC" points="166.117,36.926 155.417,36.926 160.767,46.158 			"/>
			<polygon clip-path="url(#SVGID_12_)" fill="#00BBBC" points="144.717,36.926 134.018,36.926 139.367,46.158 			"/>
			<polygon clip-path="url(#SVGID_12_)" fill="#00BBBC" points="123.317,36.926 112.618,36.926 117.968,46.158 			"/>
			<polygon clip-path="url(#SVGID_12_)" fill="#00BBBC" points="187.516,55.389 176.816,55.389 182.167,64.621 			"/>
			<polygon clip-path="url(#SVGID_12_)" fill="#00BBBC" points="166.117,55.389 155.417,55.389 160.767,64.621 			"/>
			<polygon clip-path="url(#SVGID_12_)" fill="#00BBBC" points="144.717,55.389 134.018,55.389 139.367,64.621 			"/>
			<polygon clip-path="url(#SVGID_12_)" fill="#00BBBC" points="123.317,55.389 112.618,55.389 117.968,64.621 			"/>
			<polygon clip-path="url(#SVGID_12_)" fill="#00BBBC" points="187.516,73.853 176.816,73.853 182.167,83.084 			"/>
			<polygon clip-path="url(#SVGID_12_)" fill="#00BBBC" points="166.117,73.853 155.417,73.853 160.767,83.084 			"/>
			<polygon clip-path="url(#SVGID_12_)" fill="#00BBBC" points="144.717,73.853 134.018,73.853 139.367,83.084 			"/>
			<polygon clip-path="url(#SVGID_12_)" fill="#00BBBC" points="123.317,73.853 112.618,73.853 117.968,83.084 			"/>
		</g>
	</g>
	<g>
		<defs>
			<polygon id="SVGID_13_" points="274.567,290.689 303.997,341.662 274.567,392.635 215.709,392.635 186.28,341.662 
				215.709,290.689 			"/>
		</defs>
		<clipPath id="SVGID_14_">
			<use xlink:href="#SVGID_13_"  overflow="visible"/>
		</clipPath>
		<polygon clip-path="url(#SVGID_14_)" fill="#DCDCE1" points="267.879,290.689 258.783,290.689 263.332,298.537 		"/>
		<polygon clip-path="url(#SVGID_14_)" fill="#DCDCE1" points="249.686,290.689 240.59,290.689 245.139,298.537 		"/>
		<polygon clip-path="url(#SVGID_14_)" fill="#DCDCE1" points="231.494,290.689 222.397,290.689 226.945,298.537 		"/>
		<polygon clip-path="url(#SVGID_14_)" fill="#DCDCE1" points="285.797,306.386 276.701,306.386 281.249,314.234 		"/>
		<polygon clip-path="url(#SVGID_14_)" fill="#DCDCE1" points="267.879,306.386 258.783,306.386 263.332,314.234 		"/>
		<polygon clip-path="url(#SVGID_14_)" fill="#DCDCE1" points="249.686,306.386 240.59,306.386 245.139,314.234 		"/>
		<polygon clip-path="url(#SVGID_14_)" fill="#DCDCE1" points="231.494,306.386 222.397,306.386 226.945,314.234 		"/>
		<polygon clip-path="url(#SVGID_14_)" fill="#DCDCE1" points="213.301,306.386 204.204,306.386 208.752,314.234 		"/>
		<polygon clip-path="url(#SVGID_14_)" fill="#DCDCE1" points="303.99,322.082 294.894,322.082 299.442,329.93 		"/>
		<polygon clip-path="url(#SVGID_14_)" fill="#DCDCE1" points="285.797,322.082 276.701,322.082 281.249,329.93 		"/>
		<polygon clip-path="url(#SVGID_14_)" fill="#DCDCE1" points="267.879,322.082 258.783,322.082 263.332,329.93 		"/>
		<polygon clip-path="url(#SVGID_14_)" fill="#DCDCE1" points="249.686,322.082 240.59,322.082 245.139,329.93 		"/>
		<polygon clip-path="url(#SVGID_14_)" fill="#DCDCE1" points="231.494,322.082 222.397,322.082 226.945,329.93 		"/>
		<polygon clip-path="url(#SVGID_14_)" fill="#DCDCE1" points="213.301,322.082 204.204,322.082 208.752,329.93 		"/>
		<polygon clip-path="url(#SVGID_14_)" fill="#DCDCE1" points="195.383,322.082 186.287,322.082 190.835,329.93 		"/>
		<polygon clip-path="url(#SVGID_14_)" fill="#DCDCE1" points="303.99,337.778 294.894,337.778 299.442,345.627 		"/>
		<polygon clip-path="url(#SVGID_14_)" fill="#DCDCE1" points="285.797,337.778 276.701,337.778 281.249,345.627 		"/>
		<polygon clip-path="url(#SVGID_14_)" fill="#DCDCE1" points="267.879,337.778 258.783,337.778 263.332,345.627 		"/>
		<polygon clip-path="url(#SVGID_14_)" fill="#DCDCE1" points="249.686,335.119 240.59,335.119 245.139,345.101 		"/>
		<polygon clip-path="url(#SVGID_14_)" fill="#DCDCE1" points="231.494,337.778 222.397,337.778 226.945,345.627 		"/>
		<polygon clip-path="url(#SVGID_14_)" fill="#DCDCE1" points="213.301,337.778 204.204,337.778 208.752,345.627 		"/>
		<polygon clip-path="url(#SVGID_14_)" fill="#DCDCE1" points="195.383,337.778 186.287,337.778 190.835,345.627 		"/>
		<polygon clip-path="url(#SVGID_14_)" fill="#DCDCE1" points="303.99,353.475 294.894,353.475 299.442,361.323 		"/>
		<polygon clip-path="url(#SVGID_14_)" fill="#DCDCE1" points="285.797,353.475 276.701,353.475 281.249,361.323 		"/>
		<polygon clip-path="url(#SVGID_14_)" fill="#DCDCE1" points="267.879,353.475 258.783,353.475 263.332,361.323 		"/>
		<polygon clip-path="url(#SVGID_14_)" fill="#DCDCE1" points="249.686,353.475 240.59,353.475 245.139,361.323 		"/>
		<polygon clip-path="url(#SVGID_14_)" fill="#DCDCE1" points="231.494,353.475 222.397,353.475 226.945,361.323 		"/>
		<polygon clip-path="url(#SVGID_14_)" fill="#DCDCE1" points="213.301,353.475 204.204,353.475 208.752,361.323 		"/>
		<polygon clip-path="url(#SVGID_14_)" fill="#DCDCE1" points="195.383,353.475 186.287,353.475 190.835,361.323 		"/>
		<polygon clip-path="url(#SVGID_14_)" fill="#DCDCE1" points="285.797,369.172 276.701,369.172 281.249,377.02 		"/>
		<polygon clip-path="url(#SVGID_14_)" fill="#DCDCE1" points="267.879,369.172 258.783,369.172 263.332,377.02 		"/>
		<polygon clip-path="url(#SVGID_14_)" fill="#DCDCE1" points="249.686,369.172 240.59,369.172 245.139,377.02 		"/>
		<polygon clip-path="url(#SVGID_14_)" fill="#DCDCE1" points="231.494,369.172 222.397,369.172 226.945,377.02 		"/>
		<polygon clip-path="url(#SVGID_14_)" fill="#DCDCE1" points="213.301,369.172 204.204,369.172 208.752,377.02 		"/>
		<polygon clip-path="url(#SVGID_14_)" fill="#DCDCE1" points="285.797,384.868 276.701,384.868 281.249,392.716 		"/>
		<polygon clip-path="url(#SVGID_14_)" fill="#DCDCE1" points="267.879,384.868 258.783,384.868 263.332,392.716 		"/>
		<polygon clip-path="url(#SVGID_14_)" fill="#DCDCE1" points="249.686,384.868 240.59,384.868 245.139,392.716 		"/>
		<polygon clip-path="url(#SVGID_14_)" fill="#DCDCE1" points="231.494,384.868 222.397,384.868 226.945,392.716 		"/>
		<polygon clip-path="url(#SVGID_14_)" fill="#DCDCE1" points="213.301,384.868 204.204,384.868 208.752,392.716 		"/>
	</g>
	<polygon fill="#00BBBC" points="231.678,264.947 246.622,290.83 231.678,316.713 201.792,316.713 186.848,290.83 201.792,264.947 	
		"/>
	<polygon fill="#F2A36F" points="126.979,186.54 157.085,238.685 126.979,290.83 66.767,290.83 36.661,238.685 66.767,186.54 	"/>
	<polygon fill="#00BBBC" points="111.691,290.83 104.052,277.597 111.691,264.363 126.972,264.363 134.612,277.597 126.972,290.83 	
		"/>
	<g>
		<g>
			<defs>
				<polygon id="SVGID_15_" points="276.753,134.43 306.885,186.62 276.753,238.81 216.49,238.81 186.358,186.62 216.49,134.43 				
					"/>
			</defs>
			<clipPath id="SVGID_16_">
				<use xlink:href="#SVGID_15_"  overflow="visible"/>
			</clipPath>
			
				<line clip-path="url(#SVGID_16_)" fill="#022169" stroke="#022169" stroke-width="4" stroke-miterlimit="10" x1="472.711" y1="203.244" x2="131.051" y2="203.244"/>
			
				<line clip-path="url(#SVGID_16_)" fill="#022169" stroke="#022169" stroke-width="4" stroke-miterlimit="10" x1="472.711" y1="186.547" x2="131.051" y2="186.547"/>
			
				<line clip-path="url(#SVGID_16_)" fill="#022169" stroke="#022169" stroke-width="4" stroke-miterlimit="10" x1="472.711" y1="169.851" x2="131.051" y2="169.851"/>
			
				<line clip-path="url(#SVGID_16_)" fill="#022169" stroke="#022169" stroke-width="4" stroke-miterlimit="10" x1="472.711" y1="153.154" x2="131.051" y2="153.154"/>
			
				<line clip-path="url(#SVGID_16_)" fill="#022169" stroke="#022169" stroke-width="4" stroke-miterlimit="10" x1="472.711" y1="135.725" x2="131.051" y2="135.725"/>
			
				<line clip-path="url(#SVGID_16_)" fill="#022169" stroke="#022169" stroke-width="4" stroke-miterlimit="10" x1="474.989" y1="237.37" x2="133.329" y2="237.37"/>
			
				<line clip-path="url(#SVGID_16_)" fill="#022169" stroke="#022169" stroke-width="4" stroke-miterlimit="10" x1="474.989" y1="219.941" x2="133.329" y2="219.941"/>
		</g>
	</g>
	<g>
		<g>
			<defs>
				<polygon id="SVGID_17_" points="84.098,162.871 99.073,188.808 84.098,214.745 54.148,214.745 39.173,188.808 54.148,162.871 
									"/>
			</defs>
			<clipPath id="SVGID_18_">
				<use xlink:href="#SVGID_17_"  overflow="visible"/>
			</clipPath>
			<rect x="85.615" y="210.1" clip-path="url(#SVGID_18_)" fill="#00BBBC" width="4.712" height="4.712"/>
			<rect x="76.191" y="210.1" clip-path="url(#SVGID_18_)" fill="#00BBBC" width="4.712" height="4.712"/>
			<rect x="85.615" y="200.676" clip-path="url(#SVGID_18_)" fill="#00BBBC" width="4.712" height="4.712"/>
			<rect x="76.191" y="200.676" clip-path="url(#SVGID_18_)" fill="#00BBBC" width="4.712" height="4.712"/>
			<rect x="66.767" y="210.1" clip-path="url(#SVGID_18_)" fill="#00BBBC" width="4.713" height="4.712"/>
			<rect x="57.343" y="210.1" clip-path="url(#SVGID_18_)" fill="#00BBBC" width="4.712" height="4.712"/>
			<rect x="47.919" y="210.1" clip-path="url(#SVGID_18_)" fill="#00BBBC" width="4.712" height="4.712"/>
			<rect x="66.767" y="200.676" clip-path="url(#SVGID_18_)" fill="#00BBBC" width="4.713" height="4.712"/>
			<rect x="57.343" y="200.676" clip-path="url(#SVGID_18_)" fill="#00BBBC" width="4.712" height="4.712"/>
			<rect x="47.919" y="200.676" clip-path="url(#SVGID_18_)" fill="#00BBBC" width="4.712" height="4.712"/>
			<rect x="85.615" y="172.404" clip-path="url(#SVGID_18_)" fill="#00BBBC" width="4.712" height="4.712"/>
			<rect x="76.191" y="172.404" clip-path="url(#SVGID_18_)" fill="#00BBBC" width="4.712" height="4.712"/>
			<rect x="85.615" y="162.98" clip-path="url(#SVGID_18_)" fill="#00BBBC" width="4.712" height="4.712"/>
			<rect x="76.191" y="162.98" clip-path="url(#SVGID_18_)" fill="#00BBBC" width="4.712" height="4.712"/>
			<rect x="95.039" y="191.252" clip-path="url(#SVGID_18_)" fill="#00BBBC" width="4.712" height="4.712"/>
			<rect x="85.615" y="191.252" clip-path="url(#SVGID_18_)" fill="#00BBBC" width="4.712" height="4.712"/>
			<rect x="76.191" y="191.252" clip-path="url(#SVGID_18_)" fill="#00BBBC" width="4.712" height="4.712"/>
			<rect x="95.039" y="181.828" clip-path="url(#SVGID_18_)" fill="#00BBBC" width="4.712" height="4.712"/>
			<rect x="85.615" y="181.828" clip-path="url(#SVGID_18_)" fill="#00BBBC" width="4.712" height="4.712"/>
			<rect x="76.191" y="181.828" clip-path="url(#SVGID_18_)" fill="#00BBBC" width="4.712" height="4.712"/>
			<rect x="66.767" y="172.404" clip-path="url(#SVGID_18_)" fill="#00BBBC" width="4.713" height="4.712"/>
			<rect x="57.343" y="172.404" clip-path="url(#SVGID_18_)" fill="#00BBBC" width="4.712" height="4.712"/>
			<rect x="47.919" y="172.404" clip-path="url(#SVGID_18_)" fill="#00BBBC" width="4.712" height="4.712"/>
			<rect x="66.767" y="162.98" clip-path="url(#SVGID_18_)" fill="#00BBBC" width="4.713" height="4.712"/>
			<rect x="57.343" y="162.98" clip-path="url(#SVGID_18_)" fill="#00BBBC" width="4.712" height="4.712"/>
			<rect x="47.919" y="162.98" clip-path="url(#SVGID_18_)" fill="#00BBBC" width="4.712" height="4.712"/>
			<rect x="66.767" y="191.252" clip-path="url(#SVGID_18_)" fill="#00BBBC" width="4.713" height="4.712"/>
			<rect x="57.343" y="191.252" clip-path="url(#SVGID_18_)" fill="#00BBBC" width="4.712" height="4.712"/>
			<rect x="47.919" y="191.252" clip-path="url(#SVGID_18_)" fill="#00BBBC" width="4.712" height="4.712"/>
			<rect x="38.495" y="191.252" clip-path="url(#SVGID_18_)" fill="#00BBBC" width="4.712" height="4.712"/>
			<rect x="66.767" y="181.828" clip-path="url(#SVGID_18_)" fill="#00BBBC" width="4.713" height="4.712"/>
			<rect x="57.343" y="181.828" clip-path="url(#SVGID_18_)" fill="#00BBBC" width="4.712" height="4.712"/>
			<rect x="47.919" y="181.828" clip-path="url(#SVGID_18_)" fill="#00BBBC" width="4.712" height="4.712"/>
			<rect x="38.495" y="181.828" clip-path="url(#SVGID_18_)" fill="#00BBBC" width="4.712" height="4.712"/>
		</g>
	</g>
	<polygon fill="#003F5B" points="231.683,107.637 277.085,186.277 231.683,264.917 140.877,264.917 95.475,186.277 140.877,107.637 
			"/>
	<polygon fill="#00BBBC" points="50.656,214.444 36.661,238.685 50.656,262.926 64.652,238.685 	"/>
	<line fill="none" stroke="#F36C42" stroke-width="2" stroke-miterlimit="10" x1="166.726" y1="327.531" x2="144.613" y2="365.35"/>
	
		<line fill="none" stroke="#F36C42" stroke-width="2" stroke-miterlimit="10" x1="181.433" y1="251.256" x2="161.784" y2="284.859"/>
	<line fill="none" stroke="#F36C42" stroke-width="2" stroke-miterlimit="10" x1="181.433" y1="235.05" x2="150.424" y2="288.08"/>
</g>
</svg>
