<?xml version="1.0" encoding="utf-8"?>
<!-- Generator: Adobe Illustrator 17.0.0, SVG Export Plug-In . SVG Version: 6.00 Build 0)  -->
<!DOCTYPE svg PUBLIC "-//W3C//DTD SVG 1.1//EN" "http://www.w3.org/Graphics/SVG/1.1/DTD/svg11.dtd">
<svg version="1.1" id="Layer_1" xmlns="http://www.w3.org/2000/svg" xmlns:xlink="http://www.w3.org/1999/xlink" x="0px" y="0px"
	 width="51.407px" height="51.406px" viewBox="0 0 51.407 51.406" enable-background="new 0 0 51.407 51.406" xml:space="preserve">
<rect x="0" y="0" fill="#E8565D" width="4.674" height="4.673"/>
<rect x="9.347" y="0" fill="#E8565D" width="4.673" height="4.673"/>
<rect x="0" y="9.347" fill="#E8565D" width="4.674" height="4.673"/>
<rect x="9.347" y="9.347" fill="#E8565D" width="4.673" height="4.673"/>
<rect x="18.693" y="0" fill="#E8565D" width="4.674" height="4.673"/>
<rect x="28.041" y="0" fill="#E8565D" width="4.673" height="4.673"/>
<rect x="37.387" y="0" fill="#E8565D" width="4.674" height="4.673"/>
<rect x="18.693" y="9.347" fill="#E8565D" width="4.674" height="4.673"/>
<rect x="28.041" y="9.347" fill="#E8565D" width="4.673" height="4.673"/>
<rect x="37.387" y="9.347" fill="#E8565D" width="4.674" height="4.673"/>
<rect x="0" y="37.386" fill="#E8565D" width="4.674" height="4.673"/>
<rect x="9.347" y="37.386" fill="#E8565D" width="4.673" height="4.673"/>
<rect x="0" y="46.733" fill="#E8565D" width="4.674" height="4.673"/>
<rect x="9.347" y="46.733" fill="#E8565D" width="4.673" height="4.673"/>
<rect x="0" y="18.693" fill="#E8565D" width="4.674" height="4.673"/>
<rect x="9.347" y="18.693" fill="#E8565D" width="4.673" height="4.673"/>
<rect x="0" y="28.04" fill="#E8565D" width="4.674" height="4.673"/>
<rect x="9.347" y="28.04" fill="#E8565D" width="4.673" height="4.673"/>
<rect x="18.693" y="37.386" fill="#E8565D" width="4.674" height="4.673"/>
<rect x="28.041" y="37.386" fill="#E8565D" width="4.673" height="4.673"/>
<rect x="37.387" y="37.386" fill="#E8565D" width="4.674" height="4.673"/>
<rect x="18.693" y="46.733" fill="#E8565D" width="4.674" height="4.673"/>
<rect x="28.041" y="46.733" fill="#E8565D" width="4.673" height="4.673"/>
<rect x="37.387" y="46.733" fill="#E8565D" width="4.674" height="4.673"/>
<rect x="18.693" y="18.693" fill="#E8565D" width="4.674" height="4.673"/>
<rect x="28.041" y="18.693" fill="#E8565D" width="4.673" height="4.673"/>
<rect x="37.387" y="18.693" fill="#E8565D" width="4.674" height="4.673"/>
<rect x="18.693" y="28.04" fill="#E8565D" width="4.674" height="4.673"/>
<rect x="28.041" y="28.04" fill="#E8565D" width="4.673" height="4.673"/>
<rect x="37.387" y="28.04" fill="#E8565D" width="4.674" height="4.673"/>
<rect x="46.733" y="0" fill="#E8565D" width="4.674" height="4.673"/>
<rect x="46.733" y="9.347" fill="#E8565D" width="4.674" height="4.673"/>
<rect x="46.733" y="37.386" fill="#E8565D" width="4.674" height="4.673"/>
<rect x="46.733" y="46.733" fill="#E8565D" width="4.674" height="4.673"/>
<rect x="46.733" y="18.693" fill="#E8565D" width="4.674" height="4.673"/>
<rect x="46.733" y="28.04" fill="#E8565D" width="4.674" height="4.673"/>
</svg>
