<?xml version="1.0" encoding="utf-8"?>
<!-- Generator: Adobe Illustrator 17.0.0, SVG Export Plug-In . SVG Version: 6.00 Build 0)  -->
<!DOCTYPE svg PUBLIC "-//W3C//DTD SVG 1.1//EN" "http://www.w3.org/Graphics/SVG/1.1/DTD/svg11.dtd">
<svg version="1.1" id="Layer_1" xmlns="http://www.w3.org/2000/svg" xmlns:xlink="http://www.w3.org/1999/xlink" x="0px" y="0px"
	 width="416.513px" height="522.781px" viewBox="0 0 416.513 522.781" enable-background="new 0 0 416.513 522.781"
	 xml:space="preserve">
<g>
	<path d="M389.329,44.779L389.329,44.779c3.082,0.531,5.334,3.203,5.334,6.331v420.561c0,3.127-2.252,5.8-5.334,6.331l0,0
		c-7.109,1.224-7.109,11.436,0,12.661l19.671,3.386c3.925,0.676,7.512-2.346,7.512-6.33V35.061c0-3.984-3.587-7.006-7.512-6.33
		l-19.671,3.386C382.22,33.342,382.22,43.554,389.329,44.779z"/>
	<g>
		<polygon points="173.471,400.768 188.383,402.846 180.975,380.618 		"/>
		<path d="M178.891,301.768v-0.21c0-10.739-6.933-20.269-17.094-20.526c-10.067-0.253-16.81,8.428-16.81,18.816v0.207
			c0,10.389,6.933,19.887,17,20.526C172.148,321.226,178.891,312.508,178.891,301.768z"/>
		<path d="M237.746,283.733l-12.063-0.313v18.657l12.155,0.521c6.27,0.269,9.877-3.2,9.877-8.98v-0.223
			C247.715,287.164,243.918,283.894,237.746,283.733z"/>
		<path d="M107.299,202.949v-0.195c0-5.451-3.797-7.991-9.971-7.61l-12.061,0.744v16.271l12.157-0.543
			C103.692,211.335,107.299,208.004,107.299,202.949z"/>
		<path d="M320.858,0.095L5.334,54.426C2.252,54.956,0,57.629,0,60.756v401.269c0,3.127,2.252,5.799,5.334,6.33l315.524,54.331
			c3.925,0.676,7.514-2.347,7.514-6.331V6.425C328.372,2.441,324.783-0.581,320.858,0.095z M148.311,84.728l17.76-2.962
			l28.301,71.322l-19.753,1.887l-4.845-12.709l-25.642,2.773l-4.747,13.301l-19.377,1.85L148.311,84.728z M185.253,200.734v16.362
			l-31.911,1.143v11.516l35.708-0.878v17.706l-53.942,0.427v-71.311l53.469-4.207v17.703l-35.235,2.184v10.99L185.253,200.734z
			 M66.845,98.79l18.423-3.065v51.321l32.195-3.628v17.015l-50.618,4.835V98.79z M66.845,181.071l31.433-2.474
			c10.161-0.8,17.19,1.445,21.653,5.925c3.896,3.751,5.891,9.067,5.891,16.029v0.204c0,10.799-5.416,18.162-13.678,22.144
			l15.862,24.167l-21.276,0.168l-13.389-20.598l-0.19,0.006l-7.883,0.231v20.53l-18.423,0.145V181.071z M66.845,263.351
			l53.183,0.475v17.059l-34.76-0.907v11.52l31.436,1.199v16.105l-31.436-1.711v24.212l-18.423-1.469V263.351z M137.502,423.939
			l-18.331-3.067v-40.304l-17,24.846l-0.379-0.058l-16.904-28.94v38.72l-18.044-3.02v-66.479l19.467,1.88l15.86,28.234l15.86-25.173
			l19.471,1.88V423.939z M126.087,299.418v-0.198c0-20.295,15.385-36.637,35.9-36.483c20.515,0.153,35.71,17.686,35.71,39.438v0.219
			c0,21.75-15.387,38.139-35.9,36.476C141.282,337.204,126.087,319.718,126.087,299.418z M198.544,434.152l-4.843-14.285
			l-25.643-3.965l-4.749,12.355l-19.375-3.242l28.304-69.73l17.758,1.706l28.298,80.465L198.544,434.152z M247.148,344.207
			l-13.391-24.781l-0.192-0.011l-7.881-0.459v23.541l-18.423-1.469v-76.423l31.436,0.279c10.161,0.091,17.185,3.349,21.653,8.902
			c3.891,4.661,5.885,10.918,5.885,18.86v0.232c0,12.318-5.412,20.215-13.672,23.998l15.858,29.026L247.148,344.207z"/>
		<polygon points="157.049,107.208 149.545,128.849 164.457,127.008 		"/>
	</g>
</g>
</svg>
