<?xml version="1.0" encoding="utf-8"?>
<!-- Generator: Adobe Illustrator 17.0.0, SVG Export Plug-In . SVG Version: 6.00 Build 0)  -->
<!DOCTYPE svg PUBLIC "-//W3C//DTD SVG 1.1//EN" "http://www.w3.org/Graphics/SVG/1.1/DTD/svg11.dtd">
<svg version="1.1" id="Layer_1" xmlns="http://www.w3.org/2000/svg" xmlns:xlink="http://www.w3.org/1999/xlink" x="0px" y="0px"
	 width="458.426px" height="404.743px" viewBox="0 0 458.426 404.743" enable-background="new 0 0 458.426 404.743"
	 xml:space="preserve">
<g>
	<path fill="#DCDDE3" d="M289.699,21.804h27.057v79.003c0,1.662,1.377,2.976,3.093,2.976h18.563c1.676,0,3.032-1.313,3.032-2.976
		V21.804h26.957c1.662,0,3.057-1.321,3.057-2.989V4.025c0-1.637-1.395-2.955-3.057-2.955h-78.702c-1.719,0-3.085,1.318-3.085,2.955
		v14.789C286.614,20.483,287.98,21.804,289.699,21.804z"/>
	<path fill="#DCDDE3" d="M355.401,102.483c0.579,0.806,1.527,1.299,2.542,1.299h14.395c2.283,0,4.279-0.657,5.923-1.921
		c1.52-1.204,2.553-2.617,3.107-4.115l6.711-17.793h37.034l6.726,17.839c0.678,1.654,1.754,3.064,3.224,4.19
		c1.577,1.211,3.547,1.8,5.831,1.8h14.352c0.049,0,0.085,0,0.135,0c1.643,0,3.046-1.313,3.046-2.976
		c0-0.692-0.224-1.306-0.628-1.782L418.921,2.942c-0.465-1.129-1.573-1.871-2.837-1.871h-18.99c-1.257,0-2.382,0.742-2.84,1.871
		l-39.172,96.772C354.709,100.658,354.83,101.667,355.401,102.483z M405.691,33.298c0.308-0.782,0.638-1.595,0.948-2.507
		c0.32,0.831,0.582,1.612,0.841,2.344l10.621,28.168h-23.016L405.691,33.298z"/>
	<path fill="#DCDDE3" d="M191.056,103.783h16.358c1.705,0,3.054-1.313,3.054-2.976V42.384l46.238,57.146
		c1.236,1.52,2.539,2.635,3.955,3.302c1.395,0.617,3.018,0.951,4.935,0.951h9.601c1.687,0,3.068-1.313,3.068-2.976V4.025
		c0-1.637-1.381-2.955-3.068-2.955h-16.319c-1.718,0-3.082,1.318-3.082,2.955v58.438L209.392,5.061
		c-0.618-0.734-1.172-1.345-1.686-1.811c-0.625-0.585-1.289-1.033-2.07-1.388c-0.749-0.341-1.552-0.568-2.361-0.668
		c-0.664-0.078-1.491-0.124-2.464-0.124h-9.754c-1.697,0-3.071,1.318-3.071,2.955v96.782
		C187.985,102.469,189.358,103.783,191.056,103.783z"/>
	<path fill="#DCDDE3" d="M206.498,124.431H13.945c-6.807,0-12.297,5.358-12.297,11.97v256.445c0,6.572,5.49,11.898,12.297,11.898
		H85.95c6.772,0,12.26-5.326,12.26-11.898v-90.643h93.541c6.782,0,12.271-5.369,12.271-11.998v-49.036
		c0-6.647-5.49-12.012-12.271-12.012H98.211v-25.04h108.288c6.782,0,12.271-5.351,12.271-11.948V136.4
		C218.77,129.788,213.28,124.431,206.498,124.431z"/>
	<path fill="#DCDDE3" d="M445.814,124.431H256.474c-0.582,0-1.143,0.042-1.697,0.124c-3.508,0.291-6.132,1.1-8,1.974
		c-1.211,0.476-2.301,1.14-3.274,1.963c-0.209,0.163-0.316,0.302-0.316,0.302c-2.397,2.141-3.913,5.241-3.913,8.649v255.235
		c0,6.576,5.486,11.884,12.228,11.884h194.311c6.772,0,12.247-5.358,12.247-11.97v-52.394c0-6.619-5.475-12.002-12.247-12.002
		H334.427v-25.995h97.443c6.74,0,12.236-5.369,12.236-11.998v-49.036c0-6.647-5.497-12.012-12.236-12.012h-97.443v-28.374h111.387
		c6.772,0,12.247-5.348,12.247-11.994V136.4C458.06,129.788,452.585,124.431,445.814,124.431z"/>
	<path fill="#DCDDE3" d="M36.378,84.201c-3.05,0-5.639-0.401-7.762-1.176c-2.286-0.859-4.257-1.782-5.901-2.791
		c-1.726-1.079-3.295-2.056-4.549-2.954c-3.366-2.294-6.793-2.418-9.509-0.838c-1.005,0.6-1.896,1.37-2.855,2.556l-5.372,8.635
		c-0.721,1.14-0.512,2.635,0.436,3.597c2.067,2.07,4.46,3.948,7.102,5.631c2.595,1.658,5.454,3.089,8.479,4.3
		c2.972,1.168,6.125,2.073,9.384,2.737c3.264,0.618,6.626,0.956,10.003,0.956c5.866,0,11.202-0.898,15.805-2.649
		c4.666-1.768,8.635-4.229,11.874-7.35c3.274-3.114,5.773-6.807,7.47-10.993c1.68-4.151,2.525-8.66,2.525-13.361
		c0-4.432-0.735-8.305-2.205-11.501c-1.51-3.117-3.484-5.852-5.987-8.057c-2.358-2.144-5.102-3.934-8.106-5.312
		c-2.862-1.338-5.81-2.492-8.771-3.483c-2.883-0.955-5.752-1.885-8.511-2.723c-2.55-0.817-4.907-1.694-6.938-2.709
		c-1.765-0.86-3.199-1.925-4.24-3.139c-0.835-0.958-1.235-2.208-1.235-3.792c0-1.37,0.238-2.645,0.713-3.757
		c0.473-1.051,1.133-1.939,2.11-2.727c0.972-0.806,2.262-1.484,3.792-1.945c3.388-1.065,8.831-1.001,12.186,0.106
		c1.907,0.643,3.6,1.339,4.989,2.088c1.53,0.831,2.844,1.601,3.948,2.244c3.245,1.971,6.327,1.865,8.72,0.437
		c1.154-0.675,2.091-1.772,2.848-3.228l4.538-8.5c0.664-1.161,0.398-2.606-0.604-3.526C66.99,7.526,62.363,4.806,57.04,2.864
		C47.038-0.761,34.014-1.035,24.697,2.558c-4.4,1.686-8.181,3.991-11.213,6.828c-3.096,2.865-5.454,6.185-7.066,9.903
		c-1.612,3.7-2.422,7.556-2.422,11.444c0,4.826,0.756,8.955,2.233,12.303c1.446,3.387,3.437,6.239,5.901,8.515
		c2.393,2.244,5.17,4.055,8.178,5.429c2.886,1.303,5.823,2.432,8.788,3.366c2.901,0.891,5.756,1.722,8.518,2.496
		c2.518,0.693,4.801,1.555,6.793,2.557c1.801,0.895,3.189,1.995,4.233,3.256c0.887,1.09,1.292,2.514,1.292,4.374
		c0,3.693-1.073,6.374-3.27,8.238C44.336,83.2,40.888,84.201,36.378,84.201z"/>
	<path fill="#DCDDE3" d="M80.099,103.783h14.423c2.301,0,4.293-0.657,5.88-1.921c1.516-1.204,2.589-2.617,3.132-4.115l6.718-17.793
		h37.01l6.753,17.839c0.649,1.654,1.739,3.064,3.224,4.19c1.598,1.211,3.551,1.8,5.841,1.8h14.355c0.049,0,0.11,0,0.11,0
		c1.726,0,3.089-1.313,3.089-2.976c0-0.692-0.245-1.306-0.639-1.782L141.083,2.942c-0.441-1.129-1.58-1.871-2.837-1.871h-18.954
		c-1.254,0-2.383,0.742-2.866,1.871L77.279,99.714c-0.404,0.944-0.263,1.953,0.305,2.769
		C78.167,103.29,79.076,103.783,80.099,103.783z M127.842,33.298c0.298-0.782,0.628-1.595,0.937-2.507
		c0.319,0.831,0.604,1.612,0.873,2.344l10.634,28.168h-23.03L127.842,33.298z"/>
</g>
</svg>
