<?xml version="1.0" encoding="UTF-8" standalone="no"?>
<!-- Generator: Adobe Illustrator 17.0.0, SVG Export Plug-In . SVG Version: 6.00 Build 0)  -->

<svg
   xmlns:dc="http://purl.org/dc/elements/1.1/"
   xmlns:cc="http://creativecommons.org/ns#"
   xmlns:rdf="http://www.w3.org/1999/02/22-rdf-syntax-ns#"
   xmlns:svg="http://www.w3.org/2000/svg"
   xmlns="http://www.w3.org/2000/svg"
   xmlns:sodipodi="http://sodipodi.sourceforge.net/DTD/sodipodi-0.dtd"
   xmlns:inkscape="http://www.inkscape.org/namespaces/inkscape"
   version="1.1"
   id="Layer_1"
   x="0px"
   y="0px"
   width="1128.6339"
   height="522.78076"
   viewBox="0 0 1128.6339 522.78076"
   enable-background="new 0 0 416.513 522.781"
   xml:space="preserve"
   inkscape:version="0.91 r13725"
   sodipodi:docname="sf-ref-logo-grey.svg"><metadata
     id="metadata25"><rdf:RDF><cc:Work
         rdf:about=""><dc:format>image/svg+xml</dc:format><dc:type
           rdf:resource="http://purl.org/dc/dcmitype/StillImage" /><dc:title></dc:title></cc:Work></rdf:RDF></metadata><defs
     id="defs23" /><sodipodi:namedview
     pagecolor="#ffffff"
     bordercolor="#666666"
     borderopacity="1"
     objecttolerance="10"
     gridtolerance="10"
     guidetolerance="10"
     inkscape:pageopacity="0"
     inkscape:pageshadow="2"
     inkscape:window-width="1366"
     inkscape:window-height="747"
     id="namedview21"
     showgrid="false"
     fit-margin-top="0"
     fit-margin-left="0"
     fit-margin-right="0"
     fit-margin-bottom="0"
     inkscape:zoom="0.45143186"
     inkscape:cx="289.11481"
     inkscape:cy="316.67484"
     inkscape:window-x="0"
     inkscape:window-y="333"
     inkscape:window-maximized="1"
     inkscape:current-layer="Layer_1" /><g
     id="g3"
     transform="translate(712.12191,-1.1676151e-4)"
     style="fill:#dcdde3;fill-opacity:1"><path
       d="m 389.329,44.779 0,0 c 3.082,0.531 5.334,3.203 5.334,6.331 l 0,420.561 c 0,3.127 -2.252,5.8 -5.334,6.331 l 0,0 c -7.109,1.224 -7.109,11.436 0,12.661 L 409,494.049 c 3.925,0.676 7.512,-2.346 7.512,-6.33 l 0,-452.658 c 0,-3.984 -3.587,-7.006 -7.512,-6.33 l -19.671,3.386 c -7.109,1.225 -7.109,11.437 0,12.662 z"
       id="path5"
       inkscape:connector-curvature="0"
       style="fill:#dcdde3;fill-opacity:1" /><g
       id="g7"
       style="fill:#dcdde3;fill-opacity:1"><polygon
         points="173.471,400.768 188.383,402.846 180.975,380.618 "
         id="polygon9"
         style="fill:#dcdde3;fill-opacity:1" /><path
         d="m 178.891,301.768 0,-0.21 c 0,-10.739 -6.933,-20.269 -17.094,-20.526 -10.067,-0.253 -16.81,8.428 -16.81,18.816 l 0,0.207 c 0,10.389 6.933,19.887 17,20.526 10.161,0.645 16.904,-8.073 16.904,-18.813 z"
         id="path11"
         inkscape:connector-curvature="0"
         style="fill:#dcdde3;fill-opacity:1" /><path
         d="m 237.746,283.733 -12.063,-0.313 0,18.657 12.155,0.521 c 6.27,0.269 9.877,-3.2 9.877,-8.98 l 0,-0.223 c 0,-6.231 -3.797,-9.501 -9.969,-9.662 z"
         id="path13"
         inkscape:connector-curvature="0"
         style="fill:#dcdde3;fill-opacity:1" /><path
         d="m 107.299,202.949 0,-0.195 c 0,-5.451 -3.797,-7.991 -9.971,-7.61 l -12.061,0.744 0,16.271 12.157,-0.543 c 6.268,-0.281 9.875,-3.612 9.875,-8.667 z"
         id="path15"
         inkscape:connector-curvature="0"
         style="fill:#dcdde3;fill-opacity:1" /><path
         d="M 320.858,0.095 5.334,54.426 C 2.252,54.956 0,57.629 0,60.756 l 0,401.269 c 0,3.127 2.252,5.799 5.334,6.33 l 315.524,54.331 c 3.925,0.676 7.514,-2.347 7.514,-6.331 l 0,-509.93 c 0,-3.984 -3.589,-7.006 -7.514,-6.33 z m -172.547,84.633 17.76,-2.962 28.301,71.322 -19.753,1.887 -4.845,-12.709 -25.642,2.773 -4.747,13.301 -19.377,1.85 28.303,-75.462 z m 36.942,116.006 0,16.362 -31.911,1.143 0,11.516 35.708,-0.878 0,17.706 -53.942,0.427 0,-71.311 53.469,-4.207 0,17.703 -35.235,2.184 0,10.99 31.911,-1.635 z M 66.845,98.79 l 18.423,-3.065 0,51.321 32.195,-3.628 0,17.015 -50.618,4.835 0,-66.478 z m 0,82.281 31.433,-2.474 c 10.161,-0.8 17.19,1.445 21.653,5.925 3.896,3.751 5.891,9.067 5.891,16.029 l 0,0.204 c 0,10.799 -5.416,18.162 -13.678,22.144 l 15.862,24.167 -21.276,0.168 -13.389,-20.598 -0.19,0.006 -7.883,0.231 0,20.53 -18.423,0.145 0,-66.477 z m 0,82.28 53.183,0.475 0,17.059 -34.76,-0.907 0,11.52 31.436,1.199 0,16.105 -31.436,-1.711 0,24.212 -18.423,-1.469 0,-66.483 z m 70.657,160.588 -18.331,-3.067 0,-40.304 -17,24.846 -0.379,-0.058 -16.904,-28.94 0,38.72 -18.044,-3.02 0,-66.479 19.467,1.88 15.86,28.234 15.86,-25.173 19.471,1.88 0,71.481 z m -11.415,-124.521 0,-0.198 c 0,-20.295 15.385,-36.637 35.9,-36.483 20.515,0.153 35.71,17.686 35.71,39.438 l 0,0.219 c 0,21.75 -15.387,38.139 -35.9,36.476 -20.515,-1.666 -35.71,-19.152 -35.71,-39.452 z m 72.457,134.734 -4.843,-14.285 -25.643,-3.965 -4.749,12.355 -19.375,-3.242 28.304,-69.73 17.758,1.706 28.298,80.465 -19.75,-3.304 z m 48.604,-89.945 -13.391,-24.781 -0.192,-0.011 -7.881,-0.459 0,23.541 -18.423,-1.469 0,-76.423 31.436,0.279 c 10.161,0.091 17.185,3.349 21.653,8.902 3.891,4.661 5.885,10.918 5.885,18.86 l 0,0.232 c 0,12.318 -5.412,20.215 -13.672,23.998 l 15.858,29.026 -21.273,-1.695 z"
         id="path17"
         inkscape:connector-curvature="0"
         style="fill:#dcdde3;fill-opacity:1" /><polygon
         points="157.049,107.208 149.545,128.849 164.457,127.008 "
         id="polygon19"
         style="fill:#dcdde3;fill-opacity:1" /></g></g><g
     transform="translate(0.00107423,63.448791)"
     id="g28"
     style="fill:#dcdde3;fill-opacity:1"><path
       inkscape:connector-curvature="0"
       d="m 289.699,21.804 27.057,0 0,79.003 c 0,1.662 1.377,2.976 3.093,2.976 l 18.563,0 c 1.676,0 3.032,-1.313 3.032,-2.976 l 0,-79.003 26.957,0 c 1.662,0 3.057,-1.321 3.057,-2.989 l 0,-14.79 c 0,-1.637 -1.395,-2.955 -3.057,-2.955 l -78.702,0 c -1.719,0 -3.085,1.318 -3.085,2.955 l 0,14.789 c 0,1.669 1.366,2.99 3.085,2.99 z"
       id="path30"
       style="fill:#dcdde3;fill-opacity:1" /><path
       inkscape:connector-curvature="0"
       d="m 355.401,102.483 c 0.579,0.806 1.527,1.299 2.542,1.299 l 14.395,0 c 2.283,0 4.279,-0.657 5.923,-1.921 1.52,-1.204 2.553,-2.617 3.107,-4.115 l 6.711,-17.793 37.034,0 6.726,17.839 c 0.678,1.654 1.754,3.064 3.224,4.19 1.577,1.211 3.547,1.8 5.831,1.8 l 14.352,0 c 0.049,0 0.085,0 0.135,0 1.643,0 3.046,-1.313 3.046,-2.976 0,-0.692 -0.224,-1.306 -0.628,-1.782 L 418.921,2.942 c -0.465,-1.129 -1.573,-1.871 -2.837,-1.871 l -18.99,0 c -1.257,0 -2.382,0.742 -2.84,1.871 l -39.172,96.772 c -0.373,0.944 -0.252,1.953 0.319,2.769 z m 50.29,-69.185 c 0.308,-0.782 0.638,-1.595 0.948,-2.507 0.32,0.831 0.582,1.612 0.841,2.344 l 10.621,28.168 -23.016,0 10.606,-28.005 z"
       id="path32"
       style="fill:#dcdde3;fill-opacity:1" /><path
       inkscape:connector-curvature="0"
       d="m 191.056,103.783 16.358,0 c 1.705,0 3.054,-1.313 3.054,-2.976 l 0,-58.423 46.238,57.146 c 1.236,1.52 2.539,2.635 3.955,3.302 1.395,0.617 3.018,0.951 4.935,0.951 l 9.601,0 c 1.687,0 3.068,-1.313 3.068,-2.976 l 0,-96.782 c 0,-1.637 -1.381,-2.955 -3.068,-2.955 l -16.319,0 c -1.718,0 -3.082,1.318 -3.082,2.955 l 0,58.438 L 209.392,5.061 C 208.774,4.327 208.22,3.716 207.706,3.25 207.081,2.665 206.417,2.217 205.636,1.862 204.887,1.521 204.084,1.294 203.275,1.194 202.611,1.116 201.784,1.07 200.811,1.07 l -9.754,0 c -1.697,0 -3.071,1.318 -3.071,2.955 l 0,96.782 c -10e-4,1.662 1.372,2.976 3.07,2.976 z"
       id="path34"
       style="fill:#dcdde3;fill-opacity:1" /><path
       inkscape:connector-curvature="0"
       d="m 206.498,124.431 -192.553,0 c -6.807,0 -12.297,5.358 -12.297,11.97 l 0,256.445 c 0,6.572 5.49,11.898 12.297,11.898 l 72.005,0 c 6.772,0 12.26,-5.326 12.26,-11.898 l 0,-90.643 93.541,0 c 6.782,0 12.271,-5.369 12.271,-11.998 l 0,-49.036 c 0,-6.647 -5.49,-12.012 -12.271,-12.012 l -93.54,0 0,-25.04 108.288,0 c 6.782,0 12.271,-5.351 12.271,-11.948 l 0,-55.769 c 0,-6.612 -5.49,-11.969 -12.272,-11.969 z"
       id="path36"
       style="fill:#dcdde3;fill-opacity:1" /><path
       inkscape:connector-curvature="0"
       d="m 445.814,124.431 -189.34,0 c -0.582,0 -1.143,0.042 -1.697,0.124 -3.508,0.291 -6.132,1.1 -8,1.974 -1.211,0.476 -2.301,1.14 -3.274,1.963 -0.209,0.163 -0.316,0.302 -0.316,0.302 -2.397,2.141 -3.913,5.241 -3.913,8.649 l 0,255.235 c 0,6.576 5.486,11.884 12.228,11.884 l 194.311,0 c 6.772,0 12.247,-5.358 12.247,-11.97 l 0,-52.394 c 0,-6.619 -5.475,-12.002 -12.247,-12.002 l -111.386,0 0,-25.995 97.443,0 c 6.74,0 12.236,-5.369 12.236,-11.998 l 0,-49.036 c 0,-6.647 -5.497,-12.012 -12.236,-12.012 l -97.443,0 0,-28.374 111.387,0 c 6.772,0 12.247,-5.348 12.247,-11.994 l 0,-52.387 c -10e-4,-6.612 -5.476,-11.969 -12.247,-11.969 z"
       id="path38"
       style="fill:#dcdde3;fill-opacity:1" /><path
       inkscape:connector-curvature="0"
       d="m 36.378,84.201 c -3.05,0 -5.639,-0.401 -7.762,-1.176 C 26.33,82.166 24.359,81.243 22.715,80.234 20.989,79.155 19.42,78.178 18.166,77.28 14.8,74.986 11.373,74.862 8.657,76.442 c -1.005,0.6 -1.896,1.37 -2.855,2.556 L 0.43,87.633 c -0.721,1.14 -0.512,2.635 0.436,3.597 2.067,2.07 4.46,3.948 7.102,5.631 2.595,1.658 5.454,3.089 8.479,4.3 2.972,1.168 6.125,2.073 9.384,2.737 3.264,0.618 6.626,0.956 10.003,0.956 5.866,0 11.202,-0.898 15.805,-2.649 4.666,-1.768 8.635,-4.229 11.874,-7.35 3.274,-3.114 5.773,-6.807 7.47,-10.993 1.68,-4.151 2.525,-8.66 2.525,-13.361 0,-4.432 -0.735,-8.305 -2.205,-11.501 -1.51,-3.117 -3.484,-5.852 -5.987,-8.057 -2.358,-2.144 -5.102,-3.934 -8.106,-5.312 -2.862,-1.338 -5.81,-2.492 -8.771,-3.483 -2.883,-0.955 -5.752,-1.885 -8.511,-2.723 -2.55,-0.817 -4.907,-1.694 -6.938,-2.709 -1.765,-0.86 -3.199,-1.925 -4.24,-3.139 -0.835,-0.958 -1.235,-2.208 -1.235,-3.792 0,-1.37 0.238,-2.645 0.713,-3.757 0.473,-1.051 1.133,-1.939 2.11,-2.727 0.972,-0.806 2.262,-1.484 3.792,-1.945 3.388,-1.065 8.831,-1.001 12.186,0.106 1.907,0.643 3.6,1.339 4.989,2.088 1.53,0.831 2.844,1.601 3.948,2.244 3.245,1.971 6.327,1.865 8.72,0.437 1.154,-0.675 2.091,-1.772 2.848,-3.228 l 4.538,-8.5 C 72.023,13.342 71.757,11.897 70.755,10.977 66.99,7.526 62.363,4.806 57.04,2.864 47.038,-0.761 34.014,-1.035 24.697,2.558 c -4.4,1.686 -8.181,3.991 -11.213,6.828 -3.096,2.865 -5.454,6.185 -7.066,9.903 -1.612,3.7 -2.422,7.556 -2.422,11.444 0,4.826 0.756,8.955 2.233,12.303 1.446,3.387 3.437,6.239 5.901,8.515 2.393,2.244 5.17,4.055 8.178,5.429 2.886,1.303 5.823,2.432 8.788,3.366 2.901,0.891 5.756,1.722 8.518,2.496 2.518,0.693 4.801,1.555 6.793,2.557 1.801,0.895 3.189,1.995 4.233,3.256 0.887,1.09 1.292,2.514 1.292,4.374 0,3.693 -1.073,6.374 -3.27,8.238 -2.326,1.933 -5.774,2.934 -10.284,2.934 z"
       id="path40"
       style="fill:#dcdde3;fill-opacity:1" /><path
       inkscape:connector-curvature="0"
       d="m 80.099,103.783 14.423,0 c 2.301,0 4.293,-0.657 5.88,-1.921 1.516,-1.204 2.589,-2.617 3.132,-4.115 l 6.718,-17.793 37.01,0 6.753,17.839 c 0.649,1.654 1.739,3.064 3.224,4.19 1.598,1.211 3.551,1.8 5.841,1.8 l 14.355,0 c 0.049,0 0.11,0 0.11,0 1.726,0 3.089,-1.313 3.089,-2.976 0,-0.692 -0.245,-1.306 -0.639,-1.782 L 141.083,2.942 c -0.441,-1.129 -1.58,-1.871 -2.837,-1.871 l -18.954,0 c -1.254,0 -2.383,0.742 -2.866,1.871 L 77.279,99.714 c -0.404,0.944 -0.263,1.953 0.305,2.769 0.583,0.807 1.492,1.3 2.515,1.3 z m 47.743,-70.485 c 0.298,-0.782 0.628,-1.595 0.937,-2.507 0.319,0.831 0.604,1.612 0.873,2.344 l 10.634,28.168 -23.03,0 10.586,-28.005 z"
       id="path42"
       style="fill:#dcdde3;fill-opacity:1" /></g></svg>